SplineFontDB: 2.0
FontName: THKodchasal-Italic
FullName: THKodchasal-Italic
FamilyName: TH Kodchasal
Weight: Book
Copyright: Copyright (c) 2006 by Department of Intellectual Property (DIP), Ministry of Commerce and Software Industry Promotion Agency (Public Organization) (SIPA). All rights reserved.
Version: 1.1
ItalicAngle: -12
UnderlinePosition: -35
UnderlineWidth: 30
Ascent: 800
Descent: 200
NeedsXUIDChange: 1
XUID: [1021 375 425136265 7891865]
FSType: 0
OS2Version: 3
OS2_WeightWidthSlopeOnly: 0
OS2_UseTypoMetrics: 1
CreationTime: 1157456700
ModificationTime: 1196508103
PfmFamily: 17
TTFWeight: 400
TTFWidth: 5
LineGap: 30
VLineGap: 0
Panose: 2 0 5 6 0 0 0 2 0 4
OS2TypoAscent: 0
OS2TypoAOffset: 1
OS2TypoDescent: 0
OS2TypoDOffset: 1
OS2TypoLinegap: 0
OS2WinAscent: 10
OS2WinAOffset: 1
OS2WinDescent: 4
OS2WinDOffset: 1
HheadAscent: -45
HheadAOffset: 1
HheadDescent: 261
HheadDOffset: 1
OS2SubXSize: 700
OS2SubYSize: 650
OS2SubXOff: 0
OS2SubYOff: 140
OS2SupXSize: 700
OS2SupYSize: 650
OS2SupXOff: 0
OS2SupYOff: 477
OS2StrikeYSize: 30
OS2StrikeYPos: 250
OS2FamilyClass: 773
OS2Vendor: 'IPTH'
Lookup: 4 0 0 "'frac' Diagonal Fractions in Latin lookup 0"  {"'frac' Diagonal Fractions in Latin lookup 0 subtable"  } ['frac' ('latn' <'dflt' > ) ]
Lookup: 6 0 0 "'liga' Standard Ligatures in Latin lookup 1"  {"'liga' Standard Ligatures in Latin lookup 1 subtable"  } ['liga' ('latn' <'dflt' > ) ]
Lookup: 6 0 0 "'liga' Standard Ligatures in Latin lookup 2"  {"'liga' Standard Ligatures in Latin lookup 2 subtable"  } ['liga' ('latn' <'dflt' > ) ]
Lookup: 6 0 0 "'liga' Standard Ligatures in Latin lookup 3"  {"'liga' Standard Ligatures in Latin lookup 3 subtable"  } ['liga' ('latn' <'dflt' > ) ]
Lookup: 6 0 0 "'liga' Standard Ligatures in Latin lookup 4"  {"'liga' Standard Ligatures in Latin lookup 4 subtable"  } ['liga' ('latn' <'dflt' > ) ]

StartChar: .notdef
Encoding: 65536 -1 0
Width: 736
VWidth: 1473
Flags: W
HStem: 0 52<154 603> 972 52<350 799>
Fore
603 52 m 1
 799 972 l 1
 350 972 l 1
 154 52 l 1
 603 52 l 1
642 0 m 1
 93 0 l 1
 311 1024 l 1
 860 1024 l 1
 642 0 l 1
EndSplineSet
EndChar
StartChar: numbersign
Encoding: 35 35 4
Width: 674
VWidth: 1473
Flags: W
HStem: 0 21G<175 190.5 380 395.5> 221 56<135.809 239 315 445 522 611.993> 461 56<229.25 332 409 537 615 705.729>
Fore
710 499 m 0
 710 486 701 461 658 461 c 2
 593 461 l 1
 522 277 l 1
 586 277 l 2
 606 277 616 271 616 259 c 0
 616 244 606 221 564 221 c 2
 499 221 l 1
 428 38 l 2
 419 13 405 -0 386 0 c 0
 374 0 368 6 368 17 c 0
 368 22 370 29 373 38 c 2
 445 221 l 1
 294 221 l 1
 223 38 l 2
 214 13 200 -0 181 0 c 0
 169 0 163 5 163 15 c 0
 163 21 165 29 169 38 c 2
 239 221 l 1
 162 221 l 2
 141 221 130 226 130 237 c 1
 130 237 131 277 183 277 c 2
 261 277 l 1
 332 461 l 1
 254 461 l 2
 234 461 224 467 224 478 c 0
 224 486 230 517 276 517 c 2
 355 517 l 1
 416 675 l 2
 425 702 440 715 460 715 c 0
 471 715 476 710 476 700 c 0
 476 693 474 685 470 675 c 2
 409 517 l 1
 559 517 l 1
 620 675 l 2
 630 702 645 715 665 715 c 0
 676 715 681 710 681 699 c 0
 681 693 680 685 676 675 c 2
 615 517 l 1
 679 517 l 2
 700 517 710 511 710 499 c 0
388 461 m 1
 315 277 l 1
 466 277 l 1
 537 461 l 1
 388 461 l 1
EndSplineSet
EndChar
StartChar: dollar
Encoding: 36 36 5
Width: 623
VWidth: 1473
Flags: W
HStem: -6 168<98 282> 330 57<280.568 353 421 510.109> 661 59<323.266 424 492 586.16>
VStem: 139 58<441.294 559.956> 583 60<151.646 272.138>
Fore
492 720 m 1
 672 712 721 609 721 587 c 0
 721 570 702 553 685 553 c 0
 653 553 672 595 599 633 c 0
 566 650 526 660 480 661 c 1
 421 385 l 1
 550 380 643 324 643 232 c 0
 643 147 567 6 338 -6 c 1
 329 -47 l 2
 323 -74 312 -87 294 -87 c 0
 279 -87 271 -79 271 -63 c 0
 271 -58 272 -53 273 -47 c 2
 282 -6 l 1
 121 8 62 93 62 129 c 0
 62 149 84 162 98 162 c 0
 107 162 115 157 118 147 c 0
 138 95 208 58 294 53 c 1
 353 330 l 1
 225 342 139 392 139 481 c 0
 139 529 175 704 436 719 c 1
 446 765 l 2
 451 791 464 804 483 804 c 0
 497 804 504 796 504 781 c 0
 504 776 503 771 502 765 c 2
 492 720 l 1
424 661 m 1
 242 653 197 540 197 491 c 0
 197 425 272 401 365 387 c 1
 424 661 l 1
350 52 m 1
 502 56 583 146 583 219 c 0
 583 284 508 322 409 327 c 1
 350 52 l 1
EndSplineSet
EndChar
StartChar: percent
Encoding: 37 37 6
Width: 593
VWidth: 1473
Flags: W
HStem: 0 43<377.663 492.818> 221 44<406.318 522.08> 486 44<229.266 345.932> 709 42<258.795 374.563>
VStem: 167 44<548.236 660.212> 314 45<61.5958 173.868> 393 45<576.579 690.174> 540 45<90.1041 202.378>
Fore
167 590 m 0
 167 672 240 751 331 751 c 256
 395 751 438 709 438 648 c 0
 438 570 366 486 274 486 c 256
 208 486 167 531 167 590 c 0
95 9 m 2
 87 -0 79 -4 72 -4 c 0
 59 -4 51 7 51 20 c 0
 51 26 53 31 57 35 c 2
 647 742 l 2
 654 751 663 755 670 755 c 0
 681 755 690 746 690 734 c 0
 690 728 688 722 684 716 c 2
 95 9 l 2
314 104 m 0
 314 184 386 265 477 265 c 256
 544 265 585 219 585 161 c 0
 585 80 511 0 421 0 c 256
 354 0 314 44 314 104 c 0
322 709 m 0
 261 709 211 654 211 599 c 0
 211 560 238 530 284 530 c 0
 342 530 393 582 393 639 c 0
 393 680 364 709 322 709 c 0
468 221 m 256
 412 221 359 170 359 113 c 0
 359 70 389 43 430 43 c 256
 491 43 540 97 540 152 c 0
 540 190 513 221 468 221 c 256
EndSplineSet
EndChar
StartChar: ampersand
Encoding: 38 38 7
Width: 769
VWidth: 1473
Flags: W
HStem: -7 59<216.486 410.851> 709 51<432.089 581.823>
VStem: 102 58<105.312 251.977> 304 60<516.584 651.31> 609 61<581.062 682.813>
Fore
304 578 m 0
 304 697 435 760 524 760 c 0
 614 760 670 718 670 649 c 0
 670 582 626 524 538 482 c 0
 494 458 467 445 448 438 c 1
 600 212 l 1
 611 223 666 334 680 385 c 0
 685 399 698 417 717 417 c 0
 730 417 744 412 744 395 c 0
 744 360 681 233 633 165 c 1
 633 166 636 163 640 156 c 0
 701 75 723 53 723 35 c 0
 723 16 697 3 685 3 c 0
 670 3 660 17 645 34 c 2
 600 93 l 2
 593 103 587 110 584 113 c 1
 561 94 l 2
 519 59 407 -7 286 -7 c 0
 171 -7 102 61 102 157 c 0
 102 337 316 443 352 457 c 1
 313 506 304 547 304 578 c 0
512 709 m 0
 476 709 364 682 364 590 c 0
 364 538 404 489 410 477 c 1
 462 499 l 2
 481 507 609 564 609 627 c 0
 609 656 594 709 512 709 c 0
386 415 m 1
 352 401 160 318 160 173 c 0
 160 93 222 52 312 52 c 0
 392 52 492 88 556 158 c 1
 555 161 548 171 535 190 c 2
 386 415 l 1
EndSplineSet
EndChar
StartChar: quotesingle
Encoding: 39 39 8
Width: 197
VWidth: 1473
Flags: W
HStem: 474 248<213.234 226.781>
VStem: 170 98<499 699 499 499>
Fore
231 514 m 2
 228 484 214 476 195 474 c 0
 178 474 170 482 170 499 c 0
 170 504 171 508 172 514 c 2
 208 684 l 2
 213 709 226 722 246 722 c 0
 261 722 268 714 268 699 c 0
 268 695 267 690 266 684 c 2
 231 514 l 2
EndSplineSet
EndChar
StartChar: parenleft
Encoding: 40 40 9
Width: 294
VWidth: 1473
Flags: W
VStem: 116 61<-176.822 -143.5 -143.5 -107.419 -142.581 195.55>
Fore
145 -179 m 0
 128 -179 116 -166 116 -60 c 0
 116 378 308 737 316 742 c 1
 322 755 333 761 344 761 c 0
 355 761 366 753 366 741 c 0
 366 736 364 729 359 722 c 0
 328 672 172 333 172 -42 c 0
 172 -104 176 -139 176 -140 c 1
 177 -142 177 -145 177 -147 c 0
 177 -165 160 -179 145 -179 c 0
EndSplineSet
EndChar
StartChar: parenright
Encoding: 41 41 10
Width: 294
VWidth: 1473
Flags: W
VStem: 248 54<387.068 727.338 695.75 757.859>
Fore
276 761 m 0
 296 761 302 744 302 642 c 0
 302 206 111 -155 104 -161 c 1
 98 -171 88 -179 76 -179 c 0
 62 -179 53 -169 53 -157 c 0
 53 -152 55 -146 58 -140 c 2
 75 -108 l 2
 140 18 248 319 248 627 c 0
 248 689 241 713 241 722 c 0
 239 743 258 761 276 761 c 0
EndSplineSet
EndChar
StartChar: asterisk
Encoding: 42 42 11
Width: 674
VWidth: 1473
Flags: W
HStem: 314 430<404 495 495 495>
VStem: 446 70<648.984 726.079>
Fore
446 550 m 1
 466 693 452 744 495 744 c 0
 507 744 516 737 516 726 c 0
 516 709 474 587 465 550 c 1
 535 594 615 664 634 664 c 0
 645 664 656 654 656 642 c 0
 656 609 587 598 469 529 c 1
 506 498 534 492 604 439 c 1
 609 424 l 1
 608 411 592 395 577 395 c 0
 562 395 543 421 456 508 c 1
 444 444 446 394 433 336 c 0
 431 323 414 314 404 314 c 0
 396 314 383 322 383 334 c 0
 383 358 418 437 437 508 c 1
 337 448 288 394 266 394 c 0
 250 394 246 408 246 414 c 0
 246 423 251 433 258 438 c 0
 323 480 343 481 432 529 c 1
 307 611 292 618 292 632 c 0
 292 650 310 664 325 664 c 0
 329 664 332 663 334 661 c 0
 395 612 373 611 446 550 c 1
EndSplineSet
EndChar
StartChar: plus
Encoding: 43 43 12
Width: 606
VWidth: 1473
Flags: W
HStem: 25 458<310 408 639.576 823.872> 224 56<136.41 323 391 577.911>
VStem: 134 447<244.679 260.801>
Fore
581 259 m 0x60
 581 245 571 224 534 224 c 2
 379 224 l 1x60
 345 65 l 2
 339 38 328 25 310 25 c 0xa0
 295 25 287 33 287 49 c 0
 287 53 288 59 289 65 c 2
 323 224 l 1
 169 224 l 2
 146 224 134 232 134 246 c 0
 134 260 142 280 181 280 c 2
 335 280 l 1x60
 369 443 l 2
 375 470 388 483 408 483 c 0xa0
 421 483 427 476 427 461 c 0
 427 456 427 450 425 443 c 2
 391 280 l 1
 546 280 l 2
 569 280 581 273 581 259 c 0x60
EndSplineSet
EndChar
StartChar: comma
Encoding: 44 44 13
Width: 293
VWidth: 1473
Flags: W
HStem: -109 228<127 131>
VStem: 54 174<-92 59>
Fore
90 37 m 0
 90 77 127 119 173 119 c 0
 197 119 228 104 228 59 c 0
 228 -25 131 -109 80 -109 c 0
 65 -109 54 -102 54 -92 c 0
 54 -83 65 -73 72 -69 c 1
 137 -44 153 -25 165 0 c 1
 158 -4 153 -6 148 -6 c 0
 100 -6 90 18 90 37 c 0
EndSplineSet
EndChar
StartChar: hyphen
Encoding: 45 45 14
Width: 515
VWidth: 1473
Flags: W
HStem: 225 56<137.531 484.283 182 440 182 182>
VStem: 135 352<244.947 261.053>
Fore
487 260 m 0
 487 246 479 225 440 225 c 2
 170 225 l 2
 147 225 135 232 135 246 c 0
 135 260 142 281 182 281 c 2
 452 281 l 2
 475 281 487 274 487 260 c 0
EndSplineSet
EndChar
StartChar: period
Encoding: 46 46 15
Width: 297
VWidth: 1473
Flags: W
HStem: 1 124<127.75 201.741>
VStem: 102 126<27.0894 99.9182>
Fore
228 76 m 0
 228 35 187 1 152 1 c 256
 121 1 102 24 102 52 c 0
 102 93 145 125 179 125 c 256
 209 125 228 102 228 76 c 0
EndSplineSet
EndChar
StartChar: slash
Encoding: 47 47 16
Width: 484
VWidth: 1473
Flags: W
Fore
77 -75 m 2
 69 -85 60 -89 52 -89 c 0
 40 -89 30 -80 30 -68 c 0
 30 -64 32 -59 35 -55 c 2
 535 698 l 2
 543 708 552 713 561 713 c 0
 573 713 582 704 582 692 c 0
 582 688 581 683 577 678 c 2
 77 -75 l 2
EndSplineSet
EndChar
StartChar: zero
Encoding: 48 48 17
Width: 658
VWidth: 1473
Flags: W
HStem: -3 63<254.668 441.447> 654 63<376.265 560.86>
VStem: 119 65<134.152 331.295> 629 64<383.615 582.905>
Fore
482 717 m 0
 637 717 693 622 693 491 c 0
 693 449 687 404 677 357 c 256
 635 161 533 -3 329 -3 c 256
 169 -3 119 99 119 222 c 0
 119 266 125 312 135 357 c 0
 197 650 374 717 482 717 c 0
343 60 m 0
 583 60 629 387 629 481 c 0
 629 607 567 654 469 654 c 256
 233 654 184 345.1 184 238 c 0
 184 136 224 60 343 60 c 0
EndSplineSet
EndChar
StartChar: one
Encoding: 49 49 18
Width: 478
VWidth: 1473
Flags: W
HStem: 0 21G<288 305> 703 20G<446.5 455>
VStem: 208 268
Fore
296 0 m 256
 280 0 270 11 270 24 c 0
 270 27 270 29 271 31 c 1
 402 647 l 1
 245 591 l 2
 241 590 237 589 234 589 c 0
 220 589 208 599 208 613 c 0
 208 621 214 644 235 651 c 2
 437 722 l 2
 441 723 445 723 448 723 c 0
 462 723 476 717 476 697 c 0
 476 693 475 688 474 683 c 2
 336 31 l 2
 332 15 314 0 296 0 c 256
EndSplineSet
EndChar
StartChar: two
Encoding: 50 50 19
Width: 642
VWidth: 1473
Flags: W
HStem: 0 63<177 586.587> 657 60<356.734 567.378>
VStem: 631 61<461.502 602.407>
Fore
591 38 m 0
 591 21 575 0 552 0 c 2
 91 0 l 2
 75 0 65 13 65 28 c 0
 65 42 72 55 85 65 c 2
 540 386 l 2
 620 444 631 508 631 539 c 0
 631 619 550 657 476 657 c 0
 312 657 256 566 233 482 c 0
 228 462 211 452 197 452 c 0
 184 452 173 460 173 477 c 0
 173 480 173 483 174 486 c 0
 218 640 323 717 488 717 c 0
 602 717 692 646 692 546 c 0
 692 463 632 389 566 339 c 2
 177 63 l 1
 565 63 l 2
 582 63 591 52 591 38 c 0
EndSplineSet
EndChar
StartChar: three
Encoding: 51 51 20
Width: 624
VWidth: 1473
Flags: W
HStem: -10 58<222.727 426.352> 349 59<300.598 489> 664 58<336.782 536.616>
VStem: 91 64<108.698 215.137 199.219 231.055> 557 61<197.301 319.74> 594 67<474.212 608.939>
Back
605 190 m 0
 595.667 155.333 580.667 125.333 560 100 c 128
 539.333 74.6667 515.167 53.6667 487.5 37 c 128
 459.833 20.3333 430.333 7.5 399 -1.5 c 128
 367.667 -10.5 335.667 -15 303 -15 c 0
 275.667 -15 247.833 -11 219.5 -3 c 128
 191.167 5 166.333 17.8333 145 35.5 c 128
 123.667 53.1667 107.667 76 97 104 c 128
 86.3333 132 85.3333 166 94 206 c 0
 96 215.333 101 222.833 109 228.5 c 128
 117 234.167 125.333 237 134 237 c 256
 142.667 237 149.333 234.167 154 228.5 c 128
 158.667 222.833 160 215.333 158 206 c 0
 152 178.667 152.667 155 160 135 c 128
 167.333 115 178.667 98.3333 194 85 c 128
 209.333 71.6667 227.667 61.5 249 54.5 c 128
 270.333 47.5 293 44 317 44 c 0
 341.667 44 366 47 390 53 c 128
 414 59 436.333 68.1667 457 80.5 c 128
 477.667 92.8333 495.833 108 511.5 126 c 128
 527.167 144 538.333 165.333 545 190 c 0
 549 204.667 552.167 219.833 554.5 235.5 c 128
 556.833 251.167 556.667 266.333 554 281 c 128
 551.333 295.667 545 309.167 535 321.5 c 128
 525 333.833 509.667 343.667 489 351 c 1
 321 351 l 2
 313 351 306.333 353.333 301 358 c 128
 295.667 362.667 294 369.667 296 379 c 256
 298 387.667 303 395.167 311 401.5 c 128
 319 407.833 326.667 411 334 411 c 2
 496 411 l 1
 534.667 429.667 561.833 453.667 577.5 483 c 128
 593.167 512.333 598.333 541 593 569 c 128
 587.667 597 572.667 621.167 548 641.5 c 128
 523.333 661.833 490 672 448 672 c 0
 425.333 672 402.667 669.333 380 664 c 128
 357.333 658.667 336.167 650.833 316.5 640.5 c 128
 296.833 630.167 279.167 616.833 263.5 600.5 c 128
 247.833 584.167 235.667 565.333 227 544 c 0
 223 534.667 218.5 527.167 213.5 521.5 c 128
 208.5 515.833 200.667 513.333 190 514 c 0
 181.333 514 175 517 171 523 c 128
 167 529 166 536.333 168 545 c 0
 174 563 183.833 582.667 197.5 604 c 128
 211.167 625.333 230 645.333 254 664 c 128
 278 682.667 307 698.5 341 711.5 c 128
 375 724.5 415 731.333 461 732 c 0
 516.333 733.333 560.667 721.667 594 697 c 128
 627.333 672.333 648.667 642 658 606 c 128
 667.333 570 663.833 532 647.5 492 c 128
 631.167 452 601 416.667 557 386 c 1
 585.667 368 604.333 342.667 613 310 c 128
 621.667 277.333 619 237.333 605 190 c 0
EndSplineSet
Fore
167 530 m 0xf4
 167 569 248 722 467 722 c 0
 594 722 661 644 661 559 c 0xf4
 661 522 648 447 557 383 c 1
 583 367 618 333 618 266 c 0
 618 252 617 236 613 218 c 0
 575 36 400 -10 306 -10 c 0
 201 -10 91 43 91 161 c 0
 91 219 108 237 134 237 c 256
 144 237 160 233 160 215 c 0
 160 207 155 195 155 175 c 0
 155 88 239 48 318 48 c 0
 468 48 557 147 557 258 c 0xf8
 557 297 541 331 489 349 c 1
 321 349 l 2
 313 349 296 354 296 370 c 0
 296 393 321 408 334 408 c 2
 497 408 l 1
 561 440 594 488 594 542 c 0
 594 600 551 664 447 664 c 0
 357 664 260 623 226 538 c 0
 215 509 204 509 189 509 c 0
 174 509 167 517 167 530 c 0xf4
EndSplineSet
EndChar
StartChar: four
Encoding: 52 52 21
Width: 654
VWidth: 1473
Flags: W
HStem: 0 21G<467 489> 143 59<179 476 550 634.551> 587 20G<555.444 570.753> 697 20G<624.5 635>
Fore
639 181 m 0
 639 160 618 143 600 143 c 2
 537 143 l 1
 514 32 l 2
 510 16 501 0 477 0 c 256
 457 0 452 12 452 23 c 0
 452 26 452 29 453 32 c 2
 476 143 l 1
 98 143 l 2
 80 143 73 154 73 167 c 0
 73 176 77 187 85 194 c 2
 605 710 l 1
 612 715 621 717 628 717 c 0
 642 717 654 709 654 694 c 0
 654 692 654 689 653 687 c 1
 550 202 l 1
 613 202 l 2
 622 202 639 197 639 181 c 0
575 607 m 1
 179 202 l 1
 489 202 l 1
 575 607 l 1
EndSplineSet
EndChar
StartChar: five
Encoding: 53 53 22
Width: 651
VWidth: 1473
Flags: W
HStem: -6 59<247.525 438.011> 443 60<322.224 519.852> 654 61<329 703.947>
VStem: 591 61<211.56 375.576>
Fore
652 315 m 0
 652 170 527 -6 329 -6 c 0
 139 -6 102 144 102 196 c 0
 102 230 131 241 145 241 c 0
 182 241 149 197 185 134 c 0
 215 81 269 53 337 53 c 0
 506 53 591 206 591 303 c 0
 591 388 526 443 421 443 c 0
 355 443 290 417 245 383 c 2
 221 362 l 2
 214 356 205 353 198 353 c 0
 183 353 170 364 170 377 c 0
 170 381 171 385 173 389 c 2
 290 715 l 1
 682 715 l 2
 697 715 707 705 707 690 c 0
 707 671 692 654 669 654 c 2
 329 654 l 1
 257 451 l 1
 308 480 371 503 444 503 c 0
 567 503 652 430 652 315 c 0
EndSplineSet
EndChar
StartChar: six
Encoding: 54 54 23
Width: 674
VWidth: 1473
Flags: W
HStem: -10 60<258.164 455.613> 413 57<369.389 523.921> 656 66<406.89 596.694>
VStem: 116 69<116.522 269.948> 602 66<184.123 338.339>
Back
663 233 m 0
 657 197.667 643.667 164.5 623 133.5 c 128
 602.333 102.5 577 76 547 54 c 128
 517 32 483.333 14.5 446 1.5 c 128
 408.667 -11.5 370.333 -18 331 -18 c 0
 279 -18 237.333 -8.66667 206 10 c 128
 174.667 28.6667 151.667 54.6667 137 88 c 128
 122.333 121.333 115 160.667 115 206 c 128
 115 251.333 121 300 133 352 c 0
 145.667 409.333 164.167 461.167 188.5 507.5 c 128
 212.833 553.833 242 593.833 276 627.5 c 128
 310 661.167 347.833 687 389.5 705 c 128
 431.167 723 476.667 732 526 732 c 0
 554.667 732 580.667 727.833 604 719.5 c 128
 627.333 711.167 647.667 700.333 665 687 c 128
 682.333 673.667 696.167 658.5 706.5 641.5 c 128
 716.833 624.5 723.333 607.667 726 591 c 0
 727.333 580.333 725.5 570.5 720.5 561.5 c 128
 715.5 552.5 708 546.667 698 544 c 0
 673.333 536.667 658.667 544 654 566 c 0
 652 577.333 647.667 588.667 641 600 c 128
 634.333 611.333 624.833 622 612.5 632 c 128
 600.167 642 585.667 649.833 569 655.5 c 128
 552.333 661.167 533 664 511 664 c 0
 463.667 664 422.667 654.167 388 634.5 c 128
 353.333 614.833 323.5 590.167 298.5 560.5 c 128
 273.5 530.833 253.333 497.5 238 460.5 c 128
 222.667 423.5 211 388 203 354 c 1
 236.333 394.667 274.5 424.833 317.5 444.5 c 128
 360.5 464.167 404.333 474 449 474 c 0
 497.667 474 537.167 467 567.5 453 c 128
 597.833 439 620.833 420.333 636.5 397 c 128
 652.167 373.667 661.667 347.5 665 318.5 c 128
 668.333 289.5 667.667 261 663 233 c 0
597 228 m 0
 602.333 252.667 602.167 276.333 596.5 299 c 128
 590.833 321.667 580.667 341.667 566 359 c 128
 551.333 376.333 532.833 390 510.5 400 c 128
 488.167 410 463.333 415 436 415 c 256
 408.667 415 381.5 410.167 354.5 400.5 c 128
 327.5 390.833 302.667 377.333 280 360 c 128
 257.333 342.667 237.833 322.333 221.5 299 c 128
 205.167 275.667 194.333 250 189 222 c 0
 183 194 183.167 168.667 189.5 146 c 128
 195.833 123.333 207 104.333 223 89 c 128
 239 73.6667 258.667 62.1667 282 54.5 c 128
 305.333 46.8333 330.667 43 358 43 c 256
 385.333 43 412 47.8333 438 57.5 c 128
 464 67.1667 488.167 80.3333 510.5 97 c 128
 532.833 113.667 551.5 133.333 566.5 156 c 128
 581.5 178.667 591.667 202.667 597 228 c 0
EndSplineSet
Fore
116 212 m 0
 116 399 230 722 524 722 c 0
 668 722 725 618 725 580 c 0
 725 550 705 536 682 536 c 0
 643 536 671 574 611 624 c 0
 589 643 555 656 510 656 c 0
 413 656 267 609 203 353 c 1
 295 462 407 470 449 470 c 0
 629 470 668 365 668 283 c 0
 668 94 484 -10 334 -10 c 0
 167 -10 116 92 116 212 c 0
437 413 m 256
 305 413 185 303 185 189 c 0
 185 104 255 50 360 50 c 256
 482 50 602 152 602 262 c 0
 602 340 540 413 437 413 c 256
EndSplineSet
EndChar
StartChar: seven
Encoding: 55 55 24
Width: 598
VWidth: 1473
Flags: W
HStem: -3 21G<159.5 172> 653 63<193.443 615>
Fore
189 679 m 0
 189 694 205 716 229 716 c 2
 693 716 l 1
 675 629 l 1
 197 13 l 2
 187 1 177 -3 167 -3 c 0
 152 -3 141 8 141 22 c 0
 141 29 143 37 149 44 c 2
 615 653 l 1
 216 653 l 2
 199 653 189 665 189 679 c 0
EndSplineSet
EndChar
StartChar: eight
Encoding: 56 56 25
Width: 662
VWidth: 1473
Flags: W
HStem: -10 61<242.693 447.111> 364 60<339.709 506.385> 662 60<378.086 555.951>
VStem: 101 63<117.374 254.124> 220 65<471.26 583.22> 587 65<164.346 295.98> 608 64<501.527 613.964>
Back
645 205 m 0
 637 170.333 622.333 139 601 111 c 128
 579.667 83 554 59.1667 524 39.5 c 128
 494 19.8333 461.5 4.66667 426.5 -6 c 128
 391.5 -16.6667 358 -22 326 -22 c 0
 292 -22 260.167 -16.6667 230.5 -6 c 128
 200.833 4.66667 175.167 19.8333 153.5 39.5 c 128
 131.833 59.1667 116 83 106 111 c 128
 96 139 95 170.333 103 205 c 0
 111.667 246.333 131.833 284.167 163.5 318.5 c 128
 195.167 352.833 233.333 379.667 278 399 c 1
 256 415 239.833 436.667 229.5 464 c 128
 219.167 491.333 217.333 519.333 224 548 c 0
 228.667 573.333 239.333 597.333 256 620 c 128
 272.667 642.667 293.167 662.667 317.5 680 c 128
 341.833 697.333 368.333 710.833 397 720.5 c 128
 425.667 730.167 456 735 488 735 c 0
 514 735 539.333 730.667 564 722 c 128
 588.667 713.333 609.833 700.833 627.5 684.5 c 128
 645.167 668.167 658.167 648.5 666.5 625.5 c 128
 674.833 602.5 676 576.667 670 548 c 0
 663.333 519.333 649.5 491 628.5 463 c 128
 607.5 435 582 413.667 552 399 c 1
 586.667 381.667 613.167 355.333 631.5 320 c 128
 649.833 284.667 654.333 246.333 645 205 c 0
605 547 m 0
 609 566.333 607.833 583.833 601.5 599.5 c 128
 595.167 615.167 585.333 628.5 572 639.5 c 128
 558.667 650.5 543.167 658.667 525.5 664 c 128
 507.833 669.333 490.333 672 473 672 c 256
 455 672 436.167 669.333 416.5 664 c 128
 396.833 658.667 378.167 650.833 360.5 640.5 c 128
 342.833 630.167 327.5 617 314.5 601 c 128
 301.5 585 293 567.333 289 548 c 0
 285.667 533.333 286.333 518.667 291 504 c 128
 295.667 489.333 303.833 476.333 315.5 465 c 128
 327.167 453.667 341.833 444.333 359.5 437 c 128
 377.167 429.667 397.333 426 420 426 c 256
 442.667 426 464.5 429.333 485.5 436 c 128
 506.5 442.667 525.333 452 542 464 c 128
 558.667 476 572.667 489 584 503 c 128
 595.333 517 602.333 531.667 605 547 c 0
582 205 m 0
 586.667 229.667 584.833 252 576.5 272 c 128
 568.167 292 555.667 308.667 539 322 c 128
 522.333 335.333 502.5 345.667 479.5 353 c 128
 456.5 360.333 432.667 364 408 364 c 256
 383.333 364 357.833 360.333 331.5 353 c 128
 305.167 345.667 280.333 335.333 257 322 c 128
 233.667 308.667 213.667 292 197 272 c 128
 180.333 252 169.667 229.667 165 205 c 0
 160.333 183 161.167 162.167 167.5 142.5 c 128
 173.833 122.833 184.5 105.5 199.5 90.5 c 128
 214.5 75.5 233.833 63.5 257.5 54.5 c 128
 281.167 45.5 308.333 41 339 41 c 0
 366.333 41 393.833 45.1667 421.5 53.5 c 128
 449.167 61.8333 474 73.3333 496 88 c 128
 518 102.667 536.667 120.167 552 140.5 c 128
 567.333 160.833 577.333 182.333 582 205 c 0
EndSplineSet
Fore
672 573 m 0xfa
 672 503 619 429 553 398 c 1
 607 372 652 317 652 246 c 0xfc
 652 107 486 -10 329 -10 c 0
 210 -10 101 59 101 171 c 0
 101 262 168 352 279 398 c 1
 246 421 220 462 220 512 c 0
 220 610 331 722 484 722 c 0
 585 722 672 662 672 573 c 0xfa
472 662 m 256
 384 662 285 600 285 527 c 0
 285 477 335 424 420 424 c 256
 521 424 608 494 608 559 c 0xfa
 608 618 547 662 472 662 c 256
408 364 m 256
 299 364 164 292 164 184 c 0
 164 110 235 51 342 51 c 0
 478 51 587 145 587 234 c 0xfc
 587 312 503 364 408 364 c 256
EndSplineSet
EndChar
StartChar: nine
Encoding: 57 57 26
Width: 646
VWidth: 1473
Flags: W
HStem: -6 66<218.111 404.042> 243 58<282.666 467.038> 661 61<352.982 532.729>
VStem: 89 67<115.673 159> 141 70<370.922 520.031> 608 74<389.023 587.633>
Fore
682 502 m 0xec
 682 316 575 -6 283 -6 c 0
 144 -6 89 102 89 140 c 0
 89 161 112 181 132 181 c 0
 143 181 152 175 156 159 c 0xf4
 160 127 208 60 299 60 c 0
 488 60 571 232 597 352 c 1
 536 282 450 243 358 243 c 0
 238 243 141 301 141 419 c 0
 141 559 270 722 462 722 c 0
 597 722 682 660 682 502 c 0xec
448 661 m 256
 334 661 211 568 211 446 c 0xec
 211 362 277 301 370 301 c 256
 490 301 608 401 608 516 c 0
 608 597 541 661 448 661 c 256
EndSplineSet
EndChar
StartChar: colon
Encoding: 58 58 27
Width: 294
VWidth: 1473
Flags: W
HStem: -7 123<125.237 201.89> 354 123<202.11 278.333>
VStem: 100 127<18.4917 91.2611> 177 126<378.637 451.015>
Fore
303 428 m 0xd0
 303 387 263 354 227 354 c 256xe0
 197 354 177 376 177 403 c 0
 177 436 211 477 253 477 c 256
 284 477 303 454 303 428 c 0xd0
227 67 m 0
 227 34 194 -7 151 -7 c 256
 122 -7 100 13 100 41 c 0xe0
 100 82 138 116 177 116 c 256xd0
 207 116 227 94 227 67 c 0
EndSplineSet
EndChar
StartChar: semicolon
Encoding: 59 59 28
Width: 294
VWidth: 1473
Flags: W
HStem: -20 20G<124.5 143.5 158 159> 354 123<202.11 278.875>
VStem: 54 174<-92 59> 177 126<377.645 451.015>
Fore
303 427 m 0xd0
 303 386 264 354 227 354 c 256
 197 354 177 376 177 403 c 0
 177 436 211 477 253 477 c 256
 283 477 303 454 303 427 c 0xd0
228 59 m 0xe0
 228 -25 131 -109 80 -109 c 0
 65 -109 54 -102 54 -92 c 0
 54 -83 65 -73 72 -69 c 1
 137 -44 153 -25 165 0 c 1
 151 -8 147 -6 140 -6 c 0
 109 -6 91 14 91 39 c 0
 91 73 124 119 173 119 c 0
 197 119 228 104 228 59 c 0xe0
EndSplineSet
EndChar
StartChar: less
Encoding: 60 60 29
Width: 677
VWidth: 1473
Flags: W
Fore
568 49 m 2
 576 43 579 35 579 27 c 0
 579 9 560 -11 541 -11 c 0
 536 -11 531 -9 526 -6 c 2
 159 234 l 1
 159 235 159 236 158 236 c 1
 152 239 150 246 150 255 c 0
 150 267 156 282 170 289 c 2
 639 529 l 2
 645 532 652 534 657 534 c 0
 672 534 683 523 683 509 c 0
 683 489 663 478 659 476 c 2
 227 262 l 1
 568 49 l 2
EndSplineSet
EndChar
StartChar: equal
Encoding: 61 61 30
Width: 692
VWidth: 1473
Flags: W
HStem: 127 249<160 186 614 638 198 602 198 198> 127 56<114.195 644.092> 321 55<155.195 685.39>
Fore
647 163 m 0x40
 647 148 638 127 602 127 c 2x80
 145 127 l 2
 123 127 112 135 112 149 c 0
 112 163 119 183 157 183 c 2
 614 183 l 2
 636 183 647 176 647 163 c 0x40
688 356 m 0
 688 343 681 321 643 321 c 2
 186 321 l 2x20
 164 321 153 328 153 342 c 0
 153 356 160 376 198 376 c 2x80
 655 376 l 2x20
 677 376 688 369 688 356 c 0
EndSplineSet
EndChar
StartChar: greater
Encoding: 62 62 31
Width: 677
VWidth: 1473
Flags: W
Fore
627 289 m 2
 634 284 637 277 637 269 c 0
 637 255 629 241 617 236 c 1
 616 236 616 235 616 234 c 1
 146 -6 l 2
 140 -9 135 -10 130 -10 c 0
 115 -10 104 1 104 16 c 0
 104 27 110 39 126 49 c 2
 560 262 l 1
 217 476 l 2
 209 482 206 489 206 497 c 0
 206 515 225 534 244 534 c 0
 249 534 254 533 259 529 c 2
 627 289 l 2
EndSplineSet
EndChar
StartChar: question
Encoding: 63 63 32
Width: 634
VWidth: 1473
Flags: W
HStem: -7 104<221.798 295.417> 691 54<348.986 553.7>
VStem: 204 108<10.4351 79.2021> 607 56<481.762 529 529 543.601 543.601 545.623 544.612 639.594>
Fore
207 610 m 0
 207 635 307 745 461 745 c 0
 580 745 669 693 669 582 c 0
 669 566 667 548 663 529 c 0
 630 370 497 355 386 305 c 0
 352 290 327 249 318 206 c 2
 312 178 l 2
 306 151 294 138 276 138 c 0
 262 138 256 145 256 160 c 0
 256 165 256 171 258 178 c 2
 264 206 l 2
 297 360 432 366 518 410 c 0
 585 444 600 495 607 529 c 256
 610 544 612 559 612 571 c 0
 612 666 527 691 453 691 c 0
 375 691 308 660 252 597 c 0
 246 590 239 587 232 587 c 0
 219 587 207 597 207 610 c 0
204 33 m 0
 204 65 233 97 268 97 c 256
 295 97 312 80 312 57 c 0
 312 21 281 -7 246 -7 c 256
 219 -7 204 10 204 33 c 0
EndSplineSet
EndChar
StartChar: at
Encoding: 64 64 33
Width: 947
VWidth: 1473
Flags: W
HStem: -39 48<381.72 573.058> 133 44<397.418 546.025 676.676 747.204> 402 49<460.059 662.229> 554 47<515.085 703.346> 708 51<530.223 767.195>
VStem: 160 52<149.395 297.808> 316 41<205.145 324.195> 741 48<393.975 518.917> 894 49<411.751 583.181>
Fore
692 170 m 0
 771 170 894 334 894 487 c 0
 894 623 794 708 655 708 c 0
 500 708 277 596 220 329 c 0
 215 306 212 282 212 258 c 0
 212 130 289 9 477 9 c 0
 571 9 624 37 642 37 c 0
 658 37 669 30 669 19 c 0
 669 -32 503 -39 472 -39 c 0
 429 -39 361 -36 307 -7 c 0
 189 54 160 156 160 242 c 0
 160 275 165 305 170 330 c 0
 230 611 473 759 658 759 c 0
 812 759 943 674 943 501 c 0
 943 475 940 446 934 416 c 0
 890 206 741 127 686 127 c 0
 641 127 633 159 633 177 c 0
 633 181 633 187 640 199 c 1
 579 153 517 133 451 133 c 0
 358 133 316 187 316 249 c 0
 316 355 420 451 585 451 c 0
 641 448 718 430 714 370 c 1
 725 397 741 437 741 465 c 0
 741 525 684 554 621 554 c 0
 517 554 463 503 442 503 c 0
 434 503 432 511 432 516 c 0
 432 553 535 601 638 601 c 0
 723 601 789 562 789 485 c 0
 789 447 769 398 765 389 c 2
 681 202 l 2
 676 189 668 170 692 170 c 0
562 402 m 0
 475 402 357 360 357 257 c 0
 357 208 398 177 467 177 c 0
 622 177 685 277 685 336 c 0
 685 376 652 402 562 402 c 0
EndSplineSet
EndChar
StartChar: A
Encoding: 65 65 34
Width: 723
VWidth: 1473
Flags: W
HStem: 0 21G<81 97 631 646.5> 666 56<376.327 625.519>
VStem: 705 58<447.511 448 464 464.938 465.754 480.525 473.139 586.979>
Fore
517 722 m 256
 728 722 769 602 769 518 c 0
 769 497 766 478 763 464 c 2
 673 40 l 2
 667 13 655 0 638 0 c 0
 624 0 617 7 617 23 c 0
 617 27 618 33 619 40 c 2
 680 330 l 1
 184 330 l 1
 123 40 l 2
 117 13 106 0 88 0 c 0
 74 0 67 7 67 23 c 0
 67 27 68 33 69 40 c 2
 158 462 l 2
 172 526 248 722 517 722 c 256
506 666 m 256
 288 666 224 519 212 461 c 2
 196 385 l 1
 692 385 l 1
 705 448 l 2
 708 462 712 481 712 503 c 0
 712 573 678 666 506 666 c 256
EndSplineSet
EndChar
StartChar: B
Encoding: 66 66 35
Width: 721
VWidth: 1473
Flags: W
HStem: 0 53<226.918 542.447> 331 55<243.41 613.962> 669 53<381.518 622.616>
VStem: 105 56<115.598 225.424> 657 56<175.568 291.965> 709 58<462.111 597.339>
Fore
542 386 m 2xf8
 625 386 709 444 709 532 c 0xf4
 709 615 628 669 499 669 c 0
 379 669 245 608 216 471 c 2
 166 234 l 2
 163 219 161 205 161 191 c 0
 161 105 226 53 314 53 c 2
 444 53 l 2
 611 63 657 160 657 232 c 0
 657 311 583 331 528 331 c 2
 276 331 l 2
 253 331 241 338 241 352 c 0
 241 366 249 386 288 386 c 2
 542 386 l 2xf8
767 545 m 0
 767 454 708 379 633 358 c 1
 660 344 713 306 713 234 c 0xf8
 713 223 712 211 709 199 c 0
 676 40 520 0 433 0 c 2
 315 0 l 2
 182 0 105 72 105 183 c 0
 105 201 107 220 111 240 c 2
 160 471 l 2
 199 655 357 722 510 722 c 0
 669 722 767 653 767 545 c 0
EndSplineSet
EndChar
StartChar: C
Encoding: 67 67 36
Width: 676
VWidth: 1473
Flags: W
HStem: -4 57<292.644 523.99> 664 58<415.505 651.546>
VStem: 109 58<177.303 399.49>
Fore
109 268 m 0
 109 482 272 722 548 722 c 0
 733 722 781 611 781 600 c 0
 781 579 761 565 745 565 c 0
 738 565 732 568 726 573 c 1
 706 612 661 664 536 664 c 0
 302 664 167 461 167 280 c 0
 167 142 256 53 406 53 c 0
 531 53 597 104 634 141 c 0
 640 147 647 150 655 150 c 0
 671 150 680 140 680 128 c 0
 680 92 553 -4 394 -4 c 0
 206 -4 109 112 109 268 c 0
EndSplineSet
EndChar
StartChar: D
Encoding: 68 68 37
Width: 717
VWidth: 1473
Flags: W
HStem: 0 53<175.352 423.774> 664 53<294.409 547.78>
VStem: 91 54<81.805 135.977 133.954 138 138 163.45> 700 55<312.501 527.694>
Fore
755 442 m 0
 755 234 586 0 277 0 c 2
 243 0 l 2
 177 0 91 34 91 119 c 0
 91 128 92 138 94 149 c 2
 183 567 l 2
 202 657 288 717 395 717 c 2
 429 717 l 2
 633 717 755 610 755 442 c 0
147 147 m 2
 146 141 145 135 145 129 c 0
 145 74 205 53 254 53 c 2
 288 53 l 2
 505 53 700 207 700 427 c 0
 700 573 591 664 418 664 c 2
 384 664 l 2
 312 664 253 630 237 570 c 2
 147 147 l 2
EndSplineSet
EndChar
StartChar: E
Encoding: 69 69 38
Width: 649
VWidth: 1473
Flags: W
HStem: -7 54<229.685 437.263> 330 55<178 528.283> 667 55<357.369 566.533>
VStem: 84 59<123.003 221.664 218.212 225.117 225.117 234 239 250.676>
Fore
644 144 m 0
 644 108 545 -7 326 -7 c 0
 202 -7 84 54 84 182 c 0
 84 199 86 216 90 234 c 2
 141 477 l 2
 182 666 376 722 480 722 c 0
 690 722 736 618 736 581 c 0
 736 560 716 552 704 552 c 0
 695 552 686 556 683 566 c 0
 648 668 508 667 463 667 c 0
 353 667 222 592 197 476 c 2
 178 385 l 1
 496 385 l 2
 519 385 531 378 531 365 c 0
 531 351 523 330 484 330 c 2
 166 330 l 1
 147 239 l 2
 144 225 143 211 143 199 c 0
 143 138 180 47 343 47 c 0
 389 47 521 52 595 149 c 0
 601 157 613 162 623 162 c 0
 634 162 644 157 644 144 c 0
EndSplineSet
EndChar
StartChar: F
Encoding: 70 70 39
Width: 655
VWidth: 1473
Flags: W
HStem: -1 21G<82.5 98.5> 330 55<200 550.283> 667 55<378.643 586.938>
Fore
760 582 m 0
 760 558 735 552 726 552 c 0
 716 552 708 556 705 566 c 0
 672 662 544 667 498 667 c 0
 330 667 236 559 219 476 c 2
 200 385 l 1
 518 385 l 2
 541 385 553 378 553 365 c 0
 553 351 545 330 506 330 c 2
 186 330 l 1
 124 37 l 2
 119 12 107 -1 90 -1 c 0
 75 -1 68 7 68 22 c 0
 68 26 69 31 70 37 c 2
 164 479 l 2
 201 654 381 722 502 722 c 0
 705 722 760 621 760 582 c 0
EndSplineSet
EndChar
StartChar: G
Encoding: 71 71 40
Width: 736
VWidth: 1473
Flags: W
HStem: -7 54<292.513 525.139> 329 57<349.298 703.846> 667 55<413.979 660.608>
VStem: 108 58<168.185 395.074> 707 60<269.862 325.115>
Fore
541 667 m 0
 276 667 166 434 166 274 c 0
 166 140 248 47 409 47 c 0
 587 47 684 168 693 211 c 2
 705 268 l 2
 707 276 707 283 707 289 c 0
 707 321 687 329 658 329 c 2
 363 329 l 2
 330 329 324 338 324 348 c 0
 324 357 328 376 346 382 c 1
 358 384 367 386 375 386 c 2
 670 386 l 2
 745 386 767 347 767 303 c 0
 767 291 765 280 763 268 c 2
 751 211 l 2
 726 95 555 -7 398 -7 c 0
 207 -7 108 100 108 260 c 0
 108 457 246 722 554 722 c 0
 726 722 812 626 812 588 c 0
 812 559 784 552 778 552 c 0
 768 552 761 557 756 566 c 0
 718 637 630 667 541 667 c 0
EndSplineSet
EndChar
StartChar: H
Encoding: 72 72 41
Width: 738
VWidth: 1473
Flags: W
HStem: 1 21G<89 105 639.5 656> 330 56<204 687> 700 20G<239.5 255.5 790 806.5>
Fore
682 41 m 2
 676 14 665 1 647 1 c 0
 632 1 624 9 624 25 c 0
 624 29 625 35 626 41 c 2
 687 330 l 1
 192 330 l 1
 131 41 l 2
 125 14 114 1 96 1 c 0
 82 1 75 9 75 24 c 0
 75 29 76 35 77 41 c 2
 213 681 l 2
 218 707 230 720 249 720 c 0
 262 720 269 712 269 697 c 0
 269 692 268 687 267 681 c 2
 204 386 l 1
 699 386 l 1
 762 681 l 2
 767 707 780 720 800 720 c 0
 813 720 820 712 820 697 c 0
 820 692 819 687 818 681 c 2
 682 41 l 2
EndSplineSet
EndChar
StartChar: I
Encoding: 73 73 42
Width: 190
VWidth: 1473
Flags: W
HStem: 1 21G<90 106> 700 20G<240.5 257>
VStem: 76 195<24 697 24 24>
Fore
133 41 m 2
 127 14 115 1 97 1 c 0
 83 1 76 9 76 24 c 0
 76 29 77 35 78 41 c 2
 214 681 l 2
 219 707 231 720 250 720 c 0
 264 720 271 712 271 697 c 0
 271 692 270 687 269 681 c 2
 133 41 l 2
EndSplineSet
EndChar
StartChar: J
Encoding: 74 74 43
Width: 577
VWidth: 1473
Flags: W
HStem: -7 53<186.706 366.031>
VStem: 68 56<103.054 202.795 202.212 203.378 203.378 218 218 234.579>
Fore
283 46 m 0
 320 46 469 78 501 230 c 2
 595 672 l 2
 601 699 612 712 631 712 c 256
 646 712 653 704 653 689 c 0
 653 684 652 678 651 672 c 2
 557 230 l 2
 527 89 421 -7 260 -7 c 0
 158 -7 68 53 68 166 c 0
 68 183 70 200 74 218 c 2
 93 308 l 2
 99 335 111 348 130 348 c 0
 143 348 149 341 149 326 c 0
 149 321 149 315 147 308 c 2
 128 218 l 2
 126 206 124 193 124 180 c 0
 124 118 156 46 283 46 c 0
EndSplineSet
EndChar
StartChar: K
Encoding: 75 75 44
Width: 664
VWidth: 1473
Flags: W
HStem: 0 21G<89.5 106> 697 20G<239.5 256 769.5 782.5>
Fore
416 460 m 1
 544 380 657 238 657 34 c 2
 657 17 l 2
 657 -2 638 -16 622 -16 c 0
 573 -16 633 83 539 244 c 0
 473 359 362 421 351 421 c 1
 191 326 l 1
 132 38 l 2
 127 13 115 0 97 0 c 0
 82 0 74 8 74 24 c 0
 74 28 75 33 76 38 c 2
 212 678 l 2
 218 704 230 717 249 717 c 0
 263 717 270 709 270 694 c 0
 270 690 269 684 268 678 c 2
 207 389 l 1
 689 676 l 2
 691 677 762 720 777 720 c 0
 788 720 798 711 798 698 c 0
 798 686 792 681 785 678 c 2
 416 460 l 1
EndSplineSet
EndChar
StartChar: L
Encoding: 76 76 45
Width: 649
VWidth: 1473
Flags: W
HStem: 0 55<155.741 633.479> 697 20G<243 259.5>
VStem: 94 56<62.0911 109.218 108.435 110 110 135.304>
Fore
636 34 m 0
 636 23 630 0 589 0 c 2
 193 0 l 2
 136 0 94 32 94 90 c 0
 94 99 96 110 98 121 c 2
 216 678 l 2
 222 704 234 717 252 717 c 256
 267 717 274 709 274 694 c 0
 274 689 273 684 272 678 c 2
 152 119 l 2
 151 113 150 107 150 101 c 0
 150 76 162 55 205 55 c 2
 601 55 l 2
 624 55 636 48 636 34 c 0
EndSplineSet
EndChar
StartChar: M
Encoding: 77 77 46
Width: 1007
VWidth: 1473
Flags: W
HStem: -7 21G<86.5 102.5 495.5 512.5 904.5 921> 672 56<341.251 535.369 758.619 947.346>
VStem: 992 55<485.55 502 502 534.085 534.085 542.032 538.058 623.819>
Fore
867 728 m 0
 949 728 1054 694 1054 564 c 0
 1054 546 1052 525 1047 502 c 2
 947 32 l 2
 941 6 930 -7 912 -7 c 0
 897 -7 890 1 890 16 c 0
 890 21 891 26 892 32 c 2
 992 502 l 2
 996 521 998 538 998 553 c 0
 998 647 926 672 855 672 c 0
 780 672 668 638 639 502 c 2
 539 32 l 2
 533 6 522 -7 503 -7 c 256
 488 -7 481 1 481 16 c 0
 481 21 482 26 483 32 c 2
 583 502 l 2
 587 520 588 536 588 550 c 0
 588 646 510 672 446 672 c 0
 366 672 258 638 229 502 c 2
 129 32 l 2
 123 6 112 -7 93 -7 c 0
 80 -7 73 1 73 16 c 0
 73 20 74 26 75 32 c 2
 175 502 l 2
 213 683 360 728 458 728 c 0
 579 728 623 652 633 605 c 1
 676 675 766 728 867 728 c 0
EndSplineSet
EndChar
StartChar: N
Encoding: 78 78 47
Width: 704
VWidth: 1473
Flags: W
HStem: 0 21G<87 103 604 620> 661 52<296.383 436.927>
Fore
382 713 m 0
 535 713 622 542 667 395 c 1
 727 679 l 2
 733 706 745 719 764 719 c 0
 778 719 784 712 784 697 c 0
 784 692 784 686 782 679 c 2
 647 40 l 2
 641 13 629 0 611 0 c 0
 597 0 590 7 590 23 c 0
 590 27 591 33 592 40 c 2
 642 278 l 1
 561 596 438 661 368 661 c 0
 282 661 248 597 233 526 c 2
 130 40 l 2
 124 13 112 0 94 0 c 0
 80 0 73 7 73 23 c 0
 73 27 74 33 75 40 c 2
 181 542 l 2
 200 630 267 713 382 713 c 0
EndSplineSet
EndChar
StartChar: O
Encoding: 79 79 48
Width: 766
VWidth: 1473
Flags: W
HStem: -7 57<286.84 506.811> 664 58<410.859 630.195>
VStem: 113 55<169.681 400.794> 751 55<316.562 544.25>
Fore
113 266 m 0
 113 482 281 722 536 722 c 0
 705 722 806 613 806 451 c 0
 806 235 642 -7 382 -7 c 0
 211 -7 113 108 113 266 c 0
524 664 m 0
 303 664 168 457 168 273 c 0
 168 124 270 50 394 50 c 0
 608 50 751 249 751 438 c 0
 751 574 667 664 524 664 c 0
EndSplineSet
EndChar
StartChar: P
Encoding: 80 80 49
Width: 690
VWidth: 1473
Flags: W
HStem: -1 21G<76.5 92.5> 271 54<368.432 587.67> 666 56<371.287 619.424>
VStem: 704 56<437.369 595.113>
Fore
760 539 m 0
 760 409 662 271 466 271 c 0
 322 271 237 351 237 382 c 0
 237 397 257 412 271 412 c 0
 294 412 332 325 483 325 c 0
 637 325 704 434 704 525 c 0
 704 626 607 666 501 666 c 256
 349 666 235 589 211 474 c 2
 118 38 l 2
 113 12 101 -1 84 -1 c 0
 69 -1 62 7 62 23 c 0
 62 27 63 32 64 38 c 2
 159 485 l 2
 195 654 363 722 512 722 c 0
 612 722 760 684 760 539 c 0
EndSplineSet
EndChar
StartChar: Q
Encoding: 81 81 50
Width: 770
VWidth: 1473
Flags: W
HStem: -7 57<285.713 511.593> 186 56<355.133 511.901> 664 58<410.565 630.723>
VStem: 112 57<169.827 394.788> 751 57<312.369 543.179>
Fore
112 260 m 0
 112 476 272 722 538 722 c 0
 720 722 808 598 808 447 c 0
 808 339 763 209 669 115 c 1
 691 65 697 15 697 -6 c 0
 697 -26 678 -39 664 -39 c 0
 633 -39 651 6 623 74 c 1
 599 56 517 -7 384 -7 c 0
 227 -7 112 87 112 260 c 0
526 664 m 0
 304 664 169 457 169 277 c 0
 169 217 185 160 225 118 c 1
 305 230 421 242 470 242 c 0
 527 242 600 209 641 158 c 1
 717 238 751 356 751 436 c 0
 751 563 679 664 526 664 c 0
263 84 m 1
 275 75 312 50 396 50 c 0
 475 50 542 77 595 118 c 1
 546 180 472 186 456 186 c 0
 354 186 283 126 263 84 c 1
EndSplineSet
EndChar
StartChar: R
Encoding: 82 82 51
Width: 711
VWidth: 1473
Flags: W
HStem: -5 21G<88.5 104.5 595 616.5> 276 47<438.812 601.829> 666 56<383.287 632.8>
VStem: 716 56<435.584 598.181>
Fore
772 538 m 0
 772 416 679 276 498 276 c 0
 475 276 451 278 427 283 c 1
 517 247 638 66 640 32 c 0
 640 25 640 19 639 13 c 0
 636 2 621 -5 612 -5 c 0
 578 -5 584 74 416 225 c 0
 387 251 362 272 339 288 c 2
 293 320 l 2
 280 328 275 337 275 346 c 0
 275 362 291 377 306 377 c 0
 334 377 388 323 500 323 c 0
 656 323 716 440 716 527 c 0
 716 622 629 666 513 666 c 0
 361 666 247 589 223 474 c 2
 130 38 l 2
 125 12 113 -1 96 -1 c 0
 81 -1 74 7 74 23 c 0
 74 27 75 32 76 38 c 2
 171 485 l 2
 207 654 375 722 524 722 c 0
 653 722 772 667 772 538 c 0
EndSplineSet
EndChar
StartChar: S
Encoding: 83 83 52
Width: 642
VWidth: 1473
Flags: W
HStem: -7 57<206.61 457.581> 327 58<274.994 514.164> 661 59<338.999 586.483>
VStem: 142 59<439.015 559.385> 586 60<150.747 273.09>
Fore
466 661 m 0
 324 661 201 590 201 492 c 0
 201 405 327 385 403 385 c 0
 481 385 646 354 646 232 c 0
 646 89 498 -7 316 -7 c 0
 124 -7 64 100 64 127 c 0
 64 146 83 161 100 161 c 0
 108 161 117 157 121 146 c 0
 142 87 227 50 328 50 c 0
 470 50 586 118 586 220 c 0
 586 305 462 327 391 327 c 0
 283 327 142 364 142 479 c 0
 142 605 279 720 479 720 c 0
 667 720 724 613 724 590 c 0
 724 572 704 554 687 554 c 0
 678 554 670 559 666 569 c 0
 644 627 566 661 466 661 c 0
EndSplineSet
EndChar
StartChar: T
Encoding: 84 84 53
Width: 637
VWidth: 1473
Flags: W
HStem: -4 21G<312 328.5> 667 52<293.655 435 490 627.679>
Fore
136 595 m 0
 136 628 228 719 473 719 c 0
 717 719 759 632 759 604 c 0
 759 591 747 577 728 577 c 0
 720 577 712 580 707 586 c 1
 687 619 638 665 490 667 c 1
 355 35 l 2
 350 9 338 -4 319 -4 c 0
 305 -4 298 4 298 19 c 0
 298 24 299 29 300 35 c 2
 435 667 l 1
 201 657 197 576 160 576 c 0
 148 576 136 583 136 595 c 0
EndSplineSet
EndChar
StartChar: U
Encoding: 85 85 54
Width: 741
VWidth: 1473
Flags: W
HStem: -7 56<262.239 508.799>
VStem: 116 55<128.869 237.474 235.522 239.426 239.426 252 254 268.635>
Fore
370 -7 m 256
 160 -7 116 113 116 199 c 0
 116 219 119 238 122 252 c 2
 211 675 l 2
 217 702 229 715 248 715 c 0
 261 715 267 708 267 693 c 0
 267 688 267 682 265 675 c 2
 176 254 l 2
 174 243 171 228 171 210 c 0
 171 145 203 49 381 49 c 256
 578 49 652 164 674 267 c 2
 760 675 l 2
 766 702 778 715 797 715 c 0
 810 715 817 708 817 693 c 0
 817 688 816 682 815 675 c 2
 725 248 l 2
 712 190 639 -7 370 -7 c 256
EndSplineSet
EndChar
StartChar: V
Encoding: 86 86 55
Width: 630
VWidth: 1473
Flags: W
HStem: -3 49<252.198 409.095> 696 20G<187 199 740 752>
VStem: 157 58<91.2197 712.844>
Fore
157 670 m 2
 160 711 182 716 192 716 c 0
 206 716 214 698 215 676 c 2
 213 206 l 2
 216 46 280 46 327 46 c 256
 369 46 439 46 508 206 c 2
 707 676 l 2
 720 706 734 716 746 716 c 0
 758 716 767 706 767 699 c 1
 766 692 764 682 759 670 c 2
 563 206 l 2
 480 18 397 -3 316 -3 c 256
 249 -3 158 5 157 206 c 2
 157 670 l 2
EndSplineSet
EndChar
StartChar: W
Encoding: 87 87 56
Width: 972
VWidth: 1473
Flags: W
HStem: -10 56<200.033 389.078 610.979 805.898> 697 20G<220 236.5 628.5 645.5 1038.5 1054.5>
VStem: 89 57<98.6736 189.41 176.076 202.743 202.743 216 216 232.5>
Back
1065 678 m 2
 965 208 l 2
 954.333 158.667 937.5 119 914.5 89 c 128
 891.5 59 866.167 36.1667 838.5 20.5 c 128
 810.833 4.83333 783.5 -5.5 756.5 -10.5 c 128
 729.5 -15.5 707 -18 689 -18 c 0
 642.333 -18 602.5 -6.83333 569.5 15.5 c 128
 536.5 37.8333 516 67.6667 508 105 c 1
 487.333 72.3333 457 43.6667 417 19 c 128
 377 -5.66667 331.667 -18 281 -18 c 0
 263.667 -18 242.167 -15.5 216.5 -10.5 c 128
 190.833 -5.5 167 4.83333 145 20.5 c 128
 123 36.1667 106.167 59 94.5 89 c 128
 82.8333 119 82.3333 158.667 93 208 c 2
 193 678 l 2
 199 704 210.667 717 228 717 c 0
 246.667 717 253 704 247 678 c 2
 147 208 l 2
 140.333 176.667 139.667 150.167 145 128.5 c 128
 150.333 106.833 160.167 89.3333 174.5 76 c 128
 188.833 62.6667 206.333 53 227 47 c 128
 247.667 41 269.667 38 293 38 c 0
 315 38 336.667 41 358 47 c 128
 379.333 53 399.667 62.6667 419 76 c 128
 438.333 89.3333 455.167 106.833 469.5 128.5 c 128
 483.833 150.167 494.333 176.667 501 208 c 2
 601 678 l 2
 607 704 619.333 717 638 717 c 256
 656.667 717 663 704 657 678 c 2
 557 208 l 2
 550.333 173.333 550.667 145.167 558 123.5 c 128
 565.333 101.833 576.5 84.6667 591.5 72 c 128
 606.5 59.3333 623.833 50.5 643.5 45.5 c 128
 663.167 40.5 682.333 38 701 38 c 0
 723.667 38 746 40.8333 768 46.5 c 128
 790 52.1667 810.333 61.5 829 74.5 c 128
 847.667 87.5 864.167 104.833 878.5 126.5 c 128
 892.833 148.167 903.333 175.333 910 208 c 2
 1011 678 l 2
 1016.33 704 1028.33 717 1047 717 c 0
 1065 717 1071 704 1065 678 c 2
EndSplineSet
Fore
704 46 m 0
 784 46 885 80 914 216 c 2
 1012 678 l 2
 1018 704 1029 717 1048 717 c 0
 1061 717 1068 709 1068 694 c 0
 1068 690 1067 684 1066 678 c 2
 968 216 l 2
 928 27 777 -10 692 -10 c 0
 590 -10 525 43 510 113 c 1
 481 66 404 -10 284 -10 c 0
 197 -10 89 24 89 154 c 0
 89 173 91 193 96 216 c 2
 194 678 l 2
 200 704 211 717 229 717 c 0
 244 717 251 709 251 694 c 0
 251 689 250 684 249 678 c 2
 151 216 l 2
 147 199 146 183 146 169 c 0
 146 72 225 46 296 46 c 0
 369 46 475 80 504 216 c 2
 602 678 l 2
 608 704 619 717 638 717 c 256
 653 717 660 709 660 694 c 0
 660 689 659 684 658 678 c 2
 560 216 l 2
 556 199 555 184 555 171 c 0
 555 72 639 46 704 46 c 0
EndSplineSet
EndChar
StartChar: X
Encoding: 88 88 57
Width: 639
VWidth: 1473
Flags: W
HStem: -8 21G<40.5 52 586.5 600> 339 57<332.539 459.928> 698 20G<188.5 205.5 744 757.5>
Fore
749 718 m 0
 766 718 772 707 772 696 c 0
 772 694 772 691 771 689 c 2
 771 685 769 681 766 676 c 2
 604 466 l 2
 566 419 530 386 495 367 c 1
 534 342 550 301 562 267 c 2
 629 34 l 2
 634 13 609 -8 591 -8 c 0
 582 -8 574 -3 572 9 c 2
 506 240 l 2
 495 275 474 339 395 339 c 0
 315 339 268 278 240 240 c 2
 76 9 l 2
 69 -2 57 -8 47 -8 c 0
 34 -8 24 1 24 15 c 0
 24 19 25 26 29 34 c 1
 200 270 l 1
 225 300 l 2
 251 332 273 351 305 367 c 1
 278 386 256 419 237 467 c 2
 166 676 l 2
 165 681 165 685 165 689 c 1
 167 697 177 718 200 718 c 0
 211 718 221 714 223 703 c 2
 293 488 l 2
 317 406 355 396 407 396 c 256
 467 396 505 415 559 488 c 2
 719 703 l 2
 727 714 739 718 749 718 c 0
EndSplineSet
EndChar
StartChar: Y
Encoding: 89 89 58
Width: 655
VWidth: 1473
Flags: W
HStem: 0 56<156.531 504.717> 227 56<281.242 504.432> 696 20G<214.5 230 728.5 745>
VStem: 141 55<361.906 472.551 470.854 474.248 474.248 486 488 502.22>
Fore
154 21 m 0
 154 35 161 56 201 56 c 2
 420 56 l 2
 509 56 583 117 599 193 c 2
 627 324 l 1
 568 266 482 227 377 227 c 256
 185 227 141 347 141 435 c 0
 141 454 143 472 146 486 c 2
 187 676 l 2
 192 703 205 716 224 716 c 0
 236 716 242 709 242 693 c 0
 242 688 241 683 240 676 c 2
 200 488 l 2
 199 483 196 468 196 449 c 0
 196 388 221 283 389 283 c 256
 558 283 640 387 655 457 c 2
 702 676 l 2
 707 703 719 716 738 716 c 0
 752 716 759 708 759 692 c 0
 759 687 758 682 757 676 c 2
 654 193 l 2
 630 78 513 0 408 0 c 2
 189 0 l 2
 166 0 154 7 154 21 c 0
EndSplineSet
EndChar
StartChar: Z
Encoding: 90 90 59
Width: 679
VWidth: 1473
Flags: W
HStem: 0 55<140.309 640.309> 663 54<187.95 710.098>
VStem: 58 57<60.2181 112.659> 713 58<586.234 658.59>
Fore
643 35 m 0
 643 21 635 0 597 0 c 2
 161 0 l 2
 114 0 58 15 58 71 c 0
 58 78 58 85 60 93 c 0
 75 166 110 172 491 440 c 2
 634 542 l 2
 697 585 713 601 713 629 c 0
 713 657 689 663 657 663 c 2
 221 663 l 2
 197 663 186 670 186 684 c 0
 186 697 193 717 232 717 c 2
 668 717 l 2
 714 717 771 703 771 646 c 0
 771 582 716 543 687 520 c 2
 167 156 l 2
 134 135 115 116 115 89 c 0
 115 60 143 55 173 55 c 2
 609 55 l 2
 632 55 643 48 643 35 c 0
EndSplineSet
EndChar
StartChar: bracketleft
Encoding: 91 91 60
Width: 362
VWidth: 1473
Flags: W
HStem: -181 54<109 295.766> 706 54<284 484.479>
VStem: 50 437<-153 740 -153 -153>
Fore
298 -148 m 0
 298 -161 290 -181 252 -181 c 2
 83 -181 l 2
 65 -181 50 -175 50 -153 c 0
 50 -148 51 -143 52 -137 c 2
 233 716 l 2
 241 751 261 760 283 760 c 2
 452 760 l 2
 475 760 487 753 487 740 c 0
 487 727 479 706 440 706 c 2
 284 706 l 1
 109 -127 l 1
 263 -127 l 2
 286 -127 298 -134 298 -148 c 0
EndSplineSet
EndChar
StartChar: backslash
Encoding: 92 92 61
Width: 312
VWidth: 1473
Flags: W
VStem: 129 220<19 706 706 706>
Fore
348 25 m 1
 349 23 349 21 349 19 c 0
 349 4 332 -10 318 -10 c 0
 312 -10 303 -7 299 4 c 2
 129 706 l 2
 128 714 132 741 162 741 c 0
 171 741 178 737 178 726 c 1
 348 25 l 1
EndSplineSet
EndChar
StartChar: bracketright
Encoding: 93 93 62
Width: 360
VWidth: 1473
Flags: W
HStem: -181 54<-2.45996 198> 706 54<188.087 375>
VStem: -5 439<-161 732 -161 -161>
Fore
186 727 m 0
 186 740 194 760 231 760 c 2
 401 760 l 2
 415 760 434 758 434 732 c 0
 434 727 433 722 432 716 c 2
 251 -137 l 2
 242 -178 216 -181 201 -181 c 2
 31 -181 l 2
 7 -181 -5 -174 -5 -161 c 0
 -5 -150 1 -127 42 -127 c 2
 198 -127 l 1
 375 706 l 1
 219 706 l 2
 197 706 186 713 186 727 c 0
EndSplineSet
EndChar
StartChar: asciicircum
Encoding: 94 94 63
Width: 677
VWidth: 1473
Flags: W
HStem: 254 464<199 488 488 488>
VStem: 176 437<266 274 273 289 273 273>
Fore
613 289 m 1
 615 266 590 255 578 255 c 0
 571 255 565 258 560 264 c 1
 474 647 l 1
 224 264 l 1
 215 257 207 254 199 254 c 0
 185 254 176 265 176 273 c 0
 176 274 176 276 179 286 c 1
 465 707 l 1
 474 714 481 718 488 718 c 0
 495 718 502 714 507 707 c 1
 613 289 l 1
EndSplineSet
EndChar
StartChar: underscore
Encoding: 95 95 64
Width: 677
VWidth: 1473
Flags: W
HStem: -124 50<-16 652>
Fore
-26 -124 m 1
 -16 -74 l 1
 662 -74 l 1
 652 -124 l 1
 -26 -124 l 1
EndSplineSet
EndChar
StartChar: grave
Encoding: 96 96 65
Width: 223
VWidth: 1473
Flags: W
HStem: 480 248<233.266 246.467>
VStem: 191 98<503 705 503 503>
Fore
252 520 m 2
 248 495 235 481 212 480 c 0
 198 480 191 487 191 503 c 0
 191 507 192 513 193 520 c 2
 228 689 l 2
 233 715 246 728 268 728 c 0
 282 728 289 720 289 705 c 0
 289 701 288 695 287 689 c 2
 252 520 l 2
EndSplineSet
EndChar
StartChar: a
Encoding: 97 97 66
Width: 633
VWidth: 1473
Flags: W
HStem: -7 50<185.717 431.047> 305 54<247.501 493.111> 474 55<267.24 512.221>
VStem: 79 53<88.0116 210.657> 584 55<311.818 412.194>
Fore
79 137 m 0
 79 226 161 359 382 359 c 0
 457 357 559 336 571 267 c 1
 577 291 l 0
 581 311 584 328 584 344 c 0
 584 396 556 474 390 474 c 0
 270 474 214 422 185 422 c 0
 175 422 168 429 168 441 c 0
 168 451 174 463 192 474 c 0
 268 517 338 529 404 529 c 0
 601 529 639 427 639 360 c 0
 639 340 637 317 631 289 c 2
 576 27 l 2
 572 11 556 0 541 0 c 256
 524 0 519 12 520 27 c 1
 530 74 l 1
 469 23 390 -7 289 -7 c 0
 123 -7 79 70 79 137 c 0
368 305 m 0
 239 305 132 239 132 142 c 0
 132 64 224 43 307 43 c 0
 488 43 547 138 547 201 c 0
 547 249 516 305 368 305 c 0
EndSplineSet
Substitution2: "Single Substitution lookup 22 subtable" uni0E38
Substitution2: "Single Substitution lookup 22 subtable" uni0E38
EndChar
StartChar: b
Encoding: 98 98 67
Width: 674
VWidth: 1473
Flags: W
HStem: -4 57<249.123 469.967> 468 58<331.535 551.037> 826 20G<265.5 282>
VStem: 69 103<9 277.5> 631 57<215.228 395.302>
Fore
688 325 m 0
 688 169 566 -4 345 -4 c 0
 244 -4 176 28 140 91 c 1
 126 22 l 2
 122 7 109 -7 92 -7 c 256
 78 -7 69 3 69 15 c 0
 69 17 69 20 70 22 c 1
 239 818 l 2
 242 833 257 846 274 846 c 0
 290 846 297 840 297 827 c 0
 297 825 297 821 296 818 c 2
 214 433 l 1
 283 499 367 526 458 526 c 0
 618 526 688 436 688 325 c 0
445 468 m 0
 277 468 172 345 172 210 c 0
 172 134 211 53 357 53 c 0
 562 53 631 216 631 314 c 0
 631 405 571 468 445 468 c 0
EndSplineSet
Substitution2: "Single Substitution lookup 22 subtable" uni0E39
Substitution2: "Single Substitution lookup 22 subtable" uni0E39
EndChar
StartChar: c
Encoding: 99 99 68
Width: 595
VWidth: 1473
Flags: W
HStem: -4 57<231.162 459.794> 468 58<315.51 541.641>
VStem: 95 56<126.695 308.107>
Fore
95 203 m 0
 95 349 221 526 438 526 c 0
 593 526 645 450 645 431 c 0
 645 420 638 396 610 396 c 0
 602 396 597 399 593 405 c 0
 565 447 509 468 425 468 c 0
 231 468 151 321 151 210 c 0
 151 118 211 53 337 53 c 0
 421 53 486 74 532 116 c 0
 539 123 546 126 553 126 c 0
 566 126 576 116 576 104 c 0
 576 67 472 -4 325 -4 c 0
 190 -4 95 77 95 203 c 0
EndSplineSet
Substitution2: "Single Substitution lookup 22 subtable" uni0E3A
Substitution2: "Single Substitution lookup 22 subtable" uni0E3A
EndChar
StartChar: d
Encoding: 100 100 69
Width: 674
VWidth: 1473
Flags: W
HStem: -3 58<231.543 445.863> 470 57<313.322 528.037> 827 20G<748 763.5>
VStem: 95 58<127.889 312.588>
Fore
95 196 m 0
 95 351 213 527 438 527 c 0
 529 527 601 501 642 435 c 1
 724 819 l 2
 728 838 739 847 757 847 c 0
 770 847 782 839 782 825 c 0
 782 823 781 821 781 819 c 1
 612 24 l 2
 609 9 595 -6 578 -6 c 256
 563 -6 555 5 555 18 c 0
 555 20 556 22 556 24 c 1
 571 93 l 1
 508 29 426 -3 325 -3 c 0
 189 -3 95 68 95 196 c 0
338 55 m 0
 558 55 613 236 613 317 c 0
 613 435 506 470 426 470 c 0
 226 470 153 315 153 212 c 0
 153 143 185 55 338 55 c 0
EndSplineSet
EndChar
StartChar: e
Encoding: 101 101 70
Width: 645
VWidth: 1473
Flags: W
HStem: -6 58<235.774 453.732> 239 56<169 595.742> 474 58<318.179 532.294>
VStem: 98 56<128.036 236.827> 604 63<300.138 415.081>
Fore
667 361 m 0
 667 284 603 239 567 239 c 2
 156 239 l 1
 155 229 154 219 154 209 c 0
 154 106 230 52 340 52 c 0
 452 52 518 105 544 130 c 0
 554 141 566 146 576 146 c 0
 587 146 595 140 595 126 c 0
 595 113 589 101 578 94 c 1
 542 57 465 -6 328 -6 c 0
 180 -6 98 69 98 194 c 0
 98 371 240 532 437 532 c 0
 607 532 667 437 667 361 c 0
568 295 m 2
 590 295 604 321 604 355 c 0
 604 426 530 474 425 474 c 0
 251 474 186 342 169 295 c 1
 568 295 l 2
EndSplineSet
EndChar
StartChar: f
Encoding: 102 102 71
Width: 303
VWidth: 1473
Flags: W
HStem: -6 21G<96.5 112.5> 460 56<260.803 389.092> 787 56<347.035 517.092>
VStem: 82 438<17 823 -138.51 134.832>
Fore
392 496 m 0
 392 481 383 460 347 460 c 2
 316 460 l 2
 246 460 212 382 205 349 c 2
 138 34 l 2
 132 7 121 -6 104 -6 c 0
 89 -6 82 2 82 17 c 0
 82 22 83 28 84 34 c 2
 211 631 l 2
 232 731 296 843 454 843 c 2
 487 843 l 2
 509 843 520 836 520 823 c 0
 520 808 511 787 475 787 c 2
 431 787 l 2
 333 787 286 729 265 631 c 2
 230 468 l 1
 258 500 298 516 332 516 c 2
 359 516 l 2
 381 516 392 509 392 496 c 0
EndSplineSet
EndChar
StartChar: g
Encoding: 103 103 72
Width: 667
VWidth: 1473
Flags: W
HStem: -260 54<197.066 400.261> -3 58<230.696 447.935> 470 57<314.815 533.877>
VStem: 95 57<128.449 309.831> 611 101<235.5 516>
Fore
95 196 m 0
 95 357 220 527 438 527 c 0
 539 527 607 495 643 432 c 1
 657 501 l 2
 661 516 675 530 692 530 c 256
 705 530 712 522 712 510 c 0
 712 507 712 504 711 501 c 2
 604 -6 l 2
 561 -209 381 -260 285 -260 c 0
 156 -260 108 -197 108 -165 c 0
 108 -148 128 -136 141 -136 c 0
 149 -136 157 -140 161 -149 c 0
 169 -170 205 -206 296 -206 c 0
 365 -206 513 -177 550 -6 c 2
 572 99 l 1
 514 42 433 -3 325 -3 c 0
 174 -3 95 77 95 196 c 0
338 55 m 0
 484 55 611 158 611 313 c 0
 611 389 572 470 426 470 c 0
 227 470 152 314 152 211 c 0
 152 135 193 55 338 55 c 0
EndSplineSet
EndChar
StartChar: h
Encoding: 104 104 73
Width: 662
VWidth: 1473
Flags: W
HStem: -6 21G<85 100.5 558.5 574.5> 473 57<334.83 538.501> 842 20G<268 283.5>
VStem: 603 56<290.662 412.639>
Fore
444 530 m 0
 586 530 659 449 659 333 c 0
 659 312 656 289 651 265 c 2
 600 24 l 2
 597 9 583 -6 566 -6 c 256
 551 -6 543 5 543 18 c 0
 543 20 544 22 544 24 c 1
 595 265 l 2
 600 290 603 312 603 333 c 0
 603 426 546 473 432 473 c 0
 311 473 200 373 175 256 c 2
 126 24 l 2
 123 9 109 -6 92 -6 c 256
 78 -6 70 5 70 18 c 0
 70 20 71 22 71 24 c 1
 243 832 l 2
 246 847 260 862 276 862 c 256
 291 862 299 851 299 838 c 0
 299 836 298 834 298 832 c 1
 210 417 l 1
 241 454 318 530 444 530 c 0
EndSplineSet
EndChar
StartChar: i
Encoding: 105 105 74
Width: 184
VWidth: 1473
Flags: W
HStem: -6 21G<84.5 100.5> 506 20G<195.5 211.5> 597 73<196.999 257.644>
VStem: 70 195<18 638 18 18> 189 76<605.227 662.09>
Fore
126 34 m 2xf0
 121 7 109 -6 92 -6 c 0
 77 -6 70 2 70 18 c 0
 70 23 71 28 72 34 c 2
 168 486 l 2
 174 513 186 526 205 526 c 0
 218 526 224 519 224 504 c 0
 224 499 224 493 222 486 c 2
 126 34 l 2xf0
189 625 m 0xe8
 189 649 213 670 233 670 c 256
 252 670 265 654 265 638 c 0xf0
 265 620 242 597 218 597 c 256
 202 597 189 609 189 625 c 0xe8
EndSplineSet
EndChar
StartChar: j
Encoding: 106 106 75
Width: 184
VWidth: 1473
Flags: W
HStem: -299 54<-132.168 -26.9062> 506 20G<190.5 213> 597 73<196.999 257.74>
VStem: -134 399<-277 638 -277 -277> 189 76<605 662.09>
Fore
-134 -277 m 0xf0
 -134 -260 -120 -245 -101 -245 c 0
 -33 -245 20 -213 51 -68 c 2
 169 488 l 2
 170 492 176 526 205 526 c 0
 221 526 225 513 225 502 c 0
 225 496 224 491 223 488 c 2
 105 -68 l 2
 73 -201 21 -299 -113 -299 c 0
 -126 -299 -134 -289 -134 -277 c 0xf0
189 625 m 0xe8
 189 649 213 670 233 670 c 256
 252 670 265 654 265 638 c 0xf0
 265 619 242 597 218 597 c 256
 202 597 189 609 189 625 c 0xe8
EndSplineSet
EndChar
StartChar: k
Encoding: 107 107 76
Width: 578
VWidth: 1473
Flags: W
HStem: -2 21G<92 107.5 511.5 525> 827 20G<271.5 287.5>
VStem: 495 57<21 164.517>
Fore
645 517 m 0
 659 517 663 502 663 496 c 0
 663 488 658 479 648 470 c 1
 628 460 l 2
 613 452 595 444 573 434 c 2
 410 358 l 1
 488 301 552 183 552 44 c 2
 552 30 l 2
 552 11 533 -2 517 -2 c 0
 506 -2 496 5 495 21 c 2
 495 31 l 2
 495 227 377 312 348 330 c 1
 292 303 l 1
 179 252 l 1
 134 40 l 2
 128 13 116 0 99 0 c 0
 85 0 78 7 78 23 c 0
 78 27 79 33 80 40 c 2
 242 806 l 2
 248 833 261 847 282 847 c 0
 293 847 298 840 298 825 c 0
 298 820 298 813 296 806 c 2
 191 312 l 1
 444 430 l 2
 530 468 629 514 632 514 c 1
 637 516 641 517 645 517 c 0
EndSplineSet
EndChar
StartChar: l
Encoding: 108 108 77
Width: 184
VWidth: 1473
Flags: W
HStem: 0 21G<86 101.5> 830 20G<264.5 280.5>
VStem: 72 221<23 827 23 23>
Fore
128 40 m 2
 122 13 110 0 93 0 c 0
 79 0 72 7 72 23 c 0
 72 27 73 33 74 40 c 2
 237 809 l 2
 243 836 255 850 274 850 c 0
 287 850 293 842 293 827 c 0
 293 822 293 816 291 809 c 2
 128 40 l 2
EndSplineSet
EndChar
StartChar: m
Encoding: 109 109 78
Width: 932
VWidth: 1473
Flags: W
HStem: 0 21G<81.5 99.5 459.5 474.5 835.5 850.5> 480 53<307.095 469.006 658.264 832.401>
VStem: 882 57<309.067 430.8>
Fore
90 0 m 0
 73 0 68 11 68 21 c 0
 68 24 69 26 69 28 c 1
 170 505 l 2
 174 522 189 533 204 533 c 256
 221 533 226 522 226 512 c 0
 226 509 225 507 225 505 c 2
 211 436 l 1
 233 468 302 533 408 533 c 0
 488 533 538 501 560 438 c 1
 628 525 706 533 751 533 c 0
 894 533 939 461 939 363 c 0
 939 333 935 301 928 268 c 2
 877 28 l 2
 873 11 858 0 843 0 c 256
 828 0 820 10 820 22 c 0
 820 24 821 26 821 28 c 1
 872 268 l 2
 878 299 882 325 882 348 c 0
 882 447 826 480 740 480 c 0
 655 480 583 413 568 342 c 2
 501 28 l 2
 497 11 482 0 467 0 c 256
 452 0 444 10 444 22 c 0
 444 24 445 26 445 28 c 1
 512 342 l 2
 514 350 515 359 515 367 c 0
 515 426 472 480 397 480 c 0
 255 480 198 365 177 277 c 2
 124 28 l 2
 120 9 109 0 90 0 c 0
EndSplineSet
EndChar
StartChar: n
Encoding: 110 110 79
Width: 662
VWidth: 1473
Flags: W
HStem: 0 21G<87.5 103.5 560.5 574.5> 476 56<362.616 529.034>
VStem: 604 56<287.042 405.038>
Fore
444 533 m 0
 576 533 660 466 660 341 c 0
 660 319 658 294 652 268 c 2
 601 28 l 2
 597 11 582 0 567 0 c 256
 554 0 546 8 546 20 c 0
 546 22 546 25 547 28 c 2
 598 268 l 2
 602 287 604 305 604 322 c 0
 604 414 546 476 432 476 c 0
 309 476 207 398 178 264 c 2
 128 28 l 2
 124 9 113 0 94 0 c 0
 81 0 73 8 73 20 c 0
 73 22 73 25 74 28 c 2
 175 504 l 2
 179 521 191 532 207 532 c 256
 224 532 229 521 229 511 c 0
 229 508 228 506 228 504 c 1
 212 429 l 1
 303 530 408 533 444 533 c 0
EndSplineSet
EndChar
StartChar: o
Encoding: 111 111 80
Width: 659
VWidth: 1473
Flags: W
HStem: 0 55<237.795 454.027> 476 54<323.017 532.741>
VStem: 98 53<134.711 312.123> 618 53<216.472 394.395>
Fore
98 204 m 0
 98 324 186 530 442 530 c 0
 586 530 671 452 671 330 c 0
 671 173 551 0 329 0 c 0
 187 0 98 79 98 204 c 0
430 476 m 0
 261 476 151 347 151 216 c 0
 151 111 233 55 341 55 c 0
 563 55 618 235 618 314 c 0
 618 420 536 476 430 476 c 0
EndSplineSet
EndChar
StartChar: p
Encoding: 112 112 81
Width: 674
VWidth: 1473
Flags: W
HStem: 0 57<256.573 471.259> 473 60<338.376 551.846>
VStem: 631 58<215.044 400.365>
Fore
689 330 m 0
 689 180 574 0 346 0 c 0
 255 0 183 27 142 93 c 1
 60 -292 l 2
 56 -311 45 -320 26 -320 c 0
 11 -320 2 -310 2 -298 c 0
 2 -296 3 -294 3 -292 c 1
 172 504 l 2
 175 519 189 533 206 533 c 256
 221 533 229 523 229 510 c 0
 229 508 228 506 228 504 c 1
 213 435 l 1
 276 498 358 530 459 530 c 0
 604 530 689 452 689 330 c 0
447 473 m 0
 245 473 172 315 172 214 c 0
 172 92 280 57 358 57 c 0
 558 57 631 212 631 315 c 0
 631 385 599 473 447 473 c 0
EndSplineSet
EndChar
StartChar: q
Encoding: 113 113 82
Width: 674
VWidth: 1473
Flags: W
HStem: 0 57<234.021 450.119> 473 57<319.342 537.295>
VStem: 98 58<128.031 314.104>
Fore
98 201 m 0
 98 364 227 530 442 530 c 0
 543 530 611 498 646 435 c 1
 661 504 l 2
 664 519 678 533 695 533 c 256
 710 533 718 523 718 510 c 0
 718 508 717 506 717 504 c 1
 548 -292 l 2
 545 -307 528 -320 512 -320 c 0
 496 -320 489 -314 489 -301 c 0
 489 -299 489 -295 490 -292 c 2
 572 93 l 1
 514 36 435 0 329 0 c 0
 178 0 98 81 98 201 c 0
430 473 m 0
 231 473 156 317 156 214 c 0
 156 138 195 57 341 57 c 0
 431 57 574 105 608 265 c 0
 612 281 614 299 614 317 c 0
 614 393 574 473 430 473 c 0
EndSplineSet
EndChar
StartChar: r
Encoding: 114 114 83
Width: 416
VWidth: 1473
Flags: W
HStem: 0 21G<84 100> 470 56<347.946 518.097>
VStem: 70 451<23 506 389.255 508.241>
Fore
521 506 m 0
 521 491 512 470 474 470 c 2
 427 470 l 2
 302 470 193 351 165 222 c 2
 127 40 l 2
 121 13 109 0 91 0 c 0
 77 0 70 7 70 23 c 0
 70 27 71 33 72 40 c 2
 166 486 l 2
 172 513 184 526 203 526 c 0
 216 526 223 519 223 504 c 0
 223 499 222 493 221 486 c 2
 200 387 l 1
 245 460 353 526 441 526 c 2
 486 526 l 2
 509 526 521 519 521 506 c 0
EndSplineSet
EndChar
StartChar: s
Encoding: 115 115 84
Width: 511
VWidth: 1473
Flags: W
HStem: -10 47<182.544 388.526> 482 50<263.379 471.421>
VStem: 146 56<339.143 433.328> 450 54<87.3946 185.49>
Back
564 455 m 0
 571.333 440.333 566 428 548 418 c 0
 530.667 410.667 517.333 414.333 508 429 c 1
 501.333 445.667 487.667 459.333 467 470 c 128
 446.333 480.667 421.667 487 393 489 c 256
 365 491 336 488.833 306 482.5 c 128
 276 476.167 252.667 466 236 452 c 0
 210 429.333 199 404.833 203 378.5 c 128
 207 352.167 226.667 333 262 321 c 2
 282 313 l 2
 302 305 302 305 325 296 c 128
 348 287 348 287 366.5 280 c 128
 378.833 275.333 385.333 273 386 273 c 1
 398.667 267.667 411.333 261.833 424 255.5 c 128
 436.667 249.167 448.5 241.833 459.5 233.5 c 128
 470.5 225.167 479.667 215.833 487 205.5 c 128
 494.333 195.167 499 183.667 501 171 c 0
 505 137.667 499.667 108.667 485 84 c 128
 470.333 59.3333 450.167 39.1667 424.5 23.5 c 128
 398.833 7.83333 369.833 -3.16667 337.5 -9.5 c 128
 305.167 -15.8333 272.667 -17.6667 240 -15 c 0
 192 -11 152.333 1.33333 121 22 c 128
 89.6667 42.6667 71.3333 71.3333 66 108 c 0
 65.3333 115.333 67.6667 122.5 73 129.5 c 128
 78.3333 136.5 85.3333 141.333 94 144 c 0
 104 146 112.5 145.333 119.5 142 c 128
 126.5 138.667 130.333 133 131 125 c 0
 134.333 106.333 140.833 91.3333 150.5 80 c 128
 160.167 68.6667 171.167 59.8333 183.5 53.5 c 128
 195.833 47.1667 208.167 42.8333 220.5 40.5 c 128
 239 37 239 37 249 35 c 0
 276.333 32.3333 303 33 329 37 c 128
 355 41 377.333 48.3333 396 59 c 128
 414.667 69.6667 428.667 83.1667 438 99.5 c 128
 447.333 115.833 450 134.333 446 155 c 0
 444 166.333 438.167 176.5 428.5 185.5 c 128
 418.833 194.5 407.167 202.667 393.5 210 c 128
 379.833 217.333 364.833 224 348.5 230 c 128
 324 239 324 239 301 247 c 0
 289.667 251 274.5 256.667 255.5 264 c 128
 236.5 271.333 223 277 215 281 c 0
 195.667 291 180.333 303.833 169 319.5 c 128
 157.667 335.167 150.667 352.167 148 370.5 c 128
 145.333 388.833 148.5 408 157.5 428 c 128
 166.5 448 181.667 467 203 485 c 0
 229 505.667 260.333 520.833 297 530.5 c 128
 333.667 540.167 371.333 543 410 539 c 0
 447.333 536.333 479.667 527.667 507 513 c 128
 534.333 498.333 553.333 479 564 455 c 0
EndSplineSet
Fore
146 374 m 0
 146 464 257 532 375 532 c 0
 522 532 566 458 566 435 c 0
 566 424 549 408 531 408 c 0
 496 408 511 482 371 482 c 0
 274 482 202 442 202 381 c 0
 202 333 258 318 324 293 c 2
 366 278 l 2
 418 256 504 232 504 151 c 0
 504 54 399 -10 271 -10 c 0
 114 -10 68 75 68 112 c 0
 68 140 95 146 107 146 c 0
 120 146 131 140 132 127 c 0
 145 47 239 37 283 37 c 0
 378 37 450 78 450 139 c 0
 450 174 422 203 349 229 c 2
 256 262 l 2
 236 270 146 300 146 374 c 0
EndSplineSet
EndChar
StartChar: t
Encoding: 116 116 85
Width: 327
VWidth: 1473
Flags: W
HStem: 0 56<191.667 333.469> 460 56<226 359.69> 812 20G<257.5 273.5>
VStem: 100 55<91.4354 196.708> 100 262
Fore
362 495 m 0xe8
 362 481 356 460 318 460 c 2
 214 460 l 1
 161 214 l 2
 157 194 155 176 155 161 c 0
 155 85 201 56 274 56 c 2
 301 56 l 2
 324 56 336 49 336 35 c 0
 336 21 329 0 289 0 c 2
 262 0 l 2
 136 0 100 75 100 152 c 0xf0
 100 173 103 194 107 214 c 2
 231 793 l 2
 236 819 248 832 267 832 c 0
 280 832 287 824 287 809 c 0
 287 804 286 799 285 793 c 2
 226 516 l 1
 330 516 l 2
 351 516 362 509 362 495 c 0xe8
EndSplineSet
EndChar
StartChar: u
Encoding: 117 117 86
Width: 658
VWidth: 1473
Flags: W
HStem: -7 57<232.458 411.53> 506 20G<195.5 210.5 666.5 684.5>
VStem: 110 57<111.114 236.463>
Fore
676 526 m 0
 693 526 698 515 698 505 c 0
 698 502 697 500 697 498 c 1
 596 22 l 2
 592 3 581 -6 563 -6 c 0
 550 -6 542 2 542 14 c 0
 542 16 542 19 543 22 c 2
 558 93 l 1
 467 -7 358 -7 326 -7 c 0
 157 -7 110 89 110 186 c 0
 110 211 113 235 118 258 c 2
 169 498 l 2
 172 515 188 526 203 526 c 256
 218 526 226 516 226 504 c 0
 226 502 225 500 225 498 c 1
 174 258 l 2
 169 237 167 215 167 195 c 0
 167 116 207 50 338 50 c 0
 447 50 556 92 591 258 c 2
 642 498 l 2
 646 517 657 526 676 526 c 0
EndSplineSet
EndChar
StartChar: v
Encoding: 118 118 87
Width: 562
VWidth: 1473
Flags: W
HStem: -6 49<237.395 352.24> 507 20G<129.5 145.5 639.5 653>
Fore
107 489 m 2
 107 508 119 527 140 527 c 0
 151 527 162 523 163 508 c 2
 211 128 l 2
 227 53 256 43 290 43 c 256
 328 43 357 55 404 125 c 2
 616 508 l 2
 622 520 633 527 646 527 c 0
 660 527 668 517 668 504 c 0
 668 501 667 493 664 489 c 2
 449 103 l 2
 385 -0 319 -6 280 -6 c 0
 193 -6 167 53 157 106 c 2
 107 489 l 2
EndSplineSet
EndChar
StartChar: w
Encoding: 119 119 88
Width: 880
VWidth: 1473
Flags: W
HStem: -7 53<192.327 361.805 550.426 723.945> 506 20G<170.5 186.5 546.5 561.5 922.5 936.5>
VStem: 82 57<96.3426 222.101>
Fore
930 526 m 256
 943 526 953 517 953 504 c 0
 953 502 952 500 952 498 c 1
 901 258 l 2
 871 116 798 -7 612 -7 c 0
 567 -7 491 1 461 88 c 1
 412 25 349 -7 269 -7 c 0
 126 -7 82 73 82 167 c 0
 82 195 86 224 92 253 c 2
 144 498 l 2
 147 515 163 526 178 526 c 256
 195 526 200 515 200 505 c 0
 200 502 199 500 199 498 c 1
 147 253 l 2
 141 227 139 203 139 180 c 0
 139 98 179 46 280 46 c 0
 366 46 439 116 453 184 c 2
 520 498 l 2
 523 515 539 526 554 526 c 256
 569 526 577 516 577 504 c 0
 577 502 576 500 576 498 c 1
 509 184 l 2
 507 175 506 166 506 157 c 0
 506 97 549 46 623 46 c 0
 729 46 811 97 845 258 c 2
 896 498 l 2
 899 515 915 526 930 526 c 256
EndSplineSet
EndChar
StartChar: x
Encoding: 120 120 89
Width: 564
VWidth: 1473
Flags: W
HStem: -4 21G<37.5 49 512 525.5> 239 56<289.963 384.559> 509 20G<148 165 621.5 634>
Fore
628 529 m 0
 640 529 653 520 653 506 c 0
 653 495 646 486 641 480 c 2
 506 333 l 2
 476 303 459 287 424 267 c 1
 440 252 457 236 466 217 c 2
 548 44 l 2
 550 40 551 36 551 32 c 0
 551 15 534 -4 517 -4 c 0
 507 -4 500 1 496 9 c 2
 448 108 l 2
 438 132 429 148 424 159 c 2
 414 180 l 2
 401 203 373 239 332 239 c 256
 295 239 254 210 227 181 c 2
 71 9 l 2
 62 0 53 -4 45 -4 c 0
 30 -4 23 7 23 19 c 0
 23 28 26 37 33 44 c 2
 123 144 l 2
 195 226 206 236 254 267 c 1
 236 279 220 296 209 312 c 1
 126 480 l 2
 113 505 138 529 158 529 c 0
 172 529 177 521 179 517 c 2
 251 371 l 1
 262 351 l 2
 275 327 303 295 344 295 c 256
 381 295 422 319 448 349 c 2
 604 517 l 2
 608 521 615 529 628 529 c 0
EndSplineSet
EndChar
StartChar: y
Encoding: 121 121 90
Width: 617
VWidth: 1473
Flags: W
HStem: -274 54<158.879 362.412> -3 53<212.957 389.156> 510 20G<174.5 190.5 645.5 660.5>
VStem: 90 55<113.287 233.701>
Fore
69 -183 m 0
 69 -163 88 -149 104 -149 c 0
 112 -149 120 -153 124 -162 c 1
 134 -200 202 -220 257 -220 c 0
 316 -220 475 -193 512 -19 c 2
 537 97 l 1
 446 -2 342 -3 305 -3 c 0
 139 -3 90 84 90 183 c 0
 90 209 93 236 99 262 c 2
 150 502 l 2
 154 521 165 530 184 530 c 0
 197 530 205 520 205 508 c 0
 205 506 204 504 204 502 c 1
 153 262 l 2
 148 237 145 215 145 196 c 0
 145 81 229 50 317 50 c 0
 480 50 543 156 566 262 c 2
 615 492 l 2
 621 523 637 532 654 532 c 256
 667 532 677 527 677 508 c 0
 677 503 676 498 675 492 c 2
 566 -19 l 2
 523 -223 342 -274 250 -274 c 0
 141 -274 69 -223 69 -183 c 0
EndSplineSet
EndChar
StartChar: z
Encoding: 122 122 91
Width: 578
VWidth: 1473
Flags: W
HStem: 0 55<141.427 515.283> 471 55<175.717 546.716>
VStem: 85 55<59.8366 111.161> 548 57<402.37 465.923>
Fore
518 35 m 0
 518 21 510 0 471 0 c 2
 189 0 l 2
 141 0 85 15 85 70 c 0
 85 138 146 171 167 184 c 2
 478 368 l 2
 519 392 548 413 548 443 c 0
 548 462 529 471 490 471 c 2
 208 471 l 2
 185 471 173 478 173 491 c 0
 173 505 181 526 220 526 c 2
 502 526 l 2
 549 526 605 511 605 455 c 0
 605 379 542 348 440 290 c 2
 193 147 l 2
 148 121 140 96 140 83 c 0
 140 64 161 55 201 55 c 2
 483 55 l 2
 506 55 518 48 518 35 c 0
EndSplineSet
EndChar
StartChar: braceleft
Encoding: 123 123 92
Width: 334
VWidth: 1473
Flags: W
VStem: 134 57<-93.229 11.6881> 168 56<137.981 238.076>
Fore
263 -148 m 1x80
 260 -158 246 -179 227 -179 c 0
 208 -179 184 -160 157 -121 c 0
 147 -107 134 -87 134 -43 c 0x80
 134 -24 136 -0 142 29 c 2
 163 125 l 2
 167 142 168 157 168 170 c 0
 168 255 102 262 102 285 c 0
 102 319 202 310 233 454 c 2
 253 551 l 2
 273 646 309 680 332 700 c 0
 375 739 407 758 426 758 c 0
 443 758 449 742 449 732 c 0
 449 727 447 719 429 708 c 2
 399 690 l 2
 374 675 325 634 307 551 c 2
 287 454 l 2
 268 367 234 320 170 290 c 1
 206 267 224 236 224 187 c 0x40
 224 169 222 148 217 125 c 2
 196 29 l 2
 193 13 191 -2 191 -17 c 0
 191 -55 202 -89 229 -110 c 2
 252 -128 l 2
 257 -133 264 -140 263 -148 c 1x80
EndSplineSet
EndChar
StartChar: bar
Encoding: 124 124 93
Width: 231
VWidth: 1473
Flags: W
VStem: 54 252<-179 767 -179 -179>
Fore
110 -162 m 2
 104 -189 92 -202 75 -202 c 0
 61 -202 54 -195 54 -179 c 0
 54 -175 55 -169 56 -162 c 2
 250 751 l 2
 255 778 267 791 286 791 c 0
 299 791 306 783 306 767 c 0
 306 763 305 757 304 751 c 2
 110 -162 l 2
EndSplineSet
EndChar
StartChar: braceright
Encoding: 125 125 94
Width: 334
VWidth: 1473
Flags: W
VStem: 244 56<337.138 434.4> 277 57<567.074 672.072>
Fore
306 454 m 2x40
 302 435 300 419 300 405 c 0
 300 320 364 317 364 291 c 0
 364 264 325 278 267 203 c 0
 253 184 243 158 236 125 c 2
 215 29 l 2
 195 -68 161 -101 136 -121 c 0
 93 -160 61 -179 42 -179 c 0
 25 -179 19 -164 19 -154 c 0
 19 -141 33 -132 39 -129 c 2
 69 -110 l 2
 94 -96 143 -55 161 29 c 2
 182 125 l 2
 200 211 234 259 299 290 c 1
 261 311 244 342 244 389 c 0x80
 244 408 247 429 252 454 c 2
 272 551 l 2
 276 567 277 582 277 595 c 0
 277 650 252 680 239 690 c 2
 216 708 l 2
 209 713 206 720 206 726 c 0
 206 742 226 758 241 758 c 0
 260 758 284 739 311 700 c 0
 321 686 334 665 334 621 c 0
 334 603 332 580 326 551 c 2
 306 454 l 2x40
EndSplineSet
EndChar
StartChar: asciitilde
Encoding: 126 126 95
Width: 574
VWidth: 1473
Flags: W
HStem: 189 60<424.313 502.722> 298 60<185.739 256.393>
Fore
569 368 m 0
 585 368 598 359 598 344 c 0
 598 341 598 339 597 336 c 2
 595 325 l 2
 573 220 509 189 448 189 c 0
 429 189 406 193 361 222 c 2
 262 283 l 2
 247 293 234 298 222 298 c 0
 184 298 164 241 156 205 c 0
 153 191 143 175 117 175 c 0
 92 175 88 188 90 196 c 2
 94 217 l 2
 118 331 192 358 237 358 c 0
 266 358 294 343 305 336 c 2
 423 262 l 2
 434 253 446 249 459 249 c 0
 495 249 519 284 527 318 c 0
 530 334 529 368 569 368 c 0
EndSplineSet
EndChar
StartChar: uni0E33.alt1
Encoding: 65539 -1 96
Width: 570
VWidth: 1473
Flags: W
HStem: -4 21G<461.5 477.5> 547 57<288.522 481.485> 672 51<-162.852 -51.4401> 831 51<-146.339 -38.1921>
VStem: -224 54<733.859 807.227> -30 53<745.15 811.754> 531 58<390.695 407 407 419.539 419.539 420.34 419.94 503.247>
Fore
144 460 m 0
 144 494 246 604 401 604 c 256
 491 604 589 546 589 443 c 0
 589 432 588 420 585 407 c 2
 503 25 l 2
 500 10 486 -4 469 -4 c 256
 454 -4 444 6 444 19 c 0
 444 21 445 23 445 25 c 1
 527 407 l 2
 529 419 531 430 531 440 c 0
 531 510 475 547 389 547 c 0
 303 547 224 499 199 457 c 0
 190 443 178 437 168 437 c 0
 155 437 144 446 144 460 c 0
-224 753 m 0
 -224 818 -161 882 -78 882 c 0
 -5 882 23 839 23 796 c 0
 23 736 -33 672 -122 672 c 0
 -161 672 -224 692 -224 753 c 0
-88 831 m 0
 -140 831 -170 792 -170 766 c 0
 -170 726 -111 723 -111 723 c 1
 -62 723 -30 757 -30 783 c 0
 -30 800 -38 831 -88 831 c 0
EndSplineSet
EndChar
StartChar: quotedbl
Encoding: 34 34 97
Width: 294
VWidth: 1473
Flags: W
HStem: 473 247<209.672 224.281 323.938 336.964 192 356 243 243>
VStem: 167 211<497 699 577.938 590.964>
Fore
228 513 m 2
 226 489 216 474 192 473 c 0
 176 473 167 481 167 497 c 0
 167 502 168 507 169 513 c 2
 205 682 l 2
 209 707 222 720 243 720 c 0
 258 720 265 712 265 697 c 0
 265 693 264 688 263 682 c 2
 228 513 l 2
342 514 m 2
 338 485 325 476 306 474 c 0
 289 474 281 482 281 499 c 0
 281 504 282 508 283 514 c 2
 319 684 l 2
 324 709 335 722 356 722 c 0
 371 722 378 714 378 699 c 0
 378 695 377 690 376 684 c 2
 342 514 l 2
EndSplineSet
EndChar
StartChar: exclam
Encoding: 33 33 98
Width: 272
VWidth: 1473
Flags: W
HStem: 0 85<114.846 180.952>
VStem: 104 222<32 717 39.0231 64.3398> 104 89<12.7134 74.5586> 251 75<687.741 710.023 710.023 735.34>
Fore
296 742 m 256x90
 308 742 326 736 326 717 c 0xc0
 326 713 326 708 324 703 c 1
 210 206 l 2
 203 181 192 168 174 168 c 0
 159 168 152 176 152 191 c 0
 152 195 153 200 154 206 c 2
 251 703 l 2
 255 733 282 742 296 742 c 256x90
104 32 m 0
 104 56 124 85 155 85 c 256
 177 85 193 72 193 52 c 0xa0
 193 23 162 0 138 0 c 256
 117 0 104 14 104 32 c 0
EndSplineSet
EndChar
StartChar: uni0E4E.alt1
Encoding: 65540 -1 99
Width: 0
VWidth: 1473
Flags: W
HStem: 662 37<-127.779 -64.1532 -71.713 -56.5935 -56.5935 -50> 978 23<34.321 114.918>
VStem: -196 64<707.042 777.429> -73 55<860.135 934.838>
Fore
-73 888 m 0
 -73 946 -16 1001 74 1001 c 0
 84 1001 130 1001 130 987 c 0
 130 982 127 980 125 978 c 1
 48 977 -18 940 -18 885 c 0
 -18 864 -4 854 13 849 c 1
 30 849 37 815 -0 812 c 0
 -105 808 -132 762 -132 735 c 0
 -132 713 -108 699 -66 699 c 0
 -51 699 -40 699 -31 700 c 1
 -50 666 l 1
 -74 663 -93 662 -110 662 c 0
 -166 665 -196 689 -196 725 c 0
 -196 748 -178 827 -48 840 c 1
 -65 853 -73 869 -73 888 c 0
EndSplineSet
EndChar
StartChar: exclamdown
Encoding: 161 161 100
Width: 272
VWidth: 1473
Flags: W
HStem: 442 85<211.276 278.746>
VStem: 66 224<-189 492 -182.023 -159.637> 66 75<-208.247 -182.023 -182.023 -159.637> 201 89<453.349 516.613>
Fore
95 -215 m 256xa0
 85 -215 66 -209 66 -189 c 0xc0
 66 -185 66 -180 68 -175 c 1
 181 321 l 2
 187 346 198 359 217 359 c 0
 231 359 239 351 239 335 c 0
 239 331 238 326 237 321 c 2
 141 -175 l 2
 137 -206 110 -215 95 -215 c 256xa0
201 475 m 0x90
 201 506 228 527 253 527 c 256
 274 527 290 511 290 492 c 0xc0
 290 472 270 442 234 442 c 256
 213 442 201 455 201 475 c 0x90
EndSplineSet
EndChar
StartChar: cent
Encoding: 162 162 101
Width: 637
VWidth: 1473
Flags: W
HStem: 85 54<327.424 492.871> 551 54<559 629.055> 560 53<351.489 474.625 466.5 482.75> 703 20G<581.5 592>
VStem: 132 58<212.19 391.068>
Fore
685 513 m 0xd8
 685 493 670 481 654 481 c 0
 618 481 634 531 531 551 c 1xd8
 326 143 l 1
 341 140 358 139 375 139 c 0
 444 139 528 162 567 208 c 1
 575 213 584 216 591 216 c 0
 604 216 613 209 613 196 c 0
 613 146 493 85 369 85 c 0
 347 85 324 87 302 91 c 1
 251 -9 l 2
 244 -22 232 -28 222 -28 c 0
 211 -28 202 -21 202 -11 c 0
 202 -9 203 -8 203 -6 c 0
 203 -3 205 1 207 4 c 2
 256 103 l 1
 188 126 132 180 132 279 c 0
 132 458 282 613 467 613 c 0xb8
 481 613 495 612 509 611 c 1
 557 704 l 2
 562 714 576 723 587 723 c 0
 597 723 605 714 605 703 c 0
 605 699 604 695 602 691 c 2
 559 605 l 1
 626 592 685 550 685 513 c 0xd8
450 560 m 0xb8
 312 560 190 434 190 298 c 0
 190 243 210 182 282 156 c 1
 483 558 l 1
 472 559 461 560 450 560 c 0xb8
EndSplineSet
EndChar
StartChar: sterling
Encoding: 163 163 102
Width: 589
VWidth: 1473
Flags: W
HStem: -10 50<352.047 509.815> 35 50<185.402 322.531> 333 49<152 230 301 467> 674 53<363.568 533.367>
VStem: 201 55<430.338 572.05> 254 53<208.528 314.807> 584 50<502 515.66 515.66 541.109 528.385 619.557>
Fore
454 674 m 0x7a
 373 674 256 613 256 493 c 0x7a
 256 465 262 425 290 382 c 1
 467 382 l 1
 475 333 l 1
 301 333 l 1
 302 316 307 305 307 285 c 0
 307 241 284 159 161 65 c 1
 182 75 209 85 242 85 c 0x76
 311 85 390 40 444 40 c 0
 475 40 497 53 536 78 c 1
 560 44 l 1
 524 13 481 -10 423 -10 c 0xb6
 342 -10 305 35 241 35 c 0
 172 35 156 12 121 -1 c 1
 86 65 l 1
 169 118 254 197 254 285 c 0x76
 254 304 250 321 245 333 c 1
 152 333 l 1
 144 382 l 1
 230 382 l 1
 223 393 201 431 201 484 c 0
 201 616 337 727 463 727 c 0
 564 727 641 674 641 563 c 0
 641 544 639 524 634 502 c 1
 584 502 l 1
 587 516 588 529 588 542 c 0
 588 618 538 674 454 674 c 0x7a
EndSplineSet
EndChar
StartChar: currency
Encoding: 164 164 103
Width: 715
VWidth: 1473
Flags: W
HStem: 87 51<303.207 482.175> 529 54<379.47 555.063>
VStem: 173 58<223.674 380.79> 630 58<320.631 454.041>
Fore
229 555 m 0
 229 569 243 590 264 590 c 0
 275 590 285 584 296 573 c 2
 325 535 l 1
 368 562 422 583 482 583 c 0
 547 583 595 564 627 536 c 1
 672 573 l 2
 686 585 697 591 707 591 c 0
 720 591 729 579 729 566 c 0
 729 554 720 542 703 529 c 2
 662 495 l 1
 679 465 688 432 688 394 c 0
 688 376 688 275 598 181 c 1
 621 152 l 2
 629 142 633 133 633 125 c 0
 633 106 615 91 600 91 c 0
 590 91 580 97 571 110 c 2
 547 140 l 1
 488 101 424 87 376 87 c 0
 313 87 265 104 229 137 c 1
 197 110 l 2
 182 97 170 91 159 91 c 0
 146 91 136 101 136 113 c 0
 136 124 144 137 160 152 c 2
 194 180 l 1
 179 211 173 243 173 274 c 0
 173 348 205 433 269 492 c 1
 240 529 l 2
 233 538 229 546 229 555 c 0
388 138 m 0
 521 138 630 260 630 373 c 0
 630 464 562 529 471 529 c 0
 347 529 231 416 231 289 c 0
 231 197 299 138 388 138 c 0
EndSplineSet
EndChar
StartChar: yen
Encoding: 165 165 104
Width: 589
VWidth: 1473
Flags: W
HStem: -6 21G<289 306> 200 55<134.41 310 384 562.666> 343 56<164.62 305 461 573.553> 701 20G<218 239 664.5 677>
Fore
162 365 m 0
 162 385 182 399 198 399 c 2
 305 399 l 1
 195 673 l 2
 186 692 203 721 233 721 c 0
 245 721 255 715 259 706 c 2
 383 399 l 1
 384 399 l 1
 639 706 l 2
 647 715 659 721 670 721 c 0
 684 721 699 711 699 695 c 0
 699 686 694 678 690 673 c 2
 461 399 l 1
 571 399 l 2
 584 399 595 390 595 376 c 0
 595 355 573 343 559 343 c 2
 412 343 l 1
 400 329 l 1
 384 255 l 1
 540 255 l 2
 553 255 565 247 565 233 c 0
 565 213 545 200 529 200 c 2
 373 200 l 1
 336 28 l 2
 332 8 315 -6 297 -6 c 256
 281 -6 272 4 272 19 c 0
 272 22 272 25 273 28 c 2
 310 200 l 1
 156 200 l 2
 143 200 132 209 132 222 c 0
 132 242 153 255 167 255 c 2
 321 255 l 1
 337 329 l 1
 331 343 l 1
 186 343 l 2
 174 343 162 351 162 365 c 0
EndSplineSet
EndChar
StartChar: brokenbar
Encoding: 166 166 105
Width: 232
VWidth: 1473
Flags: W
VStem: 50 248<-198 738 -567.441 -170.871>
Fore
278 760 m 256
 292 760 298 753 298 738 c 0
 298 734 298 728 296 722 c 2
 223 377 l 2
 217 350 206 337 188 337 c 256
 175 337 168 345 168 360 c 0
 168 365 169 371 170 377 c 2
 243 722 l 2
 249 747 261 760 278 760 c 256
159 203 m 256
 173 203 180 195 180 180 c 0
 180 175 179 170 178 164 c 2
 105 -180 l 2
 99 -207 87 -220 69 -220 c 256
 56 -220 50 -213 50 -198 c 0
 50 -193 50 -187 52 -180 c 2
 125 164 l 2
 130 190 142 203 159 203 c 256
EndSplineSet
EndChar
StartChar: section
Encoding: 167 167 106
Width: 567
VWidth: 1473
Flags: W
HStem: -77 48<205.71 354.909> 704 46<356.11 505.434>
VStem: 121 56<-2.0174 103.246 87.625 119.635> 145 53<340.233 433.283> 243 53<549.805 648.296> 412 54<27.6542 132.941> 518 51<257.245 346.314> 532 54<562.577 593.27 577.923 673.672>
Fore
121 53 m 0xee
 121 112 140 125 164 125 c 0
 180 125 184 116 184 107 c 0
 184 97 177 82 177 57 c 0xee
 177 -11 232 -29 277 -29 c 0
 370 -29 412 43 412 91 c 0
 412 120 397 139 377 152 c 2
 192 273 l 2
 154 296 145 331 145 359 c 0
 145 423 194 490 273 520 c 1
 257 534 243 557 243 589 c 0
 243 661 322 750 443 750 c 0
 540 750 586 694 586 624 c 0
 586 577 572 560 552 560 c 0
 538 560 532 566 532 578 c 0xdd
 532 585 536 596 536 615 c 0
 536 654 517 704 425 704 c 0
 361 704 296 648 296 596 c 0
 296 556 335 533 383 501 c 2
 433 467 l 2
 451 455 466 444 482 435 c 2
 520 412 l 2
 527 407 569 388 569 332 c 0
 569 265 515 193 437 165 c 1
 460 144 466 120 466 101 c 0
 466 30 396 -77 272 -77 c 0
 181 -77 121 -30 121 53 c 0xee
294 489 m 1
 228 466 198 421 198 378 c 0xde
 198 358 205 333 235 312 c 2
 415 196 l 1
 476 217 518 268 518 312 c 0
 518 330 511 353 484 371 c 2
 294 489 l 1
EndSplineSet
EndChar
StartChar: dieresis
Encoding: 168 168 107
Width: 318
VWidth: 1473
Flags: W
HStem: 592 93<163.275 232.1 356.549 425.856>
VStem: 149 96<604.689 671.234> 344 95<605.232 673.107>
Fore
439 649 m 0
 439 621 416 592 381 592 c 256
 352 592 344 610 344 626 c 0
 344 658 367 685 401 685 c 256
 423 685 439 672 439 649 c 0
245 649 m 0
 245 621 223 592 186 592 c 256
 164 592 149 604 149 625 c 0
 149 655 173 685 206 685 c 256
 230 685 245 671 245 649 c 0
EndSplineSet
EndChar
StartChar: copyright
Encoding: 169 169 108
Width: 869
VWidth: 1473
Flags: W
HStem: -15 46<330.231 559.113> 124 53<363.817 580.761> 541 48<441.743 652.948> 691 43<466.733 689.641>
VStem: 125 46<182.302 401.79> 253 51<232.034 403.271> 847 47<318.603 537.693>
Fore
894 438 m 0
 894 200 663 -15 430 -15 c 0
 257 -15 125 107 125 282 c 0
 125 512 350 734 589 734 c 0
 768 734 894 608 894 438 c 0
580 691 m 0
 373 691 171 498 171 291 c 0
 171 143 279 31 440 31 c 0
 659 31 847 230 847 430 c 0
 847 580 738 691 580 691 c 0
470 177 m 0
 609 177 634 240 657 240 c 0
 667 240 676 232 676 219 c 0
 676 190 590 124 458 124 c 0
 332 124 253 194 253 303 c 0
 253 436 366 589 557 589 c 0
 688 589 738 530 738 505 c 0
 738 494 725 477 708 477 c 0
 702 477 696 479 692 485 c 0
 668 522 620 541 547 541 c 0
 384 541 304 424 304 306 c 0
 304 204 385 177 470 177 c 0
EndSplineSet
EndChar
StartChar: ordfeminine
Encoding: 170 170 109
Width: 378
VWidth: 1473
Flags: W
HStem: 303 42<177.278 341.269> 485 44<204.363 352.633> 583 42<214.86 383.479>
VStem: 121 42<361.878 447.833> 401 37<486 498.782 498.782 499.023 498.902 562.773>
Fore
173 570 m 0
 173 595 252 625 316 625 c 0
 413 625 444 584 444 528 c 0
 444 514 441 498 438 482 c 2
 406 330 l 2
 403 315 394 308 379 308 c 0
 368 308 364 319 368 330 c 1
 371 345 l 1
 338 319 294 303 242 303 c 0
 181 303 121 329 121 392 c 0
 121 474 197 529 298 529 c 0
 333 529 370 526 401 486 c 1
 403 495 404 504 404 512 c 0
 404 557 376 583 305 583 c 0
 237 583 209 553 191 553 c 0
 182 553 173 563 173 570 c 0
254 345 m 0
 334 345 382 383 382 428 c 0
 382 473 329 485 287 485 c 0
 237 485 163 459 163 400 c 0
 163 360 205 345 254 345 c 0
EndSplineSet
EndChar
StartChar: guillemotleft
Encoding: 171 171 110
Width: 441
VWidth: 1473
Flags: W
HStem: 57 437<199 295 295 295>
VStem: 99 381<275 474 275 275>
Fore
270 482 m 2
 273 486 282 494 295 494 c 0
 308 494 315 484 315 473 c 0
 315 467 313 460 308 455 c 2
 152 275 l 1
 231 96 l 2
 232 93 233 90 233 87 c 0
 233 72 215 57 199 57 c 0
 191 57 186 61 183 69 c 2
 99 275 l 1
 270 482 l 2
396 96 m 1
 406 83 385 57 364 57 c 0
 356 57 351 61 348 69 c 2
 264 275 l 1
 435 482 l 2
 438 486 447 494 460 494 c 0
 476 494 480 482 480 474 c 0
 480 468 478 460 473 455 c 2
 317 275 l 1
 396 96 l 1
EndSplineSet
EndChar
StartChar: logicalnot
Encoding: 172 172 111
Width: 754
VWidth: 1473
Flags: W
HStem: 358 59<126.584 712>
Fore
122 380 m 0
 122 396 139 417 160 417 c 2
 784 417 l 1
 721 124 l 2
 718 107 702 94 686 94 c 0
 670 94 661 105 661 118 c 0
 661 120 662 122 662 124 c 1
 712 358 l 1
 147 358 l 2
 134 358 122 366 122 380 c 0
EndSplineSet
EndChar
StartChar: registered
Encoding: 174 174 112
Width: 842
VWidth: 1473
Flags: W
HStem: -15 43<318.781 544.714> 306 40<464.952 620.245> 564 41<445.647 637.426> 691 44<452.291 678.318>
VStem: 115 45<182.385 403.977> 674 44<398.413 529.793> 838 44<316.085 539.611>
Fore
115 282 m 0
 115 521 346 735 579 735 c 0
 749 735 882 616 882 440 c 0
 882 195 647 -15 420 -15 c 0
 241 -15 115 111 115 282 c 0
570 691 m 0
 362 691 160 501 160 291 c 0
 160 141 269 28 429 28 c 0
 633 28 838 216 838 432 c 0
 838 591 716 691 570 691 c 0
718 482 m 0
 718 389 650 306 534 306 c 0
 521 306 508 307 496 309 c 1
 554 294 621 186 627 152 c 0
 628 136 605 128 600 128 c 0
 579 128 575 193 483 278 c 0
 466 294 436 319 412 331 c 1
 403 333 396 339 396 348 c 0
 396 355 406 371 419 371 c 0
 438 371 468 346 537 346 c 0
 647 346 674 420 674 473 c 0
 674 545 607 564 549 564 c 0
 475 564 384 538 363 436 c 2
 303 155 l 2
 300 140 291 133 277 133 c 0
 265 133 259 138 259 148 c 0
 259 150 259 152 260 155 c 2
 321 442 l 2
 346 559 447 605 558 605 c 0
 623 605 718 580 718 482 c 0
EndSplineSet
EndChar
StartChar: macron
Encoding: 175 175 113
Width: 318
VWidth: 1473
Flags: W
HStem: 622 47<183 407 173 417 183 183>
Fore
173 622 m 1
 183 669 l 1
 417 669 l 1
 407 622 l 1
 173 622 l 1
EndSplineSet
EndChar
StartChar: degree
Encoding: 176 176 114
Width: 318
VWidth: 1473
Flags: W
HStem: 470 49<221.295 332.233> 684 51<246.565 358.968>
VStem: 154 52<534.323 643.384> 375 49<561.386 667.251>
Fore
154 573 m 0
 154 662 243 735 318 735 c 256
 376 735 424 692 424 628 c 0
 424 538 335 470 262 470 c 0
 199 470 154 513 154 573 c 0
307 684 m 256
 260 684 206 644 206 583 c 0
 206 545 234 519 272 519 c 256
 331 519 375 573 375 618 c 0
 375 657 346 684 307 684 c 256
EndSplineSet
EndChar
StartChar: plusminus
Encoding: 177 177 115
Width: 632
VWidth: 1473
Flags: W
HStem: 0 56<106.691 542.309> 277 57<163.223 348 417 602.469>
Fore
605 312 m 0
 605 298 598 277 558 277 c 2
 405 277 l 1
 377 146 l 2
 371 119 359 106 341 106 c 0
 326 106 318 114 318 130 c 0
 318 134 319 140 320 146 c 2
 348 277 l 1
 193 277 l 2
 171 277 160 284 160 298 c 0
 160 312 169 334 205 334 c 2
 360 334 l 1
 389 471 l 2
 395 497 407 510 426 510 c 0
 441 510 448 502 448 487 c 0
 448 482 447 477 446 471 c 2
 417 334 l 1
 570 334 l 2
 593 334 605 326 605 312 c 0
104 21 m 0
 104 35 112 56 150 56 c 2
 511 56 l 2
 534 56 545 49 545 35 c 0
 545 21 537 0 499 0 c 2
 138 0 l 2
 115 0 104 7 104 21 c 0
EndSplineSet
EndChar
StartChar: twosuperior
Encoding: 178 178 116
Width: 453
VWidth: 1473
Flags: W
HStem: 280 51<229 443.287> 653 53<288.88 429.751>
VStem: 187 56<541.893 632.965> 448 55<550.919 633.904>
Fore
187 559 m 1
 187 559 210 706 384 706 c 0
 460 706 503 654 503 597 c 0
 503 570 493 516 427 471 c 2
 229 331 l 1
 429 331 l 2
 438 331 445 329 449 324 c 1
 454 306 l 1
 451 290 437 280 419 280 c 2
 150 280 l 2
 134 280 125 289 125 301 c 0
 125 327 145 333 252 406 c 2
 402 511 l 2
 428 530 448 557 448 587 c 0
 448 623 420 653 373 653 c 0
 288 653 258 617 243 560 c 0
 239 541 219 536 210 536 c 256
 197 536 187 548 187 559 c 1
EndSplineSet
EndChar
StartChar: threesuperior
Encoding: 179 179 117
Width: 441
VWidth: 1473
Flags: W
HStem: 280 54<251.881 366.571> 486 55<275.686 376.822> 656 53<285.763 418.389>
VStem: 163 53<351.867 410.158 406.638 413.677> 404 57<368.837 478.878> 428 55<554.959 644.345>
Fore
483 616 m 0xf4
 483 575 455 534 420 513 c 1
 453 496 461 466 461 440 c 0
 461 340 365 280 288 280 c 0
 241 280 163 313 163 387 c 0
 163 412 170 440 197 440 c 0
 212 440 219 434 219 421 c 0
 219 415 216 404 216 392 c 0
 216 346 271 334 299 334 c 0
 330 334 404 350 404 431 c 0xf8
 404 477 372 486 364 486 c 2
 295 486 l 2
 283 486 273 493 273 506 c 0
 273 524 288 541 307 541 c 2
 382 541 l 1
 412 546 428 583 428 605 c 0
 428 630 410 656 364 656 c 0
 324 656 270 644 259 594 c 0
 256 578 243 567 227 567 c 0
 216 567 206 576 206 589 c 0
 206 610 237 709 376 709 c 0
 449 709 483 662 483 616 c 0xf4
EndSplineSet
EndChar
StartChar: acute
Encoding: 180 180 118
Width: 318
VWidth: 1473
Flags: W
HStem: 569 153<286 371 371 371>
Fore
286 569 m 1
 240 569 l 1
 371 722 l 1
 458 722 l 1
 286 569 l 1
EndSplineSet
EndChar
StartChar: mu
Encoding: 181 181 119
Width: 702
VWidth: 1473
Flags: W
HStem: -283 21G<42 88> -7 57<256.921 432.556> 506 20G<216.5 231.5 687.5 704>
Fore
150 108 m 1
 92 -161 123 -283 53 -283 c 0
 31 -283 24 -269 24 -248 c 0
 24 -211 61 -110 97 60 c 2
 190 498 l 2
 193 515 209 526 224 526 c 256
 239 526 247 516 247 504 c 0
 247 502 246 500 246 498 c 1
 192 243 l 2
 188 226 186 209 186 194 c 0
 186 104 250 50 359 50 c 0
 498 50 582 119 612 258 c 2
 663 498 l 2
 667 517 678 526 697 526 c 0
 711 526 718 518 718 505 c 0
 718 503 717 501 717 498 c 1
 616 22 l 2
 612 3 601 -6 584 -6 c 0
 567 -6 562 5 562 15 c 0
 562 18 563 20 563 22 c 1
 578 93 l 1
 489 -7 379 -7 347 -7 c 0
 239 -7 170 30 150 108 c 1
EndSplineSet
EndChar
StartChar: paragraph
Encoding: 182 182 120
Width: 589
VWidth: 1473
Flags: W
HStem: 656 59<473 569.685>
VStem: 569 58<608.508 630 630 637.523 633.762 655.361>
Fore
177 469 m 0
 177 586 286 715 426 715 c 2
 566 715 l 2
 584 715 630 703 630 650 c 0
 630 642 629 634 627 625 c 2
 450 -209 l 2
 446 -226 429 -237 414 -237 c 256
 400 -237 391 -228 391 -216 c 0
 391 -214 391 -211 392 -209 c 1
 569 625 l 2
 570 628 570 632 570 635 c 0
 570 649 562 656 544 656 c 2
 473 656 l 1
 291 -202 l 2
 287 -219 272 -230 257 -230 c 0
 241 -230 234 -224 234 -211 c 0
 234 -209 234 -205 235 -202 c 2
 345 315 l 1
 339 315 l 0
 234 315 177 385 177 469 c 0
EndSplineSet
EndChar
StartChar: periodcentered
Encoding: 183 183 121
Width: 338
VWidth: 1473
Flags: W
HStem: 253 190<199.927 288.022>
VStem: 146 195<306.202 389.315>
Fore
146 328 m 0
 146 390 207 443 263 443 c 0
 311 443 341 410 341 368 c 0
 341 312 288 253 223 253 c 0
 180 253 146 283 146 328 c 0
EndSplineSet
EndChar
StartChar: cedilla
Encoding: 184 184 122
Width: 318
VWidth: 1473
Flags: W
HStem: -211 43<31.0933 156.07>
VStem: 165 62<-158.02 -89.5003>
Fore
102 -168 m 0
 140 -168 165 -149 165 -122 c 0
 165 -95 135 -79 100 -79 c 0
 96 -79 92 -80 88 -80 c 1
 163 6 l 1
 218 6 l 1
 160 -52 l 1
 185 -57 227 -73 227 -110 c 0
 227 -156 178 -211 92 -211 c 0
 58 -211 30 -202 12 -189 c 1
 49 -152 l 1
 56 -159 73 -168 102 -168 c 0
EndSplineSet
EndChar
StartChar: onesuperior
Encoding: 185 185 123
Width: 343
VWidth: 1473
Flags: W
HStem: 281 425
VStem: 190 172<631 686>
Fore
344 706 m 0
 358 706 362 697 362 686 c 0
 362 680 361 674 360 669 c 2
 284 309 l 2
 280 294 266 281 252 281 c 256
 238 281 230 290 230 302 c 0
 230 304 230 306 231 309 c 2
 301 639 l 1
 221 613 l 2
 217 611 213 610 210 610 c 0
 199 610 190 618 190 631 c 0
 190 647 201 655 212 661 c 1
 333 704 l 2
 337 705 341 706 344 706 c 0
EndSplineSet
EndChar
StartChar: ordmasculine
Encoding: 186 186 124
Width: 394
VWidth: 1473
Flags: W
HStem: 275 45<199.053 343.731> 583 45<245.743 389.718>
VStem: 110 51<356.27 496.773> 426 51<401.739 546.922>
Fore
110 409 m 0
 110 523 215 628 329 628 c 0
 424 628 477 569 477 492 c 0
 477 368 363 275 254 275 c 0
 171 275 110 327 110 409 c 0
321 583 m 0
 225 583 161 494 161 420 c 0
 161 355 211 320 265 320 c 0
 349 320 426 389 426 480 c 0
 426 534 395 583 321 583 c 0
EndSplineSet
EndChar
StartChar: guillemotright
Encoding: 187 187 125
Width: 441
VWidth: 1473
Flags: W
HStem: 57 437<269 359 359 359>
VStem: 81 379<78 275 78 78>
Fore
460 275 m 1
 290 69 l 2
 283 61 276 57 269 57 c 0
 257 57 247 67 247 79 c 0
 247 86 249 90 253 96 c 2
 407 275 l 1
 330 455 l 2
 329 459 327 463 328 468 c 0
 331 481 345 494 359 494 c 0
 363 494 374 493 377 482 c 2
 460 275 l 1
165 455 m 2
 157 471 175 494 194 494 c 0
 198 494 209 493 212 482 c 2
 295 275 l 1
 125 69 l 2
 118 61 111 57 104 57 c 0
 95 57 81 63 81 78 c 0
 81 85 85 91 88 96 c 1
 242 275 l 1
 165 455 l 2
EndSplineSet
EndChar
StartChar: onequarter
Encoding: 188 188 126
Width: 889
VWidth: 1473
Flags: W
HStem: -1 21G<758 774> 82 52<597 754 821 852.548> 610 21G<204.5 211.5>
Fore
780 703 m 1
 834 703 l 1
 234 -16 l 1
 180 -16 l 1
 780 703 l 1
344 706 m 0
 358 706 362 697 362 686 c 0
 362 680 361 674 360 669 c 2
 284 309 l 2
 280 294 266 281 252 281 c 256
 238 281 230 290 230 302 c 0
 230 304 230 306 231 309 c 2
 301 639 l 1
 221 613 l 2
 217 611 213 610 210 610 c 0
 199 610 190 618 190 631 c 0
 190 647 201 655 212 661 c 1
 333 704 l 2
 337 705 341 706 344 706 c 0
871 117 m 0
 871 92 852 82 838 82 c 2
 810 82 l 1
 798 25 l 2
 795 9 782 -1 766 -1 c 0
 750 -1 741 6 741 18 c 0
 741 21 742 23 742 25 c 1
 754 82 l 1
 526 82 l 0
 511 82 507 96 507 105 c 0
 507 113 512 120 518 125 c 2
 834 418 l 1
 842 423 850 426 857 426 c 0
 867 426 879 421 879 405 c 0
 879 403 878 401 878 398 c 1
 821 134 l 1
 849 134 l 2
 868 134 871 124 871 117 c 0
765 134 m 1
 807 330 l 1
 597 134 l 1
 765 134 l 1
EndSplineSet
LCarets2: 2 0 0 
Ligature2: "'frac' Diagonal Fractions in Latin lookup 0 subtable" one fraction four
Ligature2: "'frac' Diagonal Fractions in Latin lookup 0 subtable" one slash four
EndChar
StartChar: onehalf
Encoding: 189 189 127
Width: 888
VWidth: 1473
Flags: W
HStem: 0 52<631 854.492> 373 53<688.837 829.155>
VStem: 589 56<261.17 345.57> 848 56<286.748 354.122>
Fore
735 707 m 1
 791 707 l 1
 191 -12 l 1
 137 -12 l 1
 735 707 l 1
250 286 m 256
 233 286 228 297 228 307 c 0
 228 310 229 312 229 314 c 1
 299 644 l 1
 219 617 l 2
 215 616 212 615 208 615 c 0
 196 615 187 623 187 636 c 0
 187 652 198 660 210 666 c 2
 329 709 l 2
 333 710 336 710 339 710 c 0
 356 710 360 702 360 691 c 0
 360 685 359 679 358 673 c 2
 282 314 l 2
 279 299 265 286 250 286 c 256
857 34 m 0
 857 13 838 0 821 0 c 2
 551 0 l 2
 532 0 527 11 527 21 c 0
 527 50 550 54 654 126 c 2
 803 231 l 2
 838 257 848 285 848 307 c 0
 848 340 822 373 774 373 c 0
 691 373 660 339 645 280 c 0
 640 261 620 256 611 256 c 256
 597 256 589 270 589 281 c 1
 589 281 605 426 787 426 c 0
 861 426 904 375 904 317 c 0
 904 290 894 236 829 192 c 0
 819 186 681 85 631 52 c 1
 832 52 l 2
 852 52 857 43 857 34 c 0
EndSplineSet
LCarets2: 2 0 0 
Ligature2: "'frac' Diagonal Fractions in Latin lookup 0 subtable" one fraction two
Ligature2: "'frac' Diagonal Fractions in Latin lookup 0 subtable" one slash two
EndChar
StartChar: threequarters
Encoding: 190 190 128
Width: 886
VWidth: 1473
Flags: W
HStem: -4 21G<217 288.662 752 766.5> 85 52<593 750 817 864.797> 283 54<195.608 311.667> 489 55<239.641 340.878> 659 53<250.913 382.761>
VStem: 126 53<353.785 425.712 411.138 440.194> 368 57<372.95 473.517> 392 54<557.16 648.797>
Fore
816 715 m 1xfc
 871 715 l 1
 272 -4 l 1
 217 -4 l 1
 816 715 l 1xfc
182 424 m 0
 182 414 179 414 179 398 c 0
 179 349 231 337 264 337 c 0
 291 337 368 350 368 434 c 0xfe
 368 479 339 488 329 489 c 2
 259 489 l 2
 248 489 237 496 237 509 c 0
 237 527 252 544 271 544 c 2
 346 544 l 1
 375 549 392 582 392 607 c 0
 392 631 377 659 332 659 c 0
 290 659 234 647 223 597 c 0
 219 581 206 570 190 570 c 0
 179 570 170 579 170 591 c 0
 170 615 202 712 343 712 c 0
 417 712 446 659 446 615 c 0xfd
 446 575 418 535 384 516 c 1
 417 495 425 463 425 439 c 0xfe
 425 342 325 283 252 283 c 0
 202 283 126 316 126 390 c 0
 126 434 147 443 160 443 c 0
 175 443 182 437 182 424 c 0
867 120 m 0
 867 101 855 85 834 85 c 2
 806 85 l 1
 794 28 l 2
 791 12 774 1 759 1 c 256
 745 1 737 11 737 22 c 0
 737 24 738 26 738 28 c 1
 750 85 l 1
 525 85 l 2
 510 85 502 95 502 107 c 0
 502 120 510 125 513 128 c 2
 830 421 l 1
 838 426 845 429 852 429 c 0
 860 429 874 424 874 408 c 0
 874 406 874 404 873 401 c 2
 817 137 l 1
 845 137 l 2
 864 137 867 129 867 120 c 0
761 137 m 1
 803 333 l 1
 593 137 l 1
 761 137 l 1
EndSplineSet
LCarets2: 2 0 0 
Ligature2: "'frac' Diagonal Fractions in Latin lookup 0 subtable" three fraction four
Ligature2: "'frac' Diagonal Fractions in Latin lookup 0 subtable" three slash four
EndChar
StartChar: questiondown
Encoding: 191 191 129
Width: 615
VWidth: 1473
Flags: W
HStem: -233 55<178.822 385.921> 415 105<439.529 511.436>
VStem: 65 57<-127.257 31.0891> 422 108<433.164 502.655>
Fore
271 -233 m 0
 152 -233 65 -181 65 -70 c 0
 65 135 273 179 281 182 c 2
 312 191 l 2
 380 212 409 273 416 306 c 2
 422 334 l 2
 428 361 439 374 456 374 c 0
 471 374 478 366 478 351 c 0
 478 346 477 340 476 334 c 2
 470 306 l 2
 448 200 362 157 317 144 c 2
 276 131 l 2
 217 111 122 67 122 -59 c 0
 122 -153 204 -178 280 -178 c 0
 359 -178 426 -147 481 -84 c 1
 488 -78 495 -75 502 -75 c 0
 515 -75 527 -85 527 -97 c 0
 527 -133 433 -190 405 -204 c 0
 364 -223 319 -233 271 -233 c 0
530 481 m 0
 530 447 500 415 465 415 c 256
 438 415 422 433 422 457 c 0
 422 489 451 520 488 520 c 256
 513 520 530 505 530 481 c 0
EndSplineSet
EndChar
StartChar: Aring
Encoding: 197 197 134
Width: 726
VWidth: 1473
Flags: W
HStem: 0 21G<81 97 631 646.5> 666 56<376.327 625.519> 768 39<496.203 579.119> 902 41<507.212 590.006>
VStem: 455 38<811.796 886.467> 593 39<820.313 899.116> 705 58<447.511 448 464 464.938 465.754 480.525 473.139 586.979>
Fore
517 722 m 256
 728 722 769 602 769 518 c 0
 769 497 766 478 763 464 c 2
 673 40 l 2
 667 13 655 0 638 0 c 0
 624 0 617 7 617 23 c 0
 617 27 618 33 619 40 c 2
 680 330 l 1
 184 330 l 1
 123 40 l 2
 117 13 106 0 88 0 c 0
 74 0 67 7 67 23 c 0
 67 27 68 33 69 40 c 2
 158 462 l 2
 172 526 248 722 517 722 c 256
506 666 m 256
 288 666 224 519 212 461 c 2
 196 385 l 1
 692 385 l 1
 705 448 l 2
 708 462 712 481 712 503 c 0
 712 573 678 666 506 666 c 256
455 836 m 0
 455 887 503 943 564 943 c 0
 603 943 632 913 632 873 c 0
 632 814 574 768 527 768 c 0
 481 768 455 798 455 836 c 0
556 902 m 0
 524 902 493 877 493 844 c 0
 493 822 510 807 536 807 c 0
 566 807 593 833 593 866 c 0
 593 891 574 902 556 902 c 0
EndSplineSet
EndChar
StartChar: AE
Encoding: 198 198 135
Width: 1228
VWidth: 1473
Flags: W
HStem: -3 50<810.724 1010.06> 330 55<198 680 748 1098.28> 666 56<376.466 617.509 933.551 1138.08>
Fore
1101 365 m 0
 1101 351 1093 330 1054 330 c 2
 736 330 l 1
 721 259 l 2
 718 245 717 231 717 218 c 0
 717 139 775 47 913 47 c 0
 959 47 1091 52 1165 149 c 0
 1172 158 1183 163 1193 163 c 0
 1204 163 1214 156 1214 144 c 0
 1214 114 1128 -3 896 -3 c 0
 798 -3 720 45 688 113 c 1
 673 40 l 2
 667 13 655 0 638 0 c 0
 624 0 617 7 617 23 c 0
 617 27 618 33 619 40 c 2
 680 330 l 1
 185 330 l 1
 124 40 l 2
 118 13 106 0 88 0 c 0
 74 0 67 7 67 23 c 0
 67 27 68 33 69 40 c 2
 158 462 l 2
 172 526 248 722 517 722 c 0
 588 722 712 710 757 573 c 1
 824 662 942 722 1050 722 c 0
 1239 722 1306 633 1306 584 c 0
 1306 558 1284 552 1274 552 c 0
 1265 552 1256 556 1253 566 c 0
 1220 662 1092 667 1046 667 c 0
 893 667 786 565 766 470 c 2
 748 385 l 1
 1066 385 l 2
 1089 385 1101 378 1101 365 c 0
506 666 m 0
 288 666 226 519 214 461 c 2
 198 385 l 1
 692 385 l 1
 708 463 l 2
 710 476 711 488 711 499 c 0
 711 603 633 666 506 666 c 0
EndSplineSet
EndChar
StartChar: Eth
Encoding: 208 208 145
Width: 769
VWidth: 1473
Flags: W
HStem: 0 53<203.352 451.774> 334 49<82 161 225 411> 664 53<322.409 575.78>
VStem: 119 54<81.805 135.977 133.954 138 138 163.363> 728 55<312.501 527.694>
CounterMasks: 1 e0
Fore
783 442 m 0
 783 234 614 0 305 0 c 2
 271 0 l 2
 205 0 119 34 119 119 c 0
 119 128 120 138 122 149 c 2
 161 334 l 1
 72 334 l 1
 82 383 l 1
 171 383 l 1
 211 567 l 2
 230 657 316 717 423 717 c 2
 457 717 l 2
 661 717 783 610 783 442 c 0
175 147 m 2
 174 141 173 135 173 129 c 0
 173 74 233 53 282 53 c 2
 316 53 l 2
 533 53 728 207 728 427 c 0
 728 573 619 664 446 664 c 2
 412 664 l 2
 340 664 281 630 265 570 c 2
 225 383 l 1
 421 383 l 1
 411 334 l 1
 215 334 l 1
 175 147 l 2
EndSplineSet
EndChar
StartChar: multiply
Encoding: 215 215 152
Width: 589
VWidth: 1473
Flags: W
HStem: 43 414<124 213 213 213>
VStem: 103 486<64 435 64 64>
Fore
124 43 m 0
 111 43 103 56 103 64 c 0
 103 77 114 89 127 99 c 2
 308 250 l 1
 193 402 l 2
 185 411 180 419 180 427 c 0
 180 441 197 457 213 457 c 0
 222 457 231 452 240 442 c 2
 355 290 l 1
 533 442 l 2
 547 452 558 457 567 457 c 0
 580 457 589 444 589 435 c 0
 589 425 581 414 566 402 c 2
 386 250 l 1
 504 100 l 2
 511 91 515 83 515 76 c 0
 515 60 495 44 482 44 c 0
 473 44 464 49 455 60 c 2
 337 211 l 1
 158 59 l 2
 144 48 133 43 124 43 c 0
EndSplineSet
EndChar
StartChar: Oslash
Encoding: 216 216 153
Width: 798
VWidth: 1473
Flags: W
HStem: -7 57<294.76 528.362> 664 58<423.751 595.826>
VStem: 112 58<170.915 400.533> 781 59<312.809 541.25>
Fore
774 772 m 0
 782 772 793 765 793 753 c 0
 793 743 786 728 770 710 c 2
 737 667 l 1
 799 622 840 546 840 446 c 0
 840 225 666 -7 398 -7 c 0
 334 -7 279 6 235 32 c 1
 204 -7 l 2
 185 -31 170 -43 157 -43 c 0
 152 -43 138 -40 138 -26 c 0
 138 -15 146 -0 162 19 c 2
 196 62 l 1
 167 88 112 149 112 265 c 0
 112 489 290 722 552 722 c 0
 604 722 652 713 693 694 c 1
 727 737 l 2
 746 760 762 772 774 772 c 0
410 50 m 0
 639 50 781 251 781 434 c 0
 781 511 754 576 698 619 c 1
 273 82 l 1
 312 61 357 50 410 50 c 0
540 664 m 0
 316 664 170 468 170 276 c 0
 170 203 194 148 235 112 c 1
 652 642 l 1
 623 656 585 664 540 664 c 0
EndSplineSet
EndChar
StartChar: Thorn
Encoding: 222 222 159
Width: 636
VWidth: 1473
Flags: W
HStem: 177 43<193 502.219> 542 50<272 569.304>
VStem: 608 52<334.463 503.275>
Fore
660 439 m 0
 660 285 537 177 409 177 c 2
 184 177 l 1
 150 21 l 2
 145 -6 133 -19 115 -19 c 256
 102 -19 95 -11 95 5 c 0
 95 9 96 15 97 21 c 2
 240 691 l 2
 246 718 257 731 274 731 c 256
 288 731 295 723 295 708 c 0
 295 703 294 697 293 691 c 2
 272 592 l 1
 481 592 l 2
 562 592 660 560 660 439 c 0
424 220 m 2
 522 220 608 306 608 431 c 0
 608 518 549 542 492 542 c 2
 261 542 l 1
 193 220 l 1
 424 220 l 2
EndSplineSet
EndChar
StartChar: uni00DF
Encoding: 223 223 160
Width: 592
VWidth: 1473
Flags: W
HStem: 3 46<200.956 409.781> 451 45<304 473.214> 701 41<340.685 509.909>
VStem: 545 51<542.189 666.91> 554 49<196.479 368.608>
Fore
596 625 m 0xf0
 596 528 519 474 492 468 c 1
 558 438 603 386 603 303 c 0
 603 164 490 3 321 3 c 2
 210 3 l 2
 204 3 191 6 191 19 c 0
 191 31 202 49 219 49 c 2
 318 49 l 2
 465 49 554 184 554 285 c 0xe8
 554 386 478 451 388 451 c 2
 295 451 l 1
 304 496 l 1
 401 496 l 2
 475 496 545 519 545 610 c 0
 545 666 500 701 429 701 c 0
 307 701 277 615 263 551 c 2
 150 21 l 2
 148 8 136 -1 121 -1 c 0
 111 -1 98 8 100 21 c 2
 215 560 l 2
 234 649 303 742 433 742 c 0
 565 742 596 681 596 625 c 0xf0
EndSplineSet
EndChar
StartChar: ae
Encoding: 230 230 167
Width: 1103
VWidth: 1473
Flags: W
HStem: -7 50<181.894 394.669 716.935 920.422> 236 56<635 1060.69> 303 55<251.402 457.331> 471 58<270.387 512.58 786.169 999.558>
VStem: 78 54<86.5864 209.451> 546 74<135.075 234.087> 1070 60<296.882 412.194>
Fore
1130 358 m 0
 1130 279 1063 236 1022 236 c 2
 622 236 l 1
 621 224 620 212 620 200 c 0
 620 99 681 49 804 49 c 0
 892 49 960 80 1007 127 c 0
 1020 138 1033 143 1042 143 c 0
 1053 143 1060 136 1060 124 c 0
 1060 114 1055 99 1044 91 c 1
 984 29 900 -9 792 -9 c 0
 744 -9 630 -4 576 112 c 1
 470 -5 353 -7 296 -7 c 0
 109 -7 78 76 78 131 c 0
 78 220 156 358 382 358 c 0
 387 358 551 356 569 265 c 1
 578 294 582 316 582 340 c 0
 582 444 487 471 390 471 c 0
 274 471 212 421 184 421 c 0
 171 421 166 432 166 440 c 0
 166 449 172 461 191 471 c 0
 267 516 335 529 404 529 c 0
 550 529 613 477 635 393 c 1
 674 444 760 529 906 529 c 0
 1067 529 1130 433 1130 358 c 0
1033 292 m 2
 1055 292 1070 317 1070 350 c 0
 1070 404 1027 470 894 470 c 0
 770 470 670 398 635 292 c 1
 1033 292 l 2
367 303 m 0
 245 303 132 238 132 139 c 0
 132 67 218 43 307 43 c 0
 493 43 546 141 546 203 c 0
 546 250 512 303 367 303 c 0
EndSplineSet
EndChar
StartChar: eth
Encoding: 240 240 177
Width: 667
VWidth: 1473
Flags: W
HStem: -12 56<226.312 447.266> 460 57<315.839 520.854> 610 21G<435.235 495.108>
VStem: 91 57<117.523 295.994> 636 56<414.289 544.84>
Fore
380 734 m 0
 380 743 389 758 409 758 c 0
 441 758 514 730 554 700 c 1
 646 741 l 1
 669 704 l 1
 594 675 l 1
 626 650 692 583 692 456 c 0
 692 430 689 400 682 368 c 2
 607 15 l 2
 604 -2 590 -13 574 -13 c 256
 561 -13 553 -3 553 9 c 0
 553 11 554 13 554 15 c 1
 569 84 l 1
 500 16 419 -12 320 -12 c 0
 241 -12 91 30 91 188 c 0
 91 354 240 517 433 517 c 0
 569 517 625 449 636 414 c 1
 636 421 637 427 637 433 c 0
 637 570 557 633 536 647 c 1
 447 610 l 1
 427 644 l 1
 500 673 l 1
 471 692 439 704 389 717 c 1
 383 721 380 727 380 734 c 0
421 460 m 0
 263 460 148 332 148 202 c 0
 148 126 188 44 332 44 c 0
 552 44 607 222 607 300 c 0
 607 410 515 460 421 460 c 0
EndSplineSet
EndChar
StartChar: divide
Encoding: 247 247 184
Width: 742
VWidth: 1473
Flags: W
HStem: 50 103<364.125 430.375> 249 66<113.618 749.854> 414 105<443.05 507.906>
VStem: 347 99<65.573 136.336> 425 100<430.583 501.316>
Fore
425 454 m 0xe8
 425 479 449 519 486 519 c 0
 510 519 525 504 525 480 c 0
 525 445 497 414 464 414 c 256
 439 414 425 431 425 454 c 0xe8
347 89 m 0xf0
 347 118 372 153 409 153 c 0
 431 153 446 137 446 114 c 0
 446 81 420 50 385 50 c 256
 359 50 347 69 347 89 c 0xf0
109 276 m 0
 109 294 125 315 149 315 c 2
 727 315 l 2
 745 315 756 305 756 290 c 0
 756 267 732 249 713 249 c 2
 135 249 l 2
 120 249 109 261 109 276 c 0
EndSplineSet
EndChar
StartChar: oslash
Encoding: 248 248 185
Width: 639
VWidth: 1473
Flags: W
HStem: -7 48<287.128 423.411> 479 48<324.097 480.598>
VStem: 109 48<120.791 308.755> 596 46<217.174 394.231>
Fore
109 203 m 0
 109 353 245 527 433 527 c 0
 466 527 494 521 517 511 c 1
 551 561 l 2
 556 568 563 572 572 572 c 0
 583 572 589 564 589 555 c 0
 589 551 588 548 586 544 c 2
 553 494 l 1
 578 473 l 2
 588 464 642 409 642 312 c 0
 642 140 479 -7 319 -7 c 0
 282 -7 254 0 230 10 c 1
 194 -40 l 1
 190 -48 183 -52 176 -52 c 0
 165 -52 158 -45 158 -37 c 0
 158 -33 160 -28 163 -24 c 2
 199 31 l 1
 143 63 109 127 109 203 c 0
422 479 m 0
 255 479 157 330 157 208 c 0
 157 128 202 84 226 71 c 1
 488 467 l 1
 483 470 463 479 422 479 c 0
333 41 m 0
 480 41 596 185 596 311 c 0
 596 390 549 433 522 448 c 1
 258 53 l 1
 309 41 318 41 333 41 c 0
EndSplineSet
EndChar
StartChar: thorn
Encoding: 254 254 191
Width: 677
VWidth: 1473
Flags: W
HStem: -16 51<265.253 460.991> 482 57<368.691 548.788>
VStem: 634 53<214.761 398.263>
Fore
687 321 m 0
 687 158 551 -16 345 -16 c 0
 265 -16 182 27 168 99 c 1
 106 -193 l 2
 101 -218 89 -231 70 -231 c 256
 55 -231 48 -223 48 -208 c 0
 48 -204 49 -199 50 -193 c 2
 239 698 l 2
 245 724 257 737 276 737 c 256
 290 737 297 730 297 715 c 0
 297 710 296 704 295 698 c 2
 237 424 l 1
 275 472 368 539 472 539 c 0
 609 539 687 446 687 321 c 0
462 482 m 0
 349 482 186 382 186 197 c 0
 186 97 250 35 369 35 c 0
 550 35 634 214 634 310 c 0
 634 396 578 482 462 482 c 0
EndSplineSet
EndChar
StartChar: Lslash
Encoding: 321 321 193
Width: 671
VWidth: 1473
Flags: W
HStem: 0 53<175.978 652.638>
VStem: 113 58<59.2695 104.215 102.954 105.477 105.477 132.45>
Fore
654 32 m 0
 654 13 642 0 610 0 c 2
 212 0 l 2
 158 0 113 28 113 88 c 0
 113 97 114 107 116 118 c 2
 169 370 l 1
 84 324 l 1
 94 373 l 1
 179 417 l 1
 234 675 l 2
 240 700 252 713 271 713 c 0
 286 713 294 705 294 690 c 0
 294 686 293 681 292 675 c 2
 244 446 l 1
 376 523 l 1
 365 470 l 1
 234 398 l 1
 174 116 l 2
 172 109 171 101 171 95 c 0
 171 70 186 53 225 53 c 2
 621 53 l 2
 643 53 654 46 654 32 c 0
EndSplineSet
EndChar
StartChar: lslash
Encoding: 322 322 194
Width: 238
VWidth: 1473
Flags: W
HStem: -1 21G<112 128> 827 20G<290.5 306>
VStem: 79 246<301 471 703.46 1114.12>
Fore
325 471 m 1
 314 421 l 1
 225 373 l 1
 154 38 l 2
 149 12 137 -1 119 -1 c 256
 105 -1 99 6 99 21 c 0
 99 26 100 32 101 38 c 2
 167 346 l 1
 79 301 l 1
 89 349 l 1
 177 395 l 1
 265 807 l 2
 270 834 282 847 299 847 c 256
 313 847 320 839 320 823 c 0
 320 818 319 813 318 807 c 2
 235 421 l 1
 325 471 l 1
EndSplineSet
EndChar
StartChar: OE
Encoding: 338 338 195
Width: 1286
VWidth: 1473
Flags: W
HStem: -7 57<295.026 499.998 858.535 1066.26> 330 55<807 1157.28> 664 58<410.859 630.114 985.316 1197.83>
VStem: 113 55<169.681 400.794> 751 21<199 438>
Fore
113 266 m 0
 113 482 281 722 536 722 c 0
 713 722 774 610 794 544 c 1
 851 658 987 722 1109 722 c 0
 1316 722 1365 621 1365 582 c 0
 1365 558 1342 552 1333 552 c 0
 1324 552 1315 556 1312 566 c 0
 1279 662 1151 667 1105 667 c 0
 941 667 845 563 826 476 c 2
 807 385 l 1
 1125 385 l 2
 1148 385 1160 378 1160 365 c 0
 1160 351 1152 330 1113 330 c 2
 795 330 l 1
 776 239 l 2
 773 225 772 211 772 199 c 0
 772 138 809 47 972 47 c 0
 1018 47 1150 52 1224 149 c 0
 1230 157 1242 162 1252 162 c 0
 1263 162 1273 157 1273 144 c 0
 1273 108 1174 -7 955 -7 c 0
 872 -7 723 28 714 168 c 1
 639 67 527 -7 382 -7 c 0
 211 -7 113 108 113 266 c 0
524 664 m 0
 303 664 168 457 168 273 c 0
 168 124 270 50 394 50 c 0
 608 50 751 249 751 438 c 0
 751 574 667 664 524 664 c 0
EndSplineSet
EndChar
StartChar: oe
Encoding: 339 339 196
Width: 1152
VWidth: 1473
Flags: W
HStem: -9 58<743.279 961.784> 0 55<237.795 457.977> 236 56<676 1103.02> 476 54<323.017 532.283 842.43 1034.37>
VStem: 98 53<134.711 312.123> 1111 63<296.546 413.358>
Fore
1174 359 m 0x7c
 1174 271 1101 236 1074 236 c 2
 663 236 l 1
 662 226 661 216 661 206 c 0
 661 103 737 49 847 49 c 0
 959 49 1026 102 1051 127 c 0
 1063 138 1075 144 1084 144 c 0
 1095 144 1102 136 1102 123 c 0
 1102 110 1096 98 1086 91 c 1
 1026 30 942 -9 835 -9 c 0xbc
 705 -9 630 48 609 138 c 1
 524 12 384 0 329 0 c 0
 187 0 98 79 98 204 c 0
 98 324 186 530 442 530 c 0
 594 530 649 447 664 382 c 1
 704 439 798 529 952 529 c 0
 1118 529 1174 433 1174 359 c 0x7c
430 476 m 256
 261 476 151 347 151 216 c 0
 151 111 233 55 341 55 c 0x7c
 567 55 619 245 619 313 c 0
 619 416 541 476 430 476 c 256
1076 292 m 2
 1097 292 1111 319 1111 351 c 0
 1111 407 1064 471 940 471 c 0
 759 471 689 329 676 292 c 1
 1076 292 l 2
EndSplineSet
EndChar
StartChar: florin
Encoding: 402 402 202
Width: 525
VWidth: 1473
Flags: W
HStem: -153 85<20.7432 91.3623> 398 41<248 347 410 499> 681 53<533.791 605.086>
Fore
12 -117 m 0
 12 -102 23 -68 66 -68 c 0
 96 -68 81 -96 105 -96 c 1
 165 -63 206 69 225 109 c 2
 347 398 l 1
 228 398 l 1
 248 439 l 1
 361 439 l 1
 458 667 528 734 596 734 c 0
 621 734 642 714 642 695 c 0
 642 676 622 652 593 652 c 0
 566 652 567 681 549 681 c 0
 545 681 540 679 533 675 c 0
 472 635 462 549 410 438 c 1
 519 438 l 1
 499 396 l 1
 396 396 l 1
 388 378 352 287 320 214 c 2
 269 94 l 2
 215 -29 133 -153 57 -153 c 0
 22 -153 12 -134 12 -117 c 0
EndSplineSet
EndChar
StartChar: circumflex
Encoding: 710 710 203
Width: 472
VWidth: 1473
Flags: W
HStem: 682 158
VStem: 249 281<699 711 702 712 702 702>
Fore
530 712 m 0
 530 699 517 682 498 682 c 0
 491 682 484 684 480 689 c 2
 405 781 l 1
 287 689 l 2
 281 684 275 682 269 682 c 0
 255 682 249 691 249 702 c 0
 249 711 255 720 260 725 c 2
 394 829 l 2
 403 837 412 840 419 840 c 0
 426 840 432 837 437 829 c 1
 525 725 l 2
 528 721 530 717 530 712 c 0
EndSplineSet
EndChar
StartChar: caron
Encoding: 711 711 204
Width: 472
VWidth: 1473
Flags: W
HStem: 708 158
VStem: 277 281<842 852 835 847 835 835>
Fore
277 835 m 0
 277 852 292 866 308 866 c 0
 314 866 320 864 324 859 c 2
 402 768 l 1
 517 859 l 2
 523 864 530 866 537 866 c 0
 549 866 558 858 558 847 c 0
 558 842 557 833 546 824 c 2
 414 719 l 2
 405 712 397 708 390 708 c 0
 383 708 376 712 371 719 c 2
 281 824 l 2
 278 827 277 831 277 835 c 0
EndSplineSet
EndChar
StartChar: breve
Encoding: 728 728 205
Width: 441
VWidth: 1473
Flags: W
HStem: 619 48<299.945 436.359>
VStem: 225 52<690.323 762.465 761.977 762.954 762.954 778> 492 52<704.014 778>
Fore
363 667 m 0
 429 667 478 710 492 778 c 1
 544 778 l 1
 528 699 449 619 353 619 c 0
 276 619 225 675 225 746 c 0
 225 756 226 767 228 778 c 1
 280 778 l 1
 278 767 277 757 277 748 c 0
 277 698 308 667 363 667 c 0
EndSplineSet
EndChar
StartChar: dotaccent
Encoding: 729 729 206
Width: 232
VWidth: 1473
Flags: W
HStem: 628 106<224.679 296.296>
VStem: 207 108<646.875 716.088>
Fore
315 692 m 0
 315 657 281 628 249 628 c 256
 222 628 207 646 207 669 c 0
 207 705 238 734 272 734 c 256
 299 734 315 716 315 692 c 0
EndSplineSet
EndChar
StartChar: ring
Encoding: 730 730 207
Width: 409
VWidth: 1473
Flags: W
HStem: 591 42<307.492 383.833> 722 44<316.886 394.039>
VStem: 263 41<636.785 708.579> 397 42<646.497 718.704>
Fore
263 659 m 0
 263 709 311 766 372 766 c 0
 410 766 439 737 439 697 c 0
 439 640 386 591 335 591 c 0
 289 591 263 621 263 659 c 0
362 722 m 0
 336 722 304 700 304 670 c 0
 304 649 320 633 344 633 c 0
 367 633 397 659 397 686 c 0
 397 706 381 722 362 722 c 0
EndSplineSet
EndChar
StartChar: tilde
Encoding: 732 732 209
Width: 332
VWidth: 1473
Flags: W
HStem: 599 99<150 454 421 421> 599 51<316.518 408.172> 641 53<203.034 293.922>
VStem: 150 38<601.064 649.045>
Fore
375 650 m 0x50
 404 650 417 689 421 698 c 1
 454 698 l 1
 437 615 385 599 360 599 c 0x90
 316 599 264 641 241 641 c 0
 215 641 194 612 188 592 c 1
 150 592 l 1
 164 649 203 694 250 694 c 0x30
 284 694 349 650 375 650 c 0x50
EndSplineSet
EndChar
StartChar: uni0E01
Encoding: 3585 3585 212
Width: 717
VWidth: 1473
Flags: W
HStem: 0 21G<193.5 210.5 609.5 625.5> 541 57<374.611 605.859>
VStem: 177 57<1.79575 46.9375> 669 59<374.38 485.688>
Fore
177 26 m 0
 177 43 211 237 242 286 c 1
 202 309 l 2
 162 332 148 342 148 355 c 0
 148 356 149 365 150 367 c 2
 158 384 l 2
 179 430 280 598 504 598 c 0
 675 598 728 523 728 425 c 0
 728 401 725 375 719 348 c 2
 651 29 l 2
 648 15 634 0 617 0 c 256
 602 0 593 11 593 24 c 0
 593 25 594 27 594 29 c 1
 662 349 l 2
 666 370 669 391 669 411 c 0
 669 482 632 541 492 541 c 0
 402 541 289 510 214 376 c 1
 222 371 231 364 246 356 c 2
 283 334 l 1
 298 348 325 365 345 365 c 0
 363 365 366 350 366 341 c 0
 366 323 352 314 343 311 c 0
 279 285 275 222 258 152 c 2
 234 29 l 1
 234 15 219 0 202 0 c 0
 185 0 177 6 177 26 c 0
EndSplineSet
EndChar
StartChar: uni0E02
Encoding: 3586 3586 213
Width: 620
VWidth: 1473
Flags: W
HStem: -4 51<273.771 432.044> 390 52<197.692 291.297> 545 64<240.757 355.537>
VStem: 142 53<452.46 515.897> 189 59<71.8633 205.619> 323 53<471.797 529.642> 405 60<405.254 518.237>
Fore
376 523 m 0xee
 376 443 281 390 227 390 c 0
 176 390 142 424 142 468 c 0xf6
 142 543 238 609 342 609 c 0
 411 609 465 571 465 493 c 0
 465 308 248 291 248 129 c 0
 248 71 286 47 358 47 c 0
 401 47 501 51 525 162 c 2
 611 566 l 2
 614 580 628 595 645 595 c 256
 659 595 671 581 668 566 c 2
 582 162 l 2
 569 100 541 57 499 32 c 0
 457 8 406 -4 347 -4 c 256
 267 -4 189 22 189 120 c 0
 189 310 405 329 405 478 c 0
 405 500 399 527 374 539 c 1
 375 534 376 528 376 523 c 0xee
228 442 m 0
 278 442 323 482 323 510 c 0
 323 525 315 545 283 545 c 0
 237 545 195 505 195 478 c 0
 195 464 201 442 228 442 c 0
EndSplineSet
EndChar
StartChar: uni0E03
Encoding: 3587 3587 214
Width: 680
VWidth: 1473
Flags: W
HStem: -4 51<335.216 518.724> 337 52<200.834 279.164> 460 48<219.597 286.514> 547 50<234.155 338.877 428.295 492.899>
VStem: 137 51<393.346 450.877> 250 58<73.8383 210.089> 287 51<398.912 457.475> 500 56<460.235 536.881>
Fore
137 426 m 0xfb
 137 496 198 597 310 597 c 0
 328 597 366 594 394 563 c 1
 407 575 439 598 472 598 c 0
 502 598 556 583 556 517 c 0
 556 507 555 496 552 484 c 0
 513 301 308 292 308 131 c 0
 308 85 333 47 415 47 c 0
 526 47 571 94 586 165 c 2
 671 566 l 2
 674 580 688 595 705 595 c 256
 715 595 728 589 728 571 c 0
 728 568 728 565 727 561 c 2
 643 165 l 2
 622 64 553 -4 407 -4 c 256
 330 -4 250 22 250 118 c 0xfd
 250 199 287 264 359 320 c 2
 427 374 l 2
 470 408 500 464 500 501 c 0
 500 536 472 540 462 540 c 0
 440 540 423 522 416 510 c 1
 417 508 417 506 417 506 c 1
 416 503 419 503 417 494 c 0
 413 476 396 465 381 465 c 0
 370 465 359 472 359 488 c 0
 358 499 357 547 294 547 c 0
 251 547 216 516 209 498 c 1
 227 505 243 508 258 508 c 0
 296 508 338 487 338 441 c 0
 338 387 274 337 219 337 c 0
 154 337 137 386 137 426 c 0xfb
245 460 m 0
 202 460 188 435 188 418 c 0
 188 392 228 389 230 389 c 0
 257 389 287 404 287 433 c 0xfb
 287 451 273 460 245 460 c 0
EndSplineSet
EndChar
StartChar: uni0E04
Encoding: 3588 3588 215
Width: 692
VWidth: 1473
Flags: W
HStem: -1 21G<94.5 109.5 583.5 599> 215 52<377.937 468.93> 358 52<374.266 481.243> 539 58<345.108 583.434>
VStem: 309 52<274.011 313.3> 484 52<283.174 353.416> 645 58<374.453 485.291>
Fore
536 331 m 0
 536 280 488 215 403 215 c 0
 363 215 309 236 309 292 c 0
 309 299 310 306 312 314 c 1
 203 246 174 182 160 143 c 2
 136 28 l 2
 132 11 117 -1 102 -1 c 256
 87 -1 77 9 77 22 c 0
 77 24 78 26 78 28 c 1
 146 346 l 2
 188 547 356 597 484 597 c 0
 651 597 703 524 703 426 c 0
 703 400 700 374 694 346 c 2
 626 28 l 2
 622 11 607 -1 591 -1 c 256
 576 -1 568 9 568 22 c 0
 568 24 569 26 569 28 c 1
 637 348 l 2
 642 369 645 391 645 411 c 0
 645 480 609 539 472 539 c 0
 304 539 228 462 204 346 c 2
 187 270 l 1
 256 355 353 410 444 410 c 0
 498 410 536 377 536 331 c 0
433 358 m 0
 370 358 361 319 361 303 c 0
 361 274 396 267 414 267 c 0
 446 267 484 287 484 323 c 0
 484 338 475 358 433 358 c 0
EndSplineSet
EndChar
StartChar: uni0E05
Encoding: 3589 3589 216
Width: 693
VWidth: 1473
Flags: W
HStem: -4 21G<91.5 107.5 583.5 599.5> 212 52<374.411 465.411> 357 50<374.933 474.266> 461 53<440.964 527.191> 588 20G<348.5 408 604 633>
VStem: 306 52<270.508 310.776> 481 51<279.841 348.271> 670 58<482.574 503.023 503.023 508.523 505.773 536.577>
Fore
532 329 m 0
 532 250 453 212 399 212 c 0
 359 212 306 235 306 290 c 0
 306 297 306 304 308 311 c 1
 192 239 165 163 154 113 c 2
 135 25 l 2
 132 9 116 -4 99 -4 c 256
 84 -4 76 6 76 19 c 0
 76 21 77 23 77 25 c 1
 160 415 l 2
 193 570 316 608 381 608 c 0
 435 608 413 514 488 514 c 0
 565 514 578 605 630 605 c 0
 636 605 730 589 730 518 c 0
 730 512 730 506 728 499 c 2
 627 25 l 2
 624 9 608 -4 591 -4 c 256
 576 -4 568 6 568 19 c 0
 568 21 569 23 569 25 c 1
 670 499 l 2
 671 502 671 505 671 507 c 0
 671 534 640 541 624 545 c 1
 592 512 l 2
 542 462 496 461 475 461 c 0
 422 461 391 494 362 550 c 1
 316 544 241 523 218 415 c 2
 189 278 l 1
 244 344 339 407 441 407 c 0
 514 407 532 364 532 329 c 0
430 357 m 0
 406 357 358 341 358 300 c 0
 358 271 393 264 410 264 c 0
 453 264 481 293 481 316 c 0
 481 343 450 357 430 357 c 0
EndSplineSet
EndChar
StartChar: uni0E06
Encoding: 3590 3590 217
Width: 771
VWidth: 1473
Flags: W
HStem: -7 57<203.802 288.899 566.421 642.246> 205 56<230.089 303.956> 321 52<211.597 292.032> 443 54<241.073 289.594> 542 54<252.023 362.483 449.351 510.105>
VStem: 138 57<70.7436 168.859> 147 54<376.028 432.175> 300 51<382.291 440.068> 515 53<449.559 536.299>
Fore
138 93 m 0xfd80
 138 184 203 261 284 261 c 0
 306 261 323 255 337 247 c 1
 339 247 l 1
 345 277 l 2
 356 327 379 354 448 411 c 2
 479 436 l 2
 502 456 515 473 515 498 c 0
 515 524 498 540 477 540 c 0
 461 540 445 531 432 510 c 1
 434 507 433 492 433 492 c 1
 429 476 411 465 396 465 c 0
 384 465 375 471 374 486 c 0
 369 529 342 542 312 542 c 0
 278 542 225 519 220 482 c 1
 234 492 250 497 270 497 c 0
 307 497 351 472 351 425 c 0
 351 378 304 321 232 321 c 0
 173 321 147 364 147 414 c 0xfb80
 147 507 227 596 326 596 c 0
 365 596 391 580 407 564 c 1
 417 575 447 600 477 600 c 0
 511 600 568 571 568 510 c 0
 568 456 523 397 484 376 c 1
 418 327 406 297 402 277 c 2
 389 215 l 1
 413 192 510 60 566 52 c 0
 575 51 583 50 590 50 c 0
 632 50 656 65 678 168 c 2
 762 566 l 2
 765 580 782 595 798 595 c 256
 813 595 821 584 821 572 c 0
 821 570 820 568 820 566 c 1
 736 168 l 2
 707 35 647 -7 568 -7 c 2
 566 -7 l 2
 542 -7 510 -6 439 65 c 0
 422 82 409 97 397 112 c 2
 377 136 l 1
 365 80 323 -3 225 -3 c 0
 181 -3 138 25 138 93 c 0xfd80
258 443 m 0
 245 443 201 434 201 400 c 0
 201 379 225 373 243 373 c 0
 268 373 300 387 300 416 c 0
 300 437 278 443 258 443 c 0
273 205 m 0
 231 205 195 147 195 106 c 0xfd80
 195 84 202 52 243 52 c 0
 281 52 322 92 322 152 c 0
 322 197 292 205 273 205 c 0
EndSplineSet
EndChar
StartChar: uni0E07
Encoding: 3591 3591 218
Width: 552
VWidth: 1473
Flags: W
HStem: -8 58<285.829 412.597> 405 52<427.362 497.495> 548 52<425.645 515.949>
VStem: 112 59<179.329 331.503 312.677 350.328> 358 53<463.285 532.514> 534 55<487.483 541.127>
Fore
358 482 m 0
 358 550 426 600 493 600 c 0
 570 600 589 560 589 524 c 0
 589 516 588 509 587 502 c 2
 516 168 l 2
 504 118 488 81 468 57 c 0
 448 33 410 -8 344 -8 c 0
 245 -8 112 100 112 263 c 0
 112 320 120 357 154 357 c 256
 169 357 177 346 177 333 c 0
 177 325 171 306 171 276 c 0
 171 147 276 50 357 50 c 0
 418 50 443 104 459 168 c 2
 512 417 l 1
 490 407 463 405 451 405 c 0
 407 405 358 430 358 482 c 0
481 548 m 256
 446 548 411 527 411 493 c 0
 411 463 446 457 462 457 c 0
 493 457 534 476 534 511 c 0
 534 541 498 548 481 548 c 256
EndSplineSet
EndChar
StartChar: uni0E08
Encoding: 3592 3592 219
Width: 655
VWidth: 1473
Flags: W
HStem: -5 57<457.012 517.696> 194 52<282.457 354.586> 339 51<281.792 370.99> 539 58<331.729 561.015>
VStem: 213 53<252.88 322.811> 380 58<59.5432 160.734 152.367 169.102 169.102 217.812> 389 55<262.182 331.469> 610 59<387.337 496.196>
Fore
438 116 m 0xfd
 438 57 472 52 484 52 c 0
 505 52 539 61 550 115 c 2
 602 358 l 2
 607 383 610 404 610 424 c 0
 610 505 561 539 449 539 c 0
 363 539 298 512 251 471 c 0
 172 401 186 344 146 344 c 0
 133 344 121 354 121 367 c 0
 121 385 204 597 461 597 c 0
 568 597 669 563 669 433 c 0
 669 413 666 390 661 365 c 2
 607 115 l 2
 587 19 513 -5 473 -5 c 0
 426 -5 380 27 380 93 c 0xfd
 380 115 385 193 385 204 c 0
 385 210 384 214 383 218 c 1
 359 202 333 194 306 194 c 0
 261 194 213 222 213 274 c 0
 213 329 270 390 348 390 c 0
 436 390 444 320 444 284 c 0xfb
 444 268 443 284 443 244 c 0
 443 185 438 144 438 116 c 0xfd
337 339 m 256
 315 339 266 324 266 283 c 0
 266 253 300 246 317 246 c 0
 348 246 389 266 389 301 c 0xfb
 389 331 353 339 337 339 c 256
EndSplineSet
EndChar
StartChar: uni0E09
Encoding: 3593 3593 220
Width: 711
VWidth: 1473
Flags: W
HStem: -4 57<293.242 399.831 568.343 642.463> 187 50<168.146 232.876> 323 51<165.166 252.52> 544 57<319.206 545.624>
VStem: 101 52<242.942 309.553> 224 59<59.7835 111.895 102.766 121.024 121.024 133 133 149> 267 54<267.95 317.588> 510 52<52.0781 118.655> 647 59<387.286 490.991> 667 53<70.2418 169.735>
Fore
720 159 m 0xf940
 720 98 686 -6 591 -6 c 0
 526 -6 510 39 510 69 c 0
 510 77 511 84 513 88 c 1
 426 13 383 -4 336 -4 c 0
 278 -4 224 10 224 85 c 0xfd40
 224 99 226 115 230 133 c 2
 244 197 l 1
 227 190 209 187 189 187 c 0
 154 187 101 207 101 260 c 0
 101 317 158 374 229 374 c 0
 273 374 321 350 321 302 c 0xfb
 321 296 320 290 319 284 c 2
 287 133 l 2
 284 120 283 109 283 100 c 0
 283 64 303 53 348 53 c 0
 384 53 417 74 482 130 c 0
 552 190 568 221 613 231 c 1
 637 345 l 2
 643 374 647 400 647 422 c 0
 647 477 624 511 563 530 c 0
 532 539 496 544 455 544 c 0
 324 544 228 496 196 430 c 0
 190 416 176 410 164 410 c 0
 150 410 139 417 139 430 c 0
 139 455 219 601 467 601 c 0
 586 601 706 562 706 444 c 0xfd80
 706 424 703 384 695 345 c 2
 670 228 l 1
 706 224 720 196 720 159 c 0xf940
629 174 m 0
 597 174 562 135 562 95 c 0
 562 68 578 47 602 47 c 256
 635 47 667 87 667 127 c 0
 667 153 654 174 629 174 c 0
219 323 m 256
 186 323 153 303 153 271 c 0
 153 244 185 237 200 237 c 0
 235 237 267 261 267 289 c 0xfb
 267 316 237 323 219 323 c 256
EndSplineSet
EndChar
StartChar: uni0E0A
Encoding: 3594 3594 221
Width: 618
VWidth: 1473
Flags: W
HStem: -4 50<279.373 460.629> 390 52<197.406 272.383> 545 59<232.736 355.85 363 393.315>
VStem: 143 52<452.6 515.4> 190 59<73.9774 212.083> 323 54<488.622 534.109> 406 57<473.059 539.726> 559 57<303.375 320 320 334.328 334.328 351.023 342.676 416.423>
Fore
336 604 m 0xf7
 405 604 463 582 463 494 c 0
 463 486 463 478 462 470 c 1
 530 500 640 593 659 625 c 1
 661 631 670 650 692 650 c 256
 715 650 715 628 715 622 c 1
 711 600 645 540 613 514 c 2
 560 471 l 1
 596 445 622 423 622 369 c 0
 622 355 620 339 616 320 c 2
 584 168 l 2
 573 117 538 -4 354 -4 c 256
 275 -4 190 23 190 123 c 0xef
 190 311 406 326 406 483 c 0
 406 530 377 550 363 550 c 1
 372 545 377 536 377 524 c 0
 377 521 371 437 282 404 c 0
 262 394 243 390 227 390 c 0
 184 390 143 417 143 463 c 0
 143 548 234 604 336 604 c 0xf7
228 442 m 0
 278 442 323 482 323 510 c 0
 323 525 315 545 283 545 c 0
 237 545 195 505 195 478 c 0xf7
 195 464 201 442 228 442 c 0
365 46 m 0
 440 46 506 70 527 168 c 2
 559 320 l 2
 562 335 564 349 564 361 c 0
 564 398 547 419 510 439 c 1
 483 425 456 410 445 407 c 1
 433 382 418 361 399 342 c 2
 339 288 l 2
 279 235 249 195 249 133 c 0xef
 249 72 292 46 365 46 c 0
EndSplineSet
EndChar
StartChar: uni0E0B
Encoding: 3595 3595 222
Width: 682
VWidth: 1473
Flags: W
HStem: -4 50<341.253 521.284> 323 51<200.641 278.635> 445 44<219.214 286.255> 548 49<242.199 340.194 432.229 495.278>
VStem: 133 55<378.569 462.092> 252 59<76.0059 213.423> 287 51<383.804 442.55> 503 55<491 502.023 469.488 537.604> 627 57<325.635 353.023 353.023 356.523 354.773 420.512>
Fore
133 412 m 0xfb80
 133 494 202 597 313 597 c 0
 331 597 369 594 397 563 c 1
 410 575 442 598 475 598 c 0
 530 598 560 562 560 513 c 0
 560 506 559 499 558 491 c 1
 570 491 706 595 721 628 c 0
 734 653 749 653 755 653 c 256
 770 653 779 643 779 631 c 0
 779 608 718 552 676 517 c 2
 623 474 l 1
 668 446 687 412 687 371 c 0
 687 362 686 352 684 342 c 2
 647 169 l 2
 618 31 513 -4 417 -4 c 256
 342 -4 252 23 252 122 c 0xfd80
 252 159 268 230 310 272 c 0
 383 350 503 409 503 500 c 0
 503 528 486 541 467 541 c 0
 450 541 431 530 419 510 c 1
 420 508 420 506 420 506 c 1
 419 503 422 503 420 494 c 0
 416 476 399 465 384 465 c 0
 373 465 362 472 362 488 c 0
 358 536 325 548 299 548 c 0
 256 548 209 504 202 471 c 1
 234 489 255 489 261 489 c 0
 304 489 338 464 338 425 c 0
 338 371 274 323 219 323 c 0
 159 323 133 363 133 412 c 0xfb80
549 446 m 1
 480 298 311 281 311 132 c 0
 311 64 367 46 425 46 c 0
 531 46 574 95 590 169 c 2
 627 342 l 2
 629 350 629 357 629 364 c 0
 629 411 596 443 549 446 c 1
245 445 m 0
 202 445 188 420 188 403 c 0
 188 377 224 374 229 374 c 0
 259 374 287 392 287 419 c 0xfb80
 287 436 273 445 245 445 c 0
EndSplineSet
EndChar
StartChar: uni0E0C
Encoding: 3596 3596 223
Width: 1032
VWidth: 1473
Flags: W
HStem: -4 51<242.899 332.842 532.834 594.831 790.502 885.246> 133 50<272.721 330.633> 177 57<551.51 607.997> 539 58<373.702 606.575>
VStem: 188 52<50.8952 105.15> 344 51<60.3524 128.304> 469 58<53.9023 151.823> 669 60<373.813 484.444>
Fore
469 80 m 0xdf
 469 153 526 234 601 234 c 0xbf
 627 234 630 224 636 224 c 1
 662 348 l 2
 667 369 669 390 669 409 c 0
 669 481 631 539 492 539 c 0
 400 539 286 507 213 374 c 1
 217 371 222 368 230 364 c 2
 274 338 l 2
 279 335 282 333 283 333 c 1
 297 346 325 364 344 364 c 0
 363 364 366 347 366 338 c 0
 366 325 355 313 343 309 c 0
 287 290 276 228 270 204 c 2
 264 174 l 1
 278 180 294 183 312 183 c 0
 360 183 395 155 395 110 c 0
 395 48 339 -4 272 -4 c 256
 222 -4 188 25 188 69 c 0
 188 76 188 83 190 90 c 2
 192 102 l 2
 193 111 195 122 198 135 c 2
 207 180 l 2
 219 234 230 265 241 284 c 1
 170 327 l 2
 151 339 147 348 147 354 c 0
 147 358 150 364 150 365 c 1
 157 383 l 2
 179 428 280 597 504 597 c 0
 666 597 729 530 729 426 c 0
 729 403 726 378 720 352 c 2
 683 178 l 1
 685 178 774 53 832 53 c 0
 862 53 886 59 913 98 c 0
 924 111 931 131 937 158 c 2
 1024 569 l 2
 1027 584 1044 597 1060 597 c 0
 1076 597 1083 591 1083 578 c 0
 1083 576 1083 572 1082 569 c 2
 995 158 l 2
 980 88 932 -4 820 -4 c 0
 784 -4 734 8 664 102 c 1
 649 51 615 -4 555 -4 c 0
 484 -4 469 42 469 80 c 0xdf
586 177 m 0
 563 177 527 136 527 91 c 0
 527 68 539 51 562 51 c 0
 598 51 618 103 618 137 c 0
 618 169 600 177 586 177 c 0
301 133 m 256xdf
 261 133 240 103 240 80 c 0
 240 59 258 47 283 47 c 0
 314 47 344 68 344 99 c 0
 344 126 315 133 301 133 c 256xdf
EndSplineSet
EndChar
StartChar: uni0E0D
Encoding: 3597 3597 224
Width: 1076
VWidth: 1473
Flags: W
HStem: -260 55<716.851 842.099> -97 51<634.592 711.308> -6 53<254.89 334.278 710.792 904.024> 131 51<274.768 332.862> 539 58<375.467 608.539>
VStem: 189 53<50.9094 106.233> 346 51<60.306 126.36> 557 52<-168.899 -108.918> 618 58<78.2034 154.58> 670 60<371.44 485.371> 715 53<-164.662 -101.494>
Fore
397 109 m 0xff40
 397 44 338 -6 275 -6 c 0
 234 -6 189 22 189 70 c 0
 189 84 218 242 243 284 c 1
 171 327 l 2
 156 336 149 342 149 351 c 0
 149 357 151 358 153 365 c 2
 160 383 l 2
 182 432 282 597 506 597 c 0
 677 597 730 523 730 424 c 0xff40
 730 399 727 373 721 346 c 2
 690 202 l 2
 681 174 676 150 676 131 c 0
 676 72 720 53 807 53 c 0
 953 53 970 115 990 205 c 2
 1067 569 l 2
 1070 584 1085 597 1102 597 c 256
 1118 597 1129 584 1126 569 c 2
 1049 206 l 2
 1026 101 990 -4 795 -4 c 0
 650 -4 618 49 618 109 c 0xff80
 618 135 624 162 629 187 c 2
 663 348 l 2
 668 369 670 390 670 410 c 0
 670 484 630 539 494 539 c 0
 331 539 247 439 215 374 c 1
 221 370 284 333 285 333 c 1
 292 339 323 364 346 364 c 0
 361 364 369 353 369 341 c 0
 369 328 360 315 344 309 c 0
 287 288 277 229 265 172 c 1
 279 179 297 182 319 182 c 0
 370 182 397 150 397 109 c 0xff40
304 131 m 0
 272 131 242 110 242 79 c 0
 242 54 269 47 286 47 c 256
 312 47 346 66 346 97 c 0
 346 124 318 131 304 131 c 0
987 -82 m 0
 987 -107 930 -260 731 -260 c 0
 657 -260 557 -233 557 -157 c 0
 557 -90 626 -47 679 -46 c 0
 730 -46 768 -76 768 -119 c 0
 768 -175 719 -201 715 -205 c 1xff20
 727 -205 l 0
 827 -205 904 -170 929 -87 c 0
 936 -69 952 -61 964 -61 c 0
 977 -61 987 -68 987 -82 c 0
670 -97 m 0xff40
 653 -97 609 -109 609 -144 c 0
 609 -170 643 -175 655 -175 c 0
 675 -175 715 -163 715 -133 c 0xff20
 715 -111 698 -97 670 -97 c 0xff40
EndSplineSet
Substitution2: "Single Substitution lookup 22 subtable" uni0E0D.alt1
Substitution2: "Single Substitution lookup 22 subtable" uni0E0D.alt1
EndChar
StartChar: uni0E0E
Encoding: 3598 3598 225
Width: 730
VWidth: 1473
Flags: W
HStem: -318 50<176.381 281.965> -190 52<188.044 276.26> -4 51<122.968 199.606> 133 50<123.25 194.145> 539 58<386.896 616.733>
VStem: 58 53<51.1756 120.956> 105 52<-260.283 -204.415> 681 60<367.127 481.031>
Fore
105 -245 m 0xfb
 105 -185 171 -138 245 -138 c 0
 275 -138 297 -143 317 -150 c 1
 325 -113 l 2
 327 -94 346 -82 362 -82 c 0
 374 -82 385 -90 384 -108 c 1
 382 -115 385 -108 370 -174 c 1
 424 -207 l 1
 468 -239 l 1
 476 -248 488 -255 493 -258 c 1
 509 -246 552 -208 562 -183 c 1
 675 348 l 2
 679 368 681 387 681 405 c 0
 681 487 632 539 505 539 c 0
 364 539 269 460 226 374 c 1
 231 371 237 368 243 364 c 2
 266 349 l 1
 295 333 l 1
 320 354 342 364 357 364 c 0
 374 364 379 351 379 341 c 0
 379 331 374 317 356 309 c 0
 333 301 300 275 290 227 c 0
 252 80 265 94 256 75 c 1
 249 43 214 -4 142 -4 c 0
 96 -4 58 21 58 69 c 0xfd
 58 132 117 183 181 183 c 0
 192 183 205 182 219 177 c 1
 219 180 242 265 254 284 c 1
 179 326 160 338 160 354 c 0
 160 358 162 364 163 365 c 1
 171 383 l 2
 193 431 293 597 517 597 c 0
 671 597 741 526 741 414 c 0
 741 393 738 370 733 346 c 2
 619 -187 l 2
 603 -240 513 -319 486 -319 c 0
 472 -319 467 -318 425 -287 c 2
 351 -228 l 1
 338 -269 312 -318 206 -318 c 0
 162 -318 105 -295 105 -245 c 0xfb
171 133 m 256
 139 133 111 112 111 80 c 0
 111 54 135 47 153 47 c 256
 199 47 210 82 210 101 c 0
 210 126 188 133 171 133 c 256
234 -190 m 0
 219 -190 157 -198 157 -234 c 0xfb
 157 -261 200 -268 217 -268 c 0
 266 -268 296 -242 296 -223 c 0
 296 -197 252 -190 234 -190 c 0
EndSplineSet
Substitution2: "Single Substitution lookup 22 subtable" uni0E0E.alt1
Substitution2: "Single Substitution lookup 22 subtable" uni0E0E.alt1
EndChar
StartChar: uni0E0F
Encoding: 3599 3599 226
Width: 730
VWidth: 1473
Flags: W
HStem: -315 50<107.265 193.402> -187 51<117.396 196.766> -4 51<122.968 200.1> 133 50<123.25 194.145> 539 58<386.84 616.025>
VStem: 34 53<-256.93 -200.436> 58 53<51.1756 120.956> 683 57<366.803 480.763>
Fore
307 -107 m 0xfd
 307 -129 298 -157 293 -190 c 1
 304 -206 l 2
 317 -223 318 -235 331 -252 c 1
 340 -245 352 -236 365 -222 c 2
 406 -183 l 2
 416 -175 423 -172 430 -172 c 0
 445 -172 448 -180 455 -192 c 2
 471 -214 l 2
 483 -234 494 -244 498 -252 c 1
 505 -247 533 -230 561 -186 c 1
 678 360 l 0
 681 373 683 389 683 406 c 0
 683 467 652 539 505 539 c 0
 364 539 269 460 226 374 c 1
 231 371 237 368 243 364 c 2
 266 349 l 1
 295 333 l 1
 320 354 342 364 357 364 c 0
 374 364 379 351 379 341 c 0
 379 331 374 317 356 309 c 0
 334 301 301 276 290 227 c 0
 257 97 265 109 262 96 c 0
 253 53 214 -4 142 -4 c 0
 96 -4 58 21 58 69 c 0xfb
 58 132 117 183 181 183 c 0
 192 183 205 182 219 177 c 1
 227 198 231 246 254 284 c 1
 179 326 160 338 160 354 c 0
 160 358 162 364 163 365 c 1
 171 383 l 2
 192 429 293 597 517 597 c 0
 671 597 740 526 740 414 c 0
 740 393 738 370 733 346 c 2
 617 -197 l 2
 612 -220 526 -312 488 -312 c 0
 472 -312 455 -298 416 -245 c 1
 363 -290 l 2
 344 -306 329 -316 322 -316 c 0
 320 -316 318 -315 312 -315 c 0
 297 -315 285 -270 264 -252 c 1
 227 -309 168 -315 138 -315 c 0
 93 -315 34 -292 34 -241 c 0
 34 -178 105 -136 176 -136 c 0
 201 -136 223 -141 242 -152 c 1
 247 -128 l 2
 249 -114 250 -80 284 -80 c 0
 301 -80 307 -90 307 -107 c 0xfd
171 133 m 256
 139 133 111 112 111 80 c 0
 111 54 135 47 153 47 c 256
 199 47 210 82 210 101 c 0
 210 126 188 133 171 133 c 256
165 -187 m 0
 148 -187 87 -195 87 -231 c 0xfd
 87 -258 131 -265 149 -265 c 0
 191 -265 226 -244 226 -220 c 0
 226 -194 180 -187 165 -187 c 0
EndSplineSet
Substitution2: "Single Substitution lookup 22 subtable" uni0E0F.alt1
Substitution2: "Single Substitution lookup 22 subtable" uni0E0F.alt1
EndChar
StartChar: uni0E10
Encoding: 3600 3600 227
Width: 646
VWidth: 1473
Flags: W
HStem: -317 52<93.2564 179.525> -205 52<421.23 469.003> -189 52<103.386 186.272> -88 51<418.887 490.925> -5 57<418.619 492.688> 137 52<232.771 305.378> 281 52<245.927 336.818> 363 58<205.37 440.529> 382 57<242.487 542.966> 560 57<320.147 584.536>
VStem: 21 52<-256.799 -202.471> 147 58<422.902 477.921> 164 53<195.098 266.751> 237 57<-111.906 -83.1498> 340 58<60.3652 78 78 157.904 208.874 272.893> 359 53<-150.463 -96.8158> 502 55<-146.285 -91.4141> 577 58<266.242 293.023 293.023 295.477 294.25 350.607> 648 60<471 511.42>
Fore
445 560 m 0x9f76e0
 290 560 205 471 205 443 c 0
 205 431 216 421 243 421 c 0x9f76e0
 299 421 375 439 448 439 c 0
 601 439 638 371 638 311 c 0
 638 300 637 290 635 280 c 2
 602 125 l 2
 586 51 520 -5 435 -5 c 0
 379 -5 344 29 344 78 c 0
 341 121 343 130 340 164 c 1
 313 146 286 137 257 137 c 0
 205 137 164 169 164 217 c 0
 164 286 238 333 299 333 c 0
 390 333 398 259 398 220 c 2
 398 208 l 2
 403 92 394 72 422 59 c 0
 430 54 440 52 450 52 c 0
 465 52 530 59 544 125 c 2
 577 283 l 2
 579 290 579 297 579 303 c 0
 579 365 506 382 439 382 c 0x9eeee0
 386 382 286 363 237 363 c 0
 161 363 147 402 147 430 c 0
 147 513 279 617 457 617 c 0
 669 617 708 524 708 489 c 0
 708 465 688 453 671 453 c 0
 660 453 650 458 648 471 c 0
 642 537 540 560 445 560 c 0x9f76e0
21 -243 m 0
 21 -180 91 -137 163 -137 c 0xbe65e0
 187 -137 209 -142 228 -153 c 1
 237 -112 l 1
 238 -110 237 -108 237 -106 c 1
 241 -91 258 -80 273 -80 c 0
 288 -80 294 -89 294 -106 c 0
 294 -118 291 -134 287 -154 c 2
 279 -192 l 1
 285 -199 292 -209 301 -222 c 2
 317 -252 l 1
 339 -232 l 2
 351 -220 358 -210 368 -210 c 0
 390 -210 413 -253 438 -268 c 1
 450 -258 468 -233 481 -197 c 1
 467 -202 454 -205 441 -205 c 0
 409 -205 359 -189 359 -139 c 0
 359 -93 406 -37 474 -37 c 0
 536 -37 558 -83 557 -116 c 0
 538 -251 473 -316 439 -316 c 0
 421 -316 380 -294 359 -271 c 1xde65e0
 329 -308 312 -321 303 -321 c 0
 285 -321 272 -280 251 -253 c 1
 213 -310 153 -317 125 -317 c 0
 80 -317 21 -295 21 -243 c 0
288 281 m 0
 264 281 217 270 217 226 c 0
 217 195 250 189 268 189 c 0
 303 189 340 212 340 247 c 0x9e6ee0
 340 271 318 281 288 281 c 0
464 -88 m 0
 441 -88 412 -104 412 -128 c 0
 412 -148 436 -153 450 -153 c 0xde65e0
 467 -153 502 -145 502 -115 c 0
 502 -94 475 -88 464 -88 c 0
152 -189 m 256xbe64e0
 132 -189 73 -198 73 -232 c 0
 73 -258 119 -265 136 -265 c 0
 174 -265 212 -245 212 -221 c 0
 212 -194 168 -189 152 -189 c 256xbe64e0
EndSplineSet
Substitution2: "Single Substitution lookup 22 subtable" uni0E10.alt1
Substitution2: "Single Substitution lookup 22 subtable" uni0E10.alt1
EndChar
StartChar: uni0E11
Encoding: 3601 3601 228
Width: 835
VWidth: 1473
Flags: W
HStem: -4 57<312.953 389.757> 333 52<201.692 278.749> 455 51<230.778 276.97> 542 55<236.276 358.208 443.972 482.088 714.322 797.561>
VStem: 136 54<388.69 445.555> 253 58<53.6296 118.569> 287 54<394.929 451.944> 371 59<467.366 487.5 477.433 522.409 517.115 527.702> 491 55<448.511 540.419> 803 59<448.642 454 465 469.256 469.911 479.328 474.62 535.454>
Fore
136 418 m 0xfbc0
 136 539 246 597 320 597 c 0
 356 597 384 584 402 569 c 1
 436 594 462 595 471 595 c 0
 531 595 546 550 546 518 c 0
 546 472 515 397 437 357 c 0
 363 313 348 278 336 222 c 2
 315 121 l 2
 312 109 311 97 311 88 c 0
 311 67 318 53 338 53 c 0
 364 53 395 55 430 147 c 258
 459 221 l 2
 485 285 571 453 643 530 c 0
 685 575 726 597 771 597 c 0
 807 597 867 582 867 506 c 0
 867 494 865 480 862 465 c 2
 767 21 l 2
 764 4 747 -7 733 -7 c 256
 718 -7 709 3 709 15 c 0
 709 17 710 19 710 21 c 1
 803 454 l 2
 804 463 810 476 810 499 c 0
 810 538 784 539 763 539 c 0
 663 539 539 270 512 208 c 2
 484 137 l 2
 435 9 370 -4 326 -4 c 0
 294 -4 253 20 253 83 c 0xfdc0
 253 94 254 107 257 121 c 2
 278 222 l 2
 291 282 318 346 416 399 c 0
 474 430 491 488 491 510 c 0
 491 534 474 542 459 542 c 0
 441 542 427 532 427 526 c 0
 427 521 430 518 430 508 c 0
 430 472 404 464 394 463 c 0
 379 463 370 471 370 483 c 0
 370 488 371 487 371 492 c 0
 371 529 324 542 292 542 c 0
 269 542 224 535 214 495 c 1
 231 502 247 506 262 506 c 0
 307 506 341 478 341 439 c 0
 341 397 298 333 221 333 c 0
 182 333 136 354 136 418 c 0xfbc0
247 455 m 0
 230 455 190 446 190 414 c 0
 190 392 217 385 232 385 c 0
 256 385 287 400 287 428 c 0xfbc0
 287 449 264 455 247 455 c 0
EndSplineSet
EndChar
StartChar: uni0E12
Encoding: 3602 3602 229
Width: 1054
VWidth: 1473
Flags: W
HStem: -9 59<196.021 326.125 563.89 603.964 807.283 907.449> 172 59<568.22 637.404> 217 51<351.409 424.416> 361 51<366.888 447.47> 454 53<450.7 534.406> 581 20G<353.5 402 624 664.5 1073 1088>
VStem: 110 58<72.6506 190.438> 282 54<274.107 345.146> 458 58<284.669 346.598> 490 58<53.5542 133.286>
Fore
490 76 m 0xbf40
 490 162 554 231 621 231 c 0xdf40
 636 231 648 227 658 220 c 1
 716 492 l 2
 718 514 681 529 641 539 c 1
 573 464 516 454 489 454 c 0
 458 454 400 467 361 544 c 1
 287 534 235 495 219 417 c 2
 178 228 l 2
 171 197 168 170 168 149 c 0
 168 60 217 44 254 44 c 0
 350 44 429 158 444 229 c 2
 446 242 l 1
 430 225 406 217 375 217 c 0
 344 217 282 233 282 293 c 0
 282 364 355 412 418 412 c 0
 440 412 516 406 516 320 c 0xbf80
 516 242 474 128 396 53 c 0
 354 16 297 -13 241 -13 c 0
 184 -13 110 15 110 138 c 0
 110 164 113 194 120 228 c 2
 159 408 l 2
 191 570 327 601 380 601 c 0
 424 601 430 507 500 507 c 0
 562 507 601 598 647 598 c 0
 682 598 776 566 776 510 c 0
 776 506 776 503 775 499 c 2
 706 174 l 1
 719 158 786 50 854 50 c 0
 903 50 941 77 958 155 c 2
 1045 566 l 2
 1048 581 1065 594 1081 594 c 256
 1095 594 1104 583 1104 571 c 0
 1104 570 1103 568 1103 566 c 1
 1016 155 l 2
 996 59 939 -7 842 -7 c 0
 795 -7 755 13 688 91 c 1
 660 3 592 -9 571 -9 c 0
 537 -9 490 12 490 76 c 0xbf40
607 172 m 0
 556 172 548 101 548 88 c 0
 548 52 580 50 585 50 c 0
 609 50 639 87 639 136 c 0
 639 160 629 172 607 172 c 0
407 361 m 0
 385 361 336 349 336 305 c 0
 336 275 367 268 387 268 c 0
 430 268 458 298 458 323 c 0xbf80
 458 338 449 361 407 361 c 0
EndSplineSet
EndChar
StartChar: uni0E13
Encoding: 3603 3603 230
Width: 1106
VWidth: 1473
Flags: W
HStem: -6 53<254.89 334.278 686.1 790.639 958.292 1031.41> 131 51<274.768 332.862> 174 426<999.5 1119> 539 58<375.467 605.611>
VStem: 189 53<50.9094 106.233> 346 51<60.306 126.36> 615 58<61.2956 135.724> 671 57<368.119 478.426> 899 53<51.7148 115.627 81.5 87> 1056 52<70.9025 170.258>
Fore
397 109 m 0xddc0
 397 44 338 -6 275 -6 c 0
 234 -6 189 22 189 70 c 0
 189 84 218 242 243 284 c 1
 171 327 l 2
 156 336 149 342 149 351 c 0
 149 357 151 358 153 365 c 2
 160 383 l 2
 182 432 282 597 506 597 c 0
 613 597 728 559 728 417 c 0xddc0
 728 395 726 371 720 345 c 2
 678 146 l 2
 675 131 673 119 673 108 c 0xdec0
 673 55 710 53 740 53 c 0
 787 53 851 108 876 132 c 2
 914 168 l 2
 949 199 956 217 1005 233 c 1
 1076 570 l 2
 1080 587 1096 600 1112 600 c 256
 1126 600 1134 589 1134 577 c 0
 1134 574 1133 572 1133 570 c 1
 1060 228 l 1
 1091 213 1108 181 1108 143 c 0
 1108 73 1052 -6 973 -6 c 0
 941 -6 899 21 899 76 c 0
 899 80 900 83 900 87 c 1
 809 3 759 -4 728 -4 c 0xadc0
 660 -4 615 20 615 96 c 0xaec0
 615 114 618 134 623 158 c 2
 667 365 l 2
 670 378 671 392 671 406 c 0
 671 468 638 539 494 539 c 0
 331 539 247 439 215 374 c 1
 221 370 284 333 285 333 c 1
 292 339 323 364 346 364 c 0
 361 364 369 353 369 341 c 0
 369 328 360 315 344 309 c 0
 287 288 277 229 265 172 c 1
 279 179 297 182 319 182 c 0
 370 182 397 150 397 109 c 0xddc0
304 131 m 0
 272 131 242 110 242 79 c 0
 242 54 269 47 286 47 c 256
 312 47 346 66 346 97 c 0
 346 124 318 131 304 131 c 0
1018 174 m 0xacc0
 981 174 952 128 952 95 c 0
 952 68 967 47 991 47 c 256
 1024 47 1056 87 1056 127 c 0
 1056 153 1043 174 1018 174 c 0xacc0
EndSplineSet
EndChar
StartChar: uni0E14
Encoding: 3604 3604 231
Width: 743
VWidth: 1473
Flags: W
HStem: -4 60<229.769 370.897> 217 54<383.951 454.904> 367 53<385.578 486.899> 558 58<390.838 601.967>
VStem: 117 61<111.357 327.372> 311 55<277.66 348.006> 493 75<234.733 342.492> 505 63<182.37 253> 682 62<331.464 337 348 376.109 376.109 390.418 383.264 480.167>
Fore
311 300 m 0xfd80
 311 358 374 420 449 420 c 0
 495 420 549 412 565 326 c 0
 567 314 568 302 568 290 c 0xfe80
 568 199 503 -4 289 -4 c 0
 163 -4 117 85 117 194 c 0
 117 446 316 616 504 616 c 0
 605 616 751 573 751 414 c 0
 751 394 749 372 744 348 c 2
 675 22 l 2
 671 5 655 -7 638 -7 c 0
 626 -7 614 2 614 16 c 0
 614 18 614 20 615 22 c 1
 682 337 l 2
 687 359 689 379 689 398 c 0
 689 524 585 558 492 558 c 0
 320 558 178 401 178 208 c 0
 178 121 213 56 302 56 c 0
 327 56 403 56 453 121 c 0
 494 176 505 227 505 253 c 1
 474 228 429 217 407 217 c 256
 348 217 311 255 311 300 c 0xfd80
439 367 m 0
 408 367 366 343 366 308 c 0
 366 278 403 271 419 271 c 0
 454 271 493 293 493 326 c 0
 493 351 470 367 439 367 c 0
EndSplineSet
EndChar
StartChar: uni0E15
Encoding: 3605 3605 232
Width: 714
VWidth: 1473
Flags: W
HStem: -4 53<206.853 356.217> 224 51<363.835 436.407> 367 51<362.118 452.684> 461 56<450.92 556.361> 588 20G<355 402 625.5 657.5>
VStem: 113 59<84.1743 204.357> 294 53<281.42 351.449> 470 61<243.018 360.758> 689 58<482.574 504 504 509.5 506.75 538.338>
Fore
531 302 m 0
 531 161 419 -4 272 -4 c 0
 157 -4 113 57 113 152 c 0
 113 180 117 212 124 245 c 2
 160 415 l 2
 193 580 329 608 381 608 c 0
 423 608 430 517 501 517 c 0
 570 517 600 605 651 605 c 0
 664 605 749 589 749 520 c 0
 749 513 749 506 747 499 c 2
 646 25 l 2
 643 10 629 -4 612 -4 c 256
 597 -4 587 6 587 19 c 0
 587 21 588 23 588 25 c 1
 689 499 l 2
 690 502 690 506 690 509 c 0
 690 536 660 542 642 547 c 1
 625 527 570 461 488 461 c 0
 430 461 383 498 362 550 c 1
 291 544 236 501 220 424 c 2
 182 245 l 2
 176 216 172 188 172 163 c 0
 172 95 200 49 283 49 c 0
 327 49 354 61 399 109 c 0
 431 144 462 197 474 252 c 1
 447 233 418 224 388 224 c 0
 350 224 294 249 294 303 c 0
 294 357 350 418 429 418 c 0
 524 418 531 352 531 302 c 0
418 367 m 256
 384 367 347 347 347 312 c 0
 347 281 383 275 398 275 c 0
 429 275 470 295 470 331 c 0
 470 360 436 367 418 367 c 256
EndSplineSet
EndChar
StartChar: uni0E16
Encoding: 3606 3606 233
Width: 717
VWidth: 1473
Flags: W
HStem: -6 53<251.89 331.278> 131 51<271.768 329.862> 539 58<372.579 602.116>
VStem: 186 53<50.9094 106.233> 343 51<60.306 126.36> 668 59<366.917 479.544>
Fore
394 109 m 0
 394 44 335 -6 272 -6 c 0
 231 -6 186 22 186 70 c 0
 186 84 215 242 240 284 c 1
 168 327 l 2
 153 336 146 342 146 351 c 0
 146 357 148 358 150 365 c 2
 157 383 l 2
 181 432 279 597 503 597 c 0
 639 597 727 539 727 415 c 0
 727 394 724 371 719 346 c 2
 651 29 l 2
 648 15 633 0 616 0 c 256
 601 0 593 11 593 23 c 0
 593 25 594 27 594 29 c 1
 662 348 l 2
 666 366 668 385 668 403 c 0
 668 477 628 539 491 539 c 0
 328 539 244 439 212 374 c 1
 218 370 281 333 282 333 c 1
 289 339 320 364 343 364 c 0
 358 364 366 353 366 341 c 0
 366 328 357 315 341 309 c 0
 284 288 274 229 262 172 c 1
 276 179 294 182 316 182 c 0
 367 182 394 150 394 109 c 0
301 131 m 0
 269 131 239 110 239 79 c 0
 239 54 266 47 283 47 c 256
 309 47 343 66 343 97 c 0
 343 124 315 131 301 131 c 0
EndSplineSet
EndChar
StartChar: uni0E17
Encoding: 3607 3607 234
Width: 761
VWidth: 1473
Flags: W
HStem: -3 21G<228.5 243.5> 402 52<216.003 282.769> 531 57<604.146 705.766> 545 52<213.677 304.127>
VStem: 145 53<461.819 528.582> 321 52<484.557 538.489> 725 59<428.269 511.111>
Fore
145 479 m 0xee
 145 546 215 597 280 597 c 0xde
 326 597 373 569 373 518 c 0
 373 512 372 506 371 499 c 1
 369 496 367 485 363 466 c 2
 337 349 l 2
 331 320 323 284 315 242 c 1
 364 338 535 588 682 588 c 0
 697 588 762 582 777 526 c 0
 781 510 784 492 784 473 c 0
 784 453 781 431 776 407 c 2
 693 19 l 2
 690 4 676 -10 659 -10 c 256
 647 -10 635 -1 635 13 c 0
 635 15 636 17 636 19 c 1
 719 410 l 2
 723 430 725 447 725 461 c 0
 725 520 693 531 668 531 c 0
 641 531 617 521 598 505 c 0
 483 409 408 308 350 214 c 0
 315 156 289 93 272 25 c 0
 269 8 251 -3 236 -3 c 256
 221 -3 213 7 213 19 c 0
 213 21 214 23 214 25 c 1
 297 414 l 1
 278 406 258 402 238 402 c 0
 195 402 145 426 145 479 c 0xee
269 545 m 256
 237 545 198 525 198 490 c 0
 198 462 234 454 250 454 c 0
 281 454 321 473 321 509 c 0
 321 538 287 545 269 545 c 256
EndSplineSet
EndChar
StartChar: uni0E18
Encoding: 3608 3608 235
Width: 654
VWidth: 1473
Flags: W
HStem: -6 58<230.744 491.964> 340 59<210.934 373.406> 357 57<316.332 547.239> 545 58<336.171 591.322>
VStem: 139 58<81.3902 159.753> 152 56<130.848 219.333 402.448 460.676> 582 59<258.261 265.977 262.119 326.195> 654 58<455 497.292>
Fore
459 545 m 0xd7
 306 545 210 456 210 423 c 0
 210 412 221 399 262 399 c 0xd7
 299 399 393 414 448 414 c 0
 607 414 641 351 641 294 c 0
 641 281 640 268 637 256 c 2
 615 151 l 2
 595 57 518 -6 345 -6 c 0
 178 -6 139 47 139 117 c 0xbb
 139 144 145 174 152 205 c 2
 166 271 l 2
 169 288 185 301 201 301 c 256
 216 301 224 291 224 279 c 0
 224 277 223 275 223 273 c 1
 208 203 l 2xb7
 202 172 197 148 197 130 c 0
 197 83 229 52 357 52 c 0
 511 52 547 92 565 177 c 2
 582 259 l 1
 582 263 583 268 583 273 c 0
 583 311 563 357 440 357 c 0xbb
 362 357 300 340 242 340 c 0
 169 340 152 373 152 404 c 0
 152 484 276 603 471 603 c 0
 677 603 712 509 712 471 c 0
 712 438 678 435 675 435 c 0
 662 435 655 445 654 455 c 0
 648 522 554 545 459 545 c 0xd7
EndSplineSet
EndChar
StartChar: uni0E19
Encoding: 3609 3609 236
Width: 791
VWidth: 1473
Flags: W
HStem: -7 50<329.674 494.112 650.583 723.191> 402 52<212.778 278.831> 545 50<212.694 311.423>
VStem: 144 52<461.062 528.233> 240 59<72.4641 180.884> 317 53<483.973 529.296> 598 49<45.4324 126.548 90.2734 100> 751 48<73.9799 191.555>
Fore
144 477 m 0
 144 537 201 595 278 595 c 0
 344 595 370 553 370 516 c 0
 370 510 369 505 368 499 c 2
 308 217 l 2
 302 189 299 165 299 143 c 0
 299 80 328 43 410 43 c 0
 446 43 478 52 505 71 c 0
 604 138 635 220 675 236 c 1
 746 569 l 2
 750 588 761 597 780 597 c 256
 796 597 803 591 803 578 c 0
 803 576 803 572 802 569 c 2
 733 246 l 1
 762 246 799 226 799 166 c 0
 799 131 784 57 743 24 c 0
 718 4 693 -6 668 -6 c 0
 619 -6 598 33 598 70 c 0
 598 91 603 94 603 100 c 1
 574 52 501 -7 400 -7 c 0
 319 -7 240 23 240 134 c 0
 240 154 243 177 248 202 c 2
 293 414 l 1
 273 406 254 402 237 402 c 0
 201 402 144 419 144 477 c 0
717 194 m 0
 672 194 647 131 647 87 c 0
 647 63 655 43 681 43 c 256
 730 43 751 111 751 148 c 0
 751 176 739 194 717 194 c 0
268 545 m 0
 236 545 196 523 196 490 c 0
 196 459 235 454 249 454 c 0
 292 454 317 484 317 503 c 0
 317 517 309 545 268 545 c 0
EndSplineSet
EndChar
StartChar: uni0E1A
Encoding: 3610 3610 237
Width: 755
VWidth: 1473
Flags: W
HStem: -4 57<337.769 581.417> 402 50<214.23 280.869> 545 52<209.941 302.292>
VStem: 144 52<459.677 529.286> 241 59<85.8242 177.481> 319 53<488.506 538.61>
Fore
144 481 m 0
 144 529 194 597 279 597 c 0
 338 597 372 560 372 517 c 0
 372 511 371 505 370 499 c 2
 310 215 l 2
 304 188 300 164 300 143 c 0
 300 87 332 53 456 53 c 256
 628 53 651 119 672 217 c 2
 747 567 l 2
 750 582 764 597 781 597 c 256
 797 597 808 584 805 569 c 2
 730 217 l 2
 704 94 655 -4 444 -4 c 256
 283 -4 241 53 241 132 c 0
 241 158 246 186 252 215 c 2
 294 414 l 1
 276 406 257 402 236 402 c 0
 184 402 144 434 144 481 c 0
268 545 m 256
 243 545 196 531 196 490 c 0
 196 460 232 452 248 452 c 0
 279 452 319 473 319 508 c 0
 319 538 285 545 268 545 c 256
EndSplineSet
EndChar
StartChar: uni0E1B
Encoding: 3611 3611 238
Width: 755
VWidth: 1473
Flags: W
HStem: -4 57<337.769 581.417> 402 50<214.23 280.869> 545 52<209.941 302.292>
VStem: 144 52<459.677 529.286> 241 59<85.8242 177.481> 319 53<488.506 538.61>
Fore
144 481 m 0
 144 529 194 597 279 597 c 0
 338 597 372 560 372 517 c 0
 372 511 371 505 370 499 c 2
 310 215 l 2
 304 188 300 164 300 143 c 0
 300 87 332 53 456 53 c 256
 628 53 651 119 672 217 c 2
 787 759 l 2
 791 778 802 787 821 787 c 0
 835 787 846 777 846 765 c 0
 846 763 846 761 845 759 c 1
 730 217 l 2
 704 94 655 -4 444 -4 c 256
 283 -4 241 53 241 132 c 0
 241 158 246 186 252 215 c 2
 294 414 l 1
 276 406 257 402 236 402 c 0
 184 402 144 434 144 481 c 0
268 545 m 256
 243 545 196 531 196 490 c 0
 196 460 232 452 248 452 c 0
 279 452 319 473 319 508 c 0
 319 538 285 545 268 545 c 256
EndSplineSet
EndChar
StartChar: uni0E1C
Encoding: 3612 3612 239
Width: 729
VWidth: 1473
Flags: W
HStem: -4 57<173.978 292.561 466.825 587.549> 401 51<234.234 336.46> 545 50<245.941 334.531>
VStem: 102 59<66.8743 157.318> 352 52<469.186 537.724>
Fore
404 518 m 0
 404 448 332 401 269 401 c 0
 248 401 231 405 218 414 c 1
 168 178 l 2
 163 156 161 138 161 123 c 0
 161 70 188 53 229 53 c 0
 314 53 370 160 374 178 c 2
 408 337 l 2
 411 354 429 365 443 365 c 256
 456 365 467 356 467 342 c 0
 467 340 467 339 467 337 c 2
 433 178 l 2
 433 176 433 173 433 170 c 0
 433 136 448 53 519 53 c 0
 574 53 617 78 638 178 c 2
 720 566 l 2
 723 580 738 595 755 595 c 256
 770 595 778 584 778 572 c 0
 778 570 777 568 777 566 c 2
 695 178 l 2
 666 41 596 -4 507 -4 c 0
 439 -4 396 49 387 105 c 1
 369 76 305 -4 217 -4 c 0
 146 -4 102 27 102 108 c 0
 102 128 104 152 110 178 c 2
 178 498 l 2
 190 553 248 595 310 595 c 0
 354 595 404 572 404 518 c 0
300 545 m 0
 272 545 229 524 229 490 c 0
 229 464 260 452 280 452 c 0
 311 452 352 472 352 507 c 0
 352 538 317 545 300 545 c 0
EndSplineSet
EndChar
StartChar: uni0E1D
Encoding: 3613 3613 240
Width: 729
VWidth: 1473
Flags: W
HStem: -4 57<173.978 292.561 466.825 587.549> 401 51<234.234 336.46> 545 50<245.941 334.531>
VStem: 102 59<66.8743 157.318> 352 52<469.186 537.724>
Fore
404 518 m 0
 404 448 332 401 269 401 c 0
 248 401 231 405 218 414 c 1
 168 178 l 2
 163 156 161 138 161 123 c 0
 161 70 188 53 229 53 c 0
 314 53 370 160 374 178 c 2
 408 337 l 2
 411 354 429 365 443 365 c 256
 456 365 467 356 467 342 c 0
 467 340 467 339 467 337 c 2
 433 178 l 2
 433 176 433 173 433 170 c 0
 433 136 448 53 519 53 c 0
 574 53 617 78 638 178 c 2
 761 759 l 2
 764 773 779 788 796 788 c 256
 811 788 819 777 819 765 c 0
 819 763 818 761 818 759 c 2
 695 178 l 2
 666 41 596 -4 507 -4 c 0
 439 -4 396 49 387 105 c 1
 369 76 305 -4 217 -4 c 0
 146 -4 102 27 102 108 c 0
 102 128 104 152 110 178 c 2
 178 498 l 2
 190 553 248 595 310 595 c 0
 354 595 404 572 404 518 c 0
300 545 m 0
 272 545 229 524 229 490 c 0
 229 464 260 452 280 452 c 0
 311 452 352 472 352 507 c 0
 352 538 317 545 300 545 c 0
EndSplineSet
EndChar
StartChar: uni0E1E
Encoding: 3614 3614 241
Width: 864
VWidth: 1473
Flags: W
HStem: -6 58<309.164 430.331 601.533 720.318> 403 51<213.893 281.83> 545 52<212.454 304.117>
VStem: 144 54<460.434 529.069> 236 59<66.2725 156.641> 321 50<484.436 538.451>
Fore
144 482 m 0
 144 532 205 597 280 597 c 0
 343 597 371 557 371 515 c 0
 371 510 371 504 370 499 c 2
 302 177 l 2
 297 156 295 137 295 121 c 0
 295 79 313 52 365 52 c 0
 447 52 503 151 510 184 c 2
 584 530 l 2
 587 546 603 560 618 560 c 256
 633 560 643 548 643 535 c 0
 643 534 642 532 642 530 c 1
 568 184 l 2
 567 180 567 176 567 170 c 0
 567 131 586 52 653 52 c 0
 727 52 756 99 773 177 c 2
 856 567 l 2
 859 584 874 595 889 595 c 256
 904 595 917 584 914 567 c 2
 831 177 l 2
 802 40 732 -6 641 -6 c 0
 555 -6 526 81 521 103 c 1
 489 48 420 -6 353 -6 c 0
 281 -6 236 26 236 108 c 0
 236 128 238 151 244 177 c 2
 294 414 l 1
 276 406 257 403 235 403 c 0
 173 403 144 444 144 482 c 0
269 545 m 256
 235 545 198 525 198 490 c 0
 198 460 234 454 250 454 c 0
 281 454 321 473 321 508 c 0
 321 538 286 545 269 545 c 256
EndSplineSet
EndChar
StartChar: uni0E1F
Encoding: 3615 3615 242
Width: 864
VWidth: 1473
Flags: W
HStem: -6 58<309.164 430.331 601.533 720.318> 403 51<213.893 281.83> 545 52<212.454 304.117>
VStem: 144 54<460.434 529.069> 236 59<66.2725 156.641> 321 50<484.436 538.451>
Fore
144 482 m 0
 144 532 205 597 280 597 c 0
 343 597 371 557 371 515 c 0
 371 510 371 504 370 499 c 2
 302 177 l 2
 297 156 295 137 295 121 c 0
 295 79 313 52 365 52 c 0
 447 52 503 151 510 184 c 2
 584 530 l 2
 587 546 603 560 618 560 c 256
 633 560 643 548 643 535 c 0
 643 534 642 532 642 530 c 1
 568 184 l 2
 567 180 567 176 567 170 c 0
 567 131 586 52 653 52 c 0
 727 52 756 99 773 177 c 2
 897 760 l 2
 900 777 915 788 930 788 c 256
 945 788 958 777 955 760 c 2
 831 177 l 2
 802 40 732 -6 641 -6 c 0
 555 -6 526 81 521 103 c 1
 489 48 420 -6 353 -6 c 0
 281 -6 236 26 236 108 c 0
 236 128 238 151 244 177 c 2
 294 414 l 1
 276 406 257 403 235 403 c 0
 173 403 144 444 144 482 c 0
269 545 m 256
 235 545 198 525 198 490 c 0
 198 460 234 454 250 454 c 0
 281 454 321 473 321 508 c 0
 321 538 286 545 269 545 c 256
EndSplineSet
EndChar
StartChar: uni0E20
Encoding: 3616 3616 243
Width: 730
VWidth: 1473
Flags: W
HStem: -4 51<123.267 200.052> 133 50<122.051 203.314> 539 58<385.88 615.074>
VStem: 57 54<51.2894 121.268> 681 59<331.632 346 348 365.542 365.542 388.906 377.224 480.524>
Fore
57 67 m 0
 57 135 118 183 181 183 c 0
 192 183 205 182 219 177 c 1
 220 182 221 189 224 199 c 2
 233 230 l 2
 238 253 244 266 253 284 c 1
 182 327 l 2
 165 337 159 343 159 351 c 0
 159 353 159 355 160 357 c 2
 160 359 162 362 163 365 c 2
 171 383 l 2
 194 432 292 597 516 597 c 0
 653 597 740 536 740 413 c 0
 740 392 738 370 733 346 c 2
 665 30 l 2
 662 13 644 0 629 0 c 256
 614 0 606 11 606 24 c 0
 606 26 607 28 607 30 c 1
 675 348 l 2
 679 368 681 387 681 405 c 0
 681 487 632 539 504 539 c 0
 412 539 298 507 225 374 c 1
 232 368 250 360 264 350 c 2
 284 338 l 2
 290 335 294 333 295 333 c 1
 313 350 340 364 357 364 c 0
 370 364 379 356 379 342 c 0
 379 296 311 321 290 227 c 0
 265 146 262 95 259 81 c 0
 249 33 195 -4 142 -4 c 0
 111 -4 57 11 57 67 c 0
153 47 m 0
 201 47 209 82 209 101 c 0
 209 115 203 133 171 133 c 256
 139 133 111 112 111 80 c 0
 111 54 135 47 153 47 c 0
EndSplineSet
EndChar
StartChar: uni0E21
Encoding: 3617 3617 244
Width: 730
VWidth: 1473
Flags: W
HStem: -7 50<149.498 231.135 443.037 586.424> 189 54<171.159 254.081> 402 52<220.451 300.526> 547 51<229.944 321.666>
VStem: 98 46<49.0374 160.056> 163 52<461.829 531.035> 338 54<481.129 540.61>
Fore
163 481 m 0
 163 539 221 598 298 598 c 0
 335 598 392 582 392 519 c 0
 392 511 391 502 389 492 c 2
 324 189 l 1
 361 134 438 50 512 50 c 0
 583 50 617 79 638 177 c 2
 721 564 l 2
 725 583 736 592 755 592 c 0
 768 592 779 583 779 569 c 2
 779 564 l 1
 697 177 l 2
 674 72 626 -7 500 -7 c 0
 410 -7 332 75 300 119 c 1
 298 108 l 2
 288 63 255 -7 180 -7 c 0
 116 -7 98 36 98 79 c 0
 98 152 146 243 232 243 c 0
 249 243 263 240 275 233 c 1
 285 282 l 2
 296 336 301 347 310 390 c 2
 315 415 l 1
 295 406 275 402 256 402 c 0
 201 402 163 434 163 481 c 0
287 547 m 256
 254 547 215 526 215 494 c 0
 215 467 244 454 268 454 c 0
 300 454 338 475 338 510 c 0
 338 540 303 547 287 547 c 256
189 43 m 0
 230 43 257 100 257 147 c 0
 257 178 243 189 220 189 c 0
 159 189 144 120 144 93 c 0
 144 64 159 43 189 43 c 0
EndSplineSet
EndChar
StartChar: uni0E22
Encoding: 3618 3618 245
Width: 718
VWidth: 1473
Flags: W
HStem: -10 57<280.549 545.934> 267 57<306 318.5 318.5 332.5 325.5 470.07> 402 52<315.83 406.621> 547 51<313.986 402.654>
VStem: 154 59<354.726 448.563> 186 56<91.2705 220.13> 421 52<469.63 539.75>
Fore
242 141 m 0xf6
 242 66 302 47 408 47 c 0
 573 47 612 99 633 197 c 2
 711 564 l 2
 714 579 728 594 745 594 c 256
 760 594 769 584 769 572 c 0
 769 570 768 568 768 566 c 1
 690 197 l 2
 656 42 570 -10 396 -10 c 0
 231 -10 197 51 191 82 c 0
 187 104 186 122 186 136 c 0xf6
 186 190 213 241 246 277 c 1
 174 301 154 351 154 396 c 0
 154 514 284 598 380 598 c 0
 440 598 473 562 473 518 c 0
 473 464 422 402 338 402 c 0
 279 402 245 437 246 486 c 1
 215 445 213 416 213 404 c 0xfa
 213 337 295 324 321 324 c 0
 329 323 336 323 344 323 c 0
 438 323 484 355 507 355 c 0
 522 355 526 337 526 330 c 0
 526 319 520 307 503 301 c 0
 456 280 393 267 331 267 c 0
 323 267 314 267 306 268 c 1
 273 247 242 193 242 141 c 0xf6
369 547 m 256
 345 547 298 530 298 490 c 0
 298 462 334 454 350 454 c 0
 381 454 421 473 421 508 c 0
 421 539 384 547 369 547 c 256
EndSplineSet
EndChar
StartChar: uni0E23
Encoding: 3619 3619 246
Width: 645
VWidth: 1473
Flags: W
HStem: -10 50<384.05 454.31> 133 51<398.659 484.138> 320 58<197.846 325.865> 355 60<302.848 507.172> 545 58<340.006 552.968>
VStem: 135 56<378.896 447.243> 314 52<47.6668 116.52> 527 60<235.667 249 249 262.061 262.061 266.523 264.292 335.1>
Fore
471 545 m 0xef
 281 545 191 445 191 402 c 0
 191 384 204 378 223 378 c 0xef
 279 378 339 415 436 415 c 0
 509 415 587 390 587 295 c 0
 587 281 586 266 582 249 c 2
 546 90 l 2
 527 -2 421 -10 408 -10 c 0
 365 -10 314 14 314 67 c 0
 314 133 382 184 449 184 c 0
 470 184 489 179 506 168 c 1
 524 252 l 2
 526 262 527 272 527 281 c 0
 527 328 501 355 429 355 c 0xdf
 343 355 273 320 210 320 c 0
 152 320 135 349 135 384 c 0
 135 497 290 603 483 603 c 0
 677 603 723 490 723 456 c 0
 723 435 701 422 686 422 c 0
 676 422 667 429 665 439 c 0
 629 543 509 545 471 545 c 0xef
438 133 m 256
 417 133 366 121 366 78 c 0
 366 47 402 40 419 40 c 0
 450 40 489 61 489 95 c 0
 489 121 459 133 438 133 c 256
EndSplineSet
EndChar
StartChar: uni0E24
Encoding: 3620 3620 247
Width: 717
VWidth: 1473
Flags: W
HStem: -6 53<251.89 331.278> 131 51<271.768 329.862> 539 58<372.579 602.116>
VStem: 186 53<50.9094 106.233> 343 51<60.306 126.36> 668 59<366.917 479.544>
Fore
394 109 m 0
 394 44 335 -6 272 -6 c 0
 231 -6 186 22 186 70 c 0
 186 84 215 242 240 284 c 1
 168 327 l 2
 153 336 146 342 146 351 c 0
 146 357 148 358 150 365 c 2
 157 383 l 2
 181 432 279 597 503 597 c 0
 639 597 727 539 727 415 c 0
 727 394 724 371 719 346 c 2
 597 -226 l 2
 594 -240 579 -255 562 -255 c 256
 547 -255 539 -244 539 -232 c 0
 539 -230 540 -228 540 -226 c 1
 662 348 l 2
 666 366 668 385 668 403 c 0
 668 477 628 539 491 539 c 0
 328 539 244 439 212 374 c 1
 217 370 281 333 282 333 c 1
 289 339 321 364 344 364 c 0
 354 364 362 359 366 346 c 1
 367 330 359 316 341 309 c 0
 281 287 272 218 262 172 c 1
 276 179 294 182 316 182 c 0
 367 182 394 150 394 109 c 0
301 131 m 0
 269 131 239 110 239 79 c 0
 239 54 266 47 283 47 c 256
 309 47 343 66 343 97 c 0
 343 124 315 131 301 131 c 0
EndSplineSet
EndChar
StartChar: uni0E25
Encoding: 3621 3621 248
Width: 724
VWidth: 1473
Flags: W
HStem: -3 52<233.104 324.237> 140 52<230.467 321.671> 340 58<331.034 506.09> 542 58<362.517 597.386>
VStem: 156 60<55.739 171.281> 339 53<64.7795 133.295> 679 58<373.09 471.183>
Fore
156 112 m 0
 156 242 248 398 446 398 c 0
 505 398 609 391 655 273 c 1
 675 367 l 2
 677 378 679 389 679 401 c 0
 679 466 636 542 473 542 c 0
 359 542 232 473 203 365 c 0
 199 350 185 337 168 337 c 1
 155 339 145 347 145 360 c 0
 145 362 145 365 146 367 c 1
 173 486 315 600 486 600 c 0
 657 600 737 520 737 415 c 0
 737 400 735 383 732 367 c 2
 658 25 l 2
 655 8 639 -4 624 -4 c 256
 609 -4 599 6 599 19 c 0
 599 21 600 23 600 25 c 1
 614 91 l 2
 616 99 620 120 620 146 c 0
 620 191 608 253 556 302 c 0
 525 333 475 340 436 340 c 0
 353 340 251 311 212 162 c 1
 240 182 268 192 299 192 c 0
 342 192 392 164 392 112 c 0
 392 43 318 -3 257 -3 c 0
 179 -3 156 52 156 112 c 0
288 140 m 256
 249 140 216 118 216 85 c 0
 216 56 250 49 268 49 c 0
 299 49 339 68 339 103 c 0
 339 134 303 140 288 140 c 256
EndSplineSet
EndChar
StartChar: uni0E26
Encoding: 3622 3622 249
Width: 729
VWidth: 1473
Flags: W
HStem: -4 51<123.267 199.712> 133 50<122.051 203.402> 539 58<385.88 615.161>
VStem: 57 54<51.2894 121.268> 681 60<367.495 481.611>
Fore
57 67 m 0
 57 135 118 183 181 183 c 0
 192 183 205 182 219 177 c 1
 220 182 221 189 224 199 c 2
 233 230 l 2
 238 253 244 266 253 284 c 1
 182 327 l 2
 166 337 160 343 160 351 c 0
 160 355 161 359 163 365 c 2
 171 383 l 2
 194 432 292 597 516 597 c 0
 653 597 741 539 741 415 c 0
 741 394 738 371 733 346 c 2
 611 -225 l 2
 608 -242 590 -255 575 -255 c 256
 560 -255 552 -244 552 -231 c 0
 552 -229 553 -227 553 -225 c 1
 675 348 l 2
 679 368 681 387 681 405 c 0
 681 487 632 539 504 539 c 0
 412 539 298 507 225 374 c 1
 232 368 250 360 264 350 c 2
 284 338 l 2
 290 335 294 333 295 333 c 1
 313 350 340 364 357 364 c 0
 370 364 379 356 379 342 c 0
 379 296 311 321 290 227 c 0
 265 146 262 95 259 81 c 0
 249 33 195 -4 142 -4 c 0
 111 -4 57 11 57 67 c 0
153 47 m 0
 203 47 209 87 209 102 c 0
 209 115 203 133 171 133 c 256
 139 133 111 112 111 80 c 0
 111 54 135 47 153 47 c 0
EndSplineSet
EndChar
StartChar: uni0E27
Encoding: 3623 3623 250
Width: 627
VWidth: 1473
Flags: W
HStem: -10 51<412.608 501.47> 134 52<409.959 512.74> 539 58<309.532 526.74>
VStem: 343 52<48.5366 118.939> 582 58<386.604 490.422>
Fore
117 358 m 0
 117 381 187 597 429 597 c 0
 536 597 640 562 640 432 c 0
 640 412 637 389 632 364 c 2
 574 88 l 2
 559 18 488 -10 436 -10 c 0
 384 -10 343 20 343 68 c 0
 343 127 402 186 478 186 c 0
 499 186 517 180 534 169 c 1
 575 364 l 2
 579 384 582 402 582 419 c 0
 582 494 537 539 417 539 c 0
 297 539 203 471 176 362 c 0
 173 348 157 334 142 334 c 2
 140 334 l 2
 125 334 117 345 117 358 c 0
466 134 m 256
 429 134 395 112 395 79 c 0
 395 49 431 41 447 41 c 0
 479 41 518 63 518 96 c 0
 518 122 487 134 466 134 c 256
EndSplineSet
EndChar
StartChar: uni0E28
Encoding: 3624 3624 251
Width: 692
VWidth: 1473
Flags: W
HStem: -1 21G<95.5 111.5 584.5 600.5> 215 52<378.545 469.568> 358 52<375.197 481.383> 539 58<346.471 585.491>
VStem: 310 53<272.66 313.553> 485 53<282.481 353.265> 646 58<371.145 472.479>
Fore
538 330 m 0
 538 284 493 215 404 215 c 0
 364 215 310 236 310 292 c 0
 310 299 311 306 313 314 c 1
 204 246 175 180 161 143 c 1
 137 28 l 2
 134 13 120 -1 103 -1 c 256
 88 -1 79 9 79 22 c 0
 79 24 80 26 80 28 c 1
 148 346 l 2
 190 547 357 597 485 597 c 0
 555 597 607 584 643 558 c 1
 685 572 741 618 789 667 c 1
 794 678 806 687 820 687 c 0
 835 687 844 674 844 664 c 0
 844 635 748 547 682 517 c 1
 697 492 704 460 704 422 c 0
 704 399 702 374 696 346 c 2
 628 28 l 2
 625 12 609 -1 592 -1 c 256
 577 -1 569 9 569 22 c 0
 569 24 570 26 570 28 c 1
 638 348 l 2
 643 369 646 391 646 411 c 0
 646 480 610 539 473 539 c 0
 403 539 344 524 297 495 c 0
 250 466 219 416 205 346 c 2
 188 270 l 1
 264 361 360 410 445 410 c 0
 505 410 538 372 538 330 c 0
434 358 m 0
 371 358 363 319 363 302 c 0
 363 273 397 267 415 267 c 0
 448 267 485 286 485 323 c 0
 485 339 476 358 434 358 c 0
EndSplineSet
EndChar
StartChar: uni0E29
Encoding: 3625 3625 252
Width: 817
VWidth: 1473
Flags: W
HStem: -4 57<345.397 577.522> 217 51<577.103 635.508> 371 53<471.463 570.705> 402 50<215.589 281.901> 545 52<213.307 304.44>
VStem: 145 53<459.123 528.389> 246 59<90.0833 192.8> 321 52<488.704 538.257> 406 52<292.681 356.908> 572 53<302.017 366.453>
Fore
625 355 m 0xefc0
 625 322 606 285 576 268 c 1
 595 268 l 2
 626 268 661 271 686 275 c 1
 749 569 l 2
 752 584 766 597 783 597 c 256
 798 597 809 583 806 569 c 2
 748 296 l 1
 800 319 840 364 869 429 c 0
 875 440 888 446 899 446 c 0
 909 446 918 441 918 429 c 0
 918 410 863 283 735 237 c 1
 698 59 612 -4 445 -4 c 0
 297 -4 246 48 246 144 c 0
 246 171 251 202 258 237 c 2
 296 414 l 1
 277 406 258 402 237 402 c 0xdfc0
 185 402 145 434 145 480 c 0
 145 527 194 597 280 597 c 0
 344 597 373 558 373 517 c 0
 373 511 372 505 371 499 c 2
 315 236 l 2
 309 205 305 179 305 157 c 0
 305 82 346 53 457 53 c 0
 621 53 655 128 676 225 c 1
 646 221 604 217 580 217 c 0
 519 217 406 234 406 311 c 0
 406 366 464 424 540 424 c 0
 577 424 625 404 625 355 c 0xefc0
506 287 m 0
 521 287 572 299 572 340 c 0
 572 359 558 371 519 371 c 0xefc0
 497 371 458 353 458 320 c 0
 458 293 487 287 506 287 c 0
269 545 m 256
 237 545 198 525 198 490 c 0
 198 460 234 452 249 452 c 0xdfc0
 282 452 321 474 321 508 c 0
 321 538 286 545 269 545 c 256
EndSplineSet
EndChar
StartChar: uni0E2A
Encoding: 3626 3626 253
Width: 724
VWidth: 1473
Flags: W
HStem: -3 52<233.104 324.237> 140 52<230.467 321.671> 340 58<331.034 506.09> 542 58<362.517 596.834>
VStem: 156 60<55.739 171.281> 339 53<64.7795 133.295> 679 58<373.23 471.971>
Fore
156 112 m 0
 156 242 248 398 446 398 c 0
 505 398 609 391 655 273 c 1
 675 367 l 2
 677 378 679 389 679 401 c 0
 679 466 636 542 473 542 c 0
 359 542 232 473 203 365 c 0
 199 350 185 337 168 337 c 1
 155 339 145 347 145 360 c 0
 145 362 145 365 146 367 c 1
 173 486 315 600 486 600 c 0
 559 600 618 585 665 554 c 1
 709 566 764 610 821 667 c 1
 828 682 844 687 853 687 c 0
 863 687 876 677 876 664 c 0
 876 636 781 547 707 513 c 1
 727 484 737 451 737 414 c 0
 737 399 735 384 732 367 c 2
 658 25 l 2
 655 8 639 -4 624 -4 c 256
 609 -4 599 6 599 19 c 0
 599 21 600 23 600 25 c 1
 614 91 l 2
 616 99 620 120 620 146 c 0
 620 191 608 253 556 302 c 0
 525 333 475 340 436 340 c 0
 353 340 251 311 212 162 c 1
 240 182 268 192 299 192 c 0
 342 192 392 164 392 112 c 0
 392 43 318 -3 257 -3 c 0
 179 -3 156 52 156 112 c 0
288 140 m 256
 249 140 216 118 216 85 c 0
 216 56 250 49 268 49 c 0
 299 49 339 68 339 103 c 0
 339 134 303 140 288 140 c 256
EndSplineSet
EndChar
StartChar: uni0E2B
Encoding: 3627 3627 254
Width: 763
VWidth: 1473
Flags: W
HStem: -4 21G<230.5 245.5 653.5 668.5> 387 46<623.78 676.521> 400 54<215.879 279.971> 545 52<213.011 304.7> 551 54<606.296 732.911>
VStem: 145 53<460.961 528.729> 321 54<484.534 538.839> 527 53<444.658 525.547> 695 60<291.463 369.485> 743 57<456.044 528.784>
Fore
800 516 m 0x8f40
 800 459 758 417 724 405 c 1
 745 388 755 368 755 336 c 0
 755 317 751 294 745 265 c 2
 694 25 l 2
 691 10 677 -4 660 -4 c 256
 647 -4 637 6 637 20 c 2
 637 25 l 1
 690 275 l 2
 693 290 695 302 695 314 c 0
 695 370 658 387 615 387 c 0xcf80
 470 387 313 168 276 43 c 2
 273 27 l 2
 269 11 253 -3 238 -3 c 256
 223 -3 214 8 214 21 c 0
 214 23 215 25 215 27 c 1
 297 415 l 1
 277 405 256 400 233 400 c 0
 180 400 145 439 145 483 c 0
 145 543 212 597 280 597 c 256xb780
 338 597 375 561 375 517 c 0
 375 511 374 505 373 499 c 2
 313 218 l 1
 359 286 445 396 552 421 c 1
 544 425 527 444 527 476 c 0
 527 539 584 605 683 605 c 0
 757 605 800 570 800 516 c 0x8f40
677 551 m 0
 622 551 580 521 580 478 c 0
 580 442 626 433 652 433 c 0
 715 433 743 470 743 499 c 0xcf40
 743 514 737 551 677 551 c 0
269 545 m 256xb7
 237 545 198 525 198 490 c 0
 198 462 234 454 250 454 c 0
 281 454 321 473 321 509 c 0
 321 538 287 545 269 545 c 256xb7
EndSplineSet
EndChar
StartChar: uni0E2C
Encoding: 3628 3628 255
Width: 866
VWidth: 1473
Flags: W
HStem: -6 58<310.425 431.073 603.185 723.739> 403 51<215.732 284.044> 512 54<755.364 840.641> 545 52<213.74 305.369> 661 58<764.553 839.274>
VStem: 145 54<460.163 529.805> 238 58<65.6705 155.268> 322 51<484.459 538.15> 691 60<572.394 646.941> 862 58<605 649.96>
Fore
691 597 m 0xdfc0
 691 650 741 719 823 719 c 0
 863 719 920 694 920 613 c 2
 920 605 l 1
 938 619 955 642 961 670 c 0
 965 687 980 698 995 698 c 256
 1008 698 1020 690 1020 676 c 0
 1020 658 997 583 909 539 c 1
 832 177 l 2
 803 41 733 -6 643 -6 c 0
 557 -6 528 77 523 103 c 1
 491 48 421 -6 354 -6 c 0
 283 -6 238 24 238 107 c 0
 238 127 240 150 246 177 c 2
 296 414 l 1
 278 406 259 403 236 403 c 0
 176 403 145 441 145 480 c 0
 145 531 206 597 282 597 c 0xdfc0
 342 597 373 559 373 516 c 0
 373 510 372 505 371 499 c 2
 303 177 l 2
 299 157 296 138 296 122 c 0
 296 79 314 52 366 52 c 0
 446 52 504 148 512 184 c 2
 568 445 l 2
 571 460 585 474 602 474 c 256
 617 474 626 464 626 451 c 0
 626 449 625 447 625 445 c 1
 569 184 l 2
 568 180 568 175 568 169 c 0
 568 131 587 52 655 52 c 0
 729 52 758 99 775 177 c 2
 847 517 l 1
 831 514 816 512 801 512 c 0xefc0
 721 512 691 553 691 597 c 0xdfc0
271 545 m 256
 233 545 199 523 199 490 c 0
 199 461 234 454 252 454 c 0
 282 454 322 473 322 508 c 0
 322 538 288 545 271 545 c 256
810 661 m 0
 777 661 751 634 751 606 c 0
 751 587 762 566 804 566 c 0xefc0
 822 566 840 568 859 573 c 1
 861 583 862 593 862 601 c 0
 862 651 825 661 810 661 c 0
EndSplineSet
Substitution2: "Single Substitution lookup 22 subtable" uni0E2C.alt1
Substitution2: "Single Substitution lookup 22 subtable" uni0E2C.alt1
EndChar
StartChar: uni0E2D
Encoding: 3629 3629 256
Width: 730
VWidth: 1473
Flags: W
HStem: -9 55<299.819 527.174> 232 50<329.354 416.066> 377 50<333.608 422.289> 554 57<365.373 603.164>
VStem: 180 56<102.608 260.462> 436 53<302.067 372.434> 683 59<369.743 484.301>
Fore
267 278 m 1
 251 251 236 216 236 174 c 0
 236 112 274 46 400 46 c 0
 549 46 605 109 628 170 c 0
 646 216 660 270 670 313 c 2
 676 345 l 2
 681 366 683 386 683 404 c 0
 683 496 625 554 480 554 c 0
 355 554 231 475 205 377 c 0
 202 361 187 349 172 349 c 2
 170 349 l 2
 156 349 148 359 148 371 c 0
 148 374 148 376 149 379 c 0
 176 499 325 611 492 611 c 0
 691 611 742 510 742 418 c 0
 742 397 739 377 735 358 c 2
 711 245 l 2
 675 75 578 -9 388 -9 c 0
 233 -9 180 78 180 166 c 0
 180 293 288 427 401 427 c 0
 453 427 489 398 489 352 c 0
 489 286 420 232 347 232 c 0
 311 232 280 248 267 278 c 1
361 282 m 0
 388 282 436 303 436 342 c 0
 436 370 409 377 390 377 c 0
 368 377 314 359 314 319 c 0
 314 290 344 282 361 282 c 0
EndSplineSet
EndChar
StartChar: uni0E2E
Encoding: 3630 3630 257
Width: 695
VWidth: 1473
Flags: W
HStem: -9 58<247.925 490.805> 180 52<268.213 369.376> 324 48<281.661 372.301> 393 58<221.269 347.119> 554 57<320.783 567.615>
VStem: 137 59<94.5992 205.373> 160 59<440.381 493.552> 388 54<251.87 318.765> 640 57<331.375 348 348 361.186 361.186 364.698 362.942 434.209>
Fore
762 632 m 0xfb80
 762 616 735 560 680 510 c 1
 698 468 703 431 703 402 c 0
 703 374 698 355 697 348 c 2
 677 253 l 2
 645 105 567 -9 350 -9 c 0
 189 -9 137 68 137 144 c 0
 137 243 232 372 350 372 c 0
 405 372 442 344 442 299 c 0
 442 244 381 180 301 180 c 0
 259 180 228 203 217 230 c 1
 203 206 196 178 196 153 c 0xfd80
 196 104 227 49 362 49 c 0
 526 49 590 113 620 253 c 2
 640 348 l 2
 641 354 645 368 645 389 c 0
 645 411 641 440 627 474 c 1
 509 404 329 393 290 393 c 2
 252 393 l 2
 178 397 160 427 160 454 c 0
 160 528 304 611 454 611 c 0
 545 611 610 591 649 552 c 1
 706 601 695 633 721 652 c 0
 725 655 731 657 736 657 c 0
 751 657 762 646 762 632 c 0xfb80
442 554 m 0
 330 554 219 496 219 467 c 0xfb80
 219 460 226 453 267 451 c 2
 300 452 l 2
 333 452 491 459 596 516 c 1
 562 541 511 554 442 554 c 0
311 232 m 0
 351 232 388 260 388 289 c 0
 388 318 355 324 338 324 c 0
 293 324 264 290 264 269 c 0
 264 253 277 232 311 232 c 0
EndSplineSet
EndChar
StartChar: uni0E2F
Encoding: 3631 3631 258
Width: 642
VWidth: 1473
Flags: W
HStem: 0 21G<533.5 548.5> 364 49<310.288 476.504> 546 52<230.827 331.049>
VStem: 157 56<457.784 527.635> 335 54<471.157 540.513>
Fore
389 522 m 0
 389 488 362 436 306 418 c 1
 320 415 338 413 359 413 c 0
 438 413 571 444 646 579 c 0
 653 593 666 597 673 597 c 0
 681 597 699 591 699 579 c 0
 699 573 689 555 687 552 c 1
 576 29 l 2
 573 15 556 0 541 0 c 256
 526 0 518 11 518 23 c 0
 518 25 519 27 519 29 c 1
 610 455 l 1
 532 388 424 364 350 364 c 0
 243 364 157 408 157 466 c 0
 157 543 227 598 301 598 c 0
 354 598 389 563 389 522 c 0
260 453 m 0
 296 453 335 477 335 509 c 0
 335 532 313 546 288 546 c 0
 262 546 213 528 213 489 c 0
 213 458 245 453 260 453 c 0
EndSplineSet
EndChar
StartChar: uni0E30
Encoding: 3632 3632 259
Width: 645
VWidth: 1473
Flags: W
HStem: -3 55<264.434 420.021> 180 51<171.414 273.407> 355 55<340.633 496.021> 538 51<248.614 348.995>
VStem: 100 51<87.8516 159.726> 176 51<446.572 516.895> 276 52<105.382 175.849> 352 52<463.26 533.716>
Fore
692 560 m 0
 692 540 617 355 377 355 c 0
 216 355 176 414 176 464 c 0
 176 541 252 589 317 589 c 0
 364 589 404 560 404 513 c 0
 404 463 362 428 337 414 c 1
 352 411 368 410 384 410 c 0
 502 410 600 477 635 560 c 0
 642 576 655 583 667 583 c 0
 680 583 692 574 692 560 c 0
278 441 m 0
 321 441 352 479 352 504 c 0
 352 524 334 538 308 538 c 0
 255 538 227 502 227 475 c 0
 227 447 256 441 278 441 c 0
616 202 m 0
 616 182 541 -3 301 -3 c 0
 138 -3 100 57 100 107 c 0
 100 173 164 231 241 231 c 0
 290 231 328 201 328 156 c 0
 328 105 286 70 261 56 c 1
 276 53 292 52 308 52 c 0
 426 52 524 119 559 202 c 0
 566 218 579 225 591 225 c 0
 604 225 616 216 616 202 c 0
202 83 m 0
 245 83 276 121 276 146 c 0
 276 166 258 180 232 180 c 0
 179 180 151 144 151 117 c 0
 151 89 180 83 202 83 c 0
EndSplineSet
EndChar
StartChar: uni0E31
Encoding: 3633 3633 260
Width: 0
VWidth: 1473
Flags: W
HStem: 683 53<-69 -64.5 -114.368 34.1238> 846 50<-180.076 -79.0821>
VStem: -247 51<761.448 827.85> -74 52<770.872 838.824>
Fore
-22 818 m 0
 -22 778 -46 753 -69 736 c 1
 -66 736 -63 735 -60 735 c 0
 -14 735 145 742 296 896 c 1
 304 902 312 905 319 905 c 0
 328 905 339 897 339 885 c 0
 339 854 144 683 -52 683 c 0
 -167 683 -247 717 -247 782 c 0
 -247 836 -192 896 -116 896 c 0
 -73 896 -22 871 -22 818 c 0
-126 846 m 0
 -145 846 -196 829 -196 791 c 0
 -196 762 -158 754 -146 754 c 0
 -113 754 -74 776 -74 808 c 0
 -74 834 -104 846 -126 846 c 0
EndSplineSet
Substitution2: "Single Substitution lookup 22 subtable" uni0E31.alt1
Substitution2: "Single Substitution lookup 22 subtable" uni0E31.alt1
EndChar
StartChar: uni0E32
Encoding: 3634 3634 261
Width: 570
VWidth: 1473
Flags: W
HStem: -4 21G<461.5 477.5> 547 57<287.18 473.013>
VStem: 530 59<390.695 407 407 419.539 419.539 421.023 420.281 496.487>
Fore
144 460 m 0
 144 499 253 604 401 604 c 256
 491 604 589 546 589 443 c 0
 589 432 588 420 585 407 c 2
 503 25 l 2
 500 10 486 -4 469 -4 c 256
 454 -4 444 6 444 19 c 0
 444 21 445 23 445 25 c 1
 527 407 l 2
 529 417 530 426 530 435 c 0
 530 516 448 547 389 547 c 0
 303 547 224 499 199 457 c 0
 191 444 178 437 167 437 c 0
 154 437 144 445 144 460 c 0
EndSplineSet
EndChar
StartChar: uni0E33
Encoding: 3635 3635 262
Width: 570
VWidth: 1473
Flags: W
HStem: -4 21G<461.5 477.5> 547 57<287.18 473.013> 670 52<-42.7554 54.036> 829 52<-41.0606 67.7661>
VStem: -118 54<731.32 807.025> 76 53<743.214 810.417> 530 59<390.695 407 407 419.539 419.539 421.023 420.281 496.487>
Fore
-118 753 m 0
 -118 827 -43 881 28 881 c 0
 101 881 129 838 129 795 c 0
 129 737 72 670 -17 670 c 0
 -55 670 -118 692 -118 753 c 0
17 829 m 0
 -28 829 -64 798 -64 764 c 0
 -64 725 -12 722 -6 722 c 0
 32 722 76 748 76 782 c 0
 76 798 68 829 17 829 c 0
144 460 m 0
 144 499 253 604 401 604 c 256
 491 604 589 546 589 443 c 0
 589 432 588 420 585 407 c 2
 503 25 l 2
 500 10 486 -4 469 -4 c 256
 454 -4 444 6 444 19 c 0
 444 21 445 23 445 25 c 1
 527 407 l 2
 529 417 530 426 530 435 c 0
 530 516 448 547 389 547 c 0
 303 547 224 499 199 457 c 0
 191 444 178 437 167 437 c 0
 154 437 144 445 144 460 c 0
EndSplineSet
Substitution2: "Single Substitution lookup 22 subtable" uni0E33.alt1
Substitution2: "Single Substitution lookup 22 subtable" uni0E33.alt1
EndChar
StartChar: uni0E34
Encoding: 3636 3636 263
Width: 0
VWidth: 1473
Flags: W
HStem: 660 197<-169 45 -167 -167> 682 48<-370.599 -47.515> 806 51<-262.537 -118.94>
Fore
79 690 m 0x80
 79 676 66 660 45 660 c 0x80
 32 660 -32 682 -191 682 c 0x40
 -326 682 -441 669 -444 669 c 0
 -457 669 -463 680 -463 690 c 0
 -463 703.721 -444.948 715.051 -441 719 c 1
 -373 752 -301 857 -169 857 c 2
 -167 857 l 2
 -135 857 -30 856 39 756 c 2
 73 709 l 2
 77 703 79 696 79 690 c 0x80
-377 717 m 1
 -325 726 -266 730 -208 730 c 0
 -126 730 -47 722 20 709 c 1
 -25 739 -51 806 -168 806 c 0x60
 -274 806 -311 747 -377 717 c 1
EndSplineSet
Substitution2: "Single Substitution lookup 22 subtable" uni0E34.alt1
Substitution2: "Single Substitution lookup 22 subtable" uni0E34.alt1
EndChar
StartChar: uni0E35
Encoding: 3637 3637 264
Width: 0
VWidth: 1473
Flags: W
HStem: 679 48<-373.703 -104.724> 804 50<-265.78 -75.6375>
Fore
-193 679 m 0
 -327 679 -444 666 -446 666 c 0
 -458 666 -465 674 -465 687 c 0
 -465 714 -440 710 -389 754 c 0
 -285 844 -217 854 -172 854 c 0
 -124 854 -54 843 -11 801 c 1
 14 918 l 2
 18 935 29 944 46 944 c 0
 64 944 72 938 72 925 c 0
 72 922 72 919 71 916 c 2
 36 751 l 1
 54 730 49 733 70 706 c 0
 76 700 79 694 79 688 c 0
 79 671 58 660 49 660 c 1
 43 659 38 659 35 659 c 1
 -52 677 -147 679 -193 679 c 0
-378 715 m 1
 -327 723 -267 727 -210 727 c 0
 -118 727 -34 717 17 706 c 1
 -27 735 -49 801 -169 804 c 0
 -278 804 -315 741 -378 715 c 1
EndSplineSet
Substitution2: "Single Substitution lookup 22 subtable" uni0E35.alt1
Substitution2: "Single Substitution lookup 22 subtable" uni0E35.alt1
EndChar
StartChar: uni0E36
Encoding: 3638 3638 265
Width: 0
VWidth: 1473
Flags: W
HStem: 682 48<-372.041 -47.8825> 806 51<-264.372 -73.8652> 884 43<-24.4409 52.6872>
VStem: 55 42<808.085 881.144>
Fore
97 857 m 0
 97 820 70 777 25 765 c 1
 71 709 l 2
 88 692 76 660 45 660 c 0
 35 660 -38 682 -191 682 c 0
 -327 682 -444 669 -446 669 c 0
 -461 669 -464 679 -464 687 c 0
 -464 708 -444 715 -442 719 c 1
 -367 755 -303 857 -158 857 c 0
 -122 856 -101 849 -74 840 c 1
 -65 885 -23 927 26 927 c 0
 71 927 97 895 97 857 c 0
19 884 m 0
 -8 884 -36 862 -36 829 c 0
 -36 809 -21 796 0 796 c 0
 32 796 55 825 55 849 c 0
 55 870 40 884 19 884 c 0
-377 717 m 1
 -325 726 -268 730 -209 730 c 0
 -127 730 -48 722 20 709 c 1
 -24 738 -52 806 -169 806 c 0
 -275 806 -317 745 -377 717 c 1
EndSplineSet
Substitution2: "Single Substitution lookup 22 subtable" uni0E36.alt1
Substitution2: "Single Substitution lookup 22 subtable" uni0E36.alt1
EndChar
StartChar: uni0E37
Encoding: 3639 3639 266
Width: 0
VWidth: 1473
Flags: W
HStem: 679 48<-371.932 -48.1226> 803 51<-263.458 -98.3244>
Fore
-192 679 m 0
 -327 679 -441 666 -444 666 c 0
 -457 666 -464 676 -464 685 c 0
 -464 700 -442 716 -442 716 c 1
 -368 752 -302 854 -158 854 c 0
 -149 854 -122 854 -77 837 c 1
 -60 918 l 2
 -56 935 -43 946 -27 946 c 0
 -14 946 -7 941 -7 927 c 0
 -7 924 -7 920 -8 915 c 2
 -29 815 l 1
 -12 802 l 2
 -7 799 -2 794 3 788 c 1
 31 918 l 2
 35 935 48 946 64 946 c 0
 81 946 85 936 85 926 c 0
 85 922 85 918 84 915 c 2
 48 744 l 1
 73 712 l 2
 88 697 78 658 45 658 c 0
 40 658 -47 679 -192 679 c 0
-377 715 m 1
 -325 723 -266 727 -208 727 c 0
 -117 727 -31 717 19 706 c 1
 -26 736 -51 803 -168 803 c 0
 -275 803 -312 742 -377 715 c 1
EndSplineSet
Substitution2: "Single Substitution lookup 22 subtable" uni0E37.alt1
Substitution2: "Single Substitution lookup 22 subtable" uni0E37.alt1
EndChar
StartChar: uni0E38
Encoding: 3640 3640 267
Width: 0
VWidth: 1473
Flags: W
HStem: -251 55<-250.417 -189.483> -110 51<-251.807 -164.713>
VStem: -318 53<-191.001 -124.492> -150 53<-167.523 -115.382>
Fore
-318 -180 m 0
 -318 -135 -284 -59 -188 -59 c 0
 -134 -59 -97 -86 -97 -132 c 0
 -97 -139 -97 -146 -99 -153 c 2
 -141 -355 l 2
 -146 -377 -165 -382 -175 -382 c 256
 -189 -382 -198 -374 -198 -362 c 0
 -198 -360 -198 -358 -197 -355 c 2
 -172 -237 l 1
 -196 -248 -223 -251 -235 -251 c 0
 -256 -251 -277 -242 -300 -224 c 0
 -312 -215 -318 -200 -318 -180 c 0
-198 -110 m 0
 -224 -110 -265 -127 -265 -162 c 0
 -265 -189 -235 -196 -217 -196 c 0
 -186 -196 -150 -177 -150 -144 c 0
 -150 -117 -181 -110 -198 -110 c 0
EndSplineSet
Substitution2: "Single Substitution lookup 21 subtable" a
Substitution2: "Single Substitution lookup 22 subtable" uni0E38.alt1
Substitution2: "Single Substitution lookup 21 subtable" a
Substitution2: "Single Substitution lookup 22 subtable" uni0E38.alt1
EndChar
StartChar: uni0E39
Encoding: 3641 3641 268
Width: 0
VWidth: 1473
Flags: W
HStem: -357 51<-317.499 -192.492> -250 53<-459.249 -385.503> -110 51<-451.606 -362.783>
VStem: -517 53<-189.758 -124.962> -377 56<-299.164 -249.512> -347 53<-167.509 -116.783>
Fore
-517 -169 m 0xf8
 -517 -112 -453 -59 -386 -59 c 0
 -349 -59 -294 -74 -294 -130 c 0xf4
 -294 -137 -295 -145 -297 -153 c 2
 -299 -164 l 2
 -308 -205 -321 -255 -321 -269 c 0
 -321 -292 -305 -306 -255 -306 c 0
 -218 -306 -185 -299 -173 -243 c 2
 -141 -96 l 2
 -138 -79 -122 -68 -107 -68 c 256
 -90 -68 -85 -79 -85 -89 c 0
 -85 -92 -86 -94 -86 -96 c 1
 -117 -239 l 2
 -128 -292 -167 -357 -266 -357 c 0
 -329 -357 -377 -341 -377 -280 c 0
 -377 -271 -375 -261 -373 -249 c 2
 -370 -236 l 1
 -390 -245 -409 -250 -426 -250 c 0
 -480 -250 -517 -213 -517 -169 c 0xf8
-396 -110 m 0
 -427 -110 -464 -130 -464 -160 c 0
 -464 -185 -435 -197 -415 -197 c 0
 -385 -197 -347 -178 -347 -144 c 0
 -347 -117 -382 -110 -396 -110 c 0
EndSplineSet
Substitution2: "Single Substitution lookup 21 subtable" b
Substitution2: "Single Substitution lookup 22 subtable" uni0E39.alt1
Substitution2: "Single Substitution lookup 21 subtable" b
Substitution2: "Single Substitution lookup 22 subtable" uni0E39.alt1
EndChar
StartChar: uni0E3A
Encoding: 3642 3642 269
Width: 0
VWidth: 1473
Flags: W
HStem: -233 108<-211.641 -114.642>
VStem: -235 141<-212.21 -148.234>
Fore
-235 -190 m 0
 -235 -156 -196 -125 -154 -125 c 0
 -105 -125 -94 -156 -94 -173 c 0
 -94 -206 -135 -233 -177 -233 c 1
 -177 -233 -235 -230 -235 -190 c 0
EndSplineSet
Substitution2: "Single Substitution lookup 21 subtable" c
Substitution2: "Single Substitution lookup 22 subtable" uni0E3A.alt1
Substitution2: "Single Substitution lookup 21 subtable" c
Substitution2: "Single Substitution lookup 22 subtable" uni0E3A.alt1
EndChar
StartChar: uni0E3F
Encoding: 3647 3647 270
Width: 726
VWidth: 1473
Flags: W
HStem: 0 53<226.918 331 397 542.859> 346 55<246.41 405 471 608.922> 661 55<353.588 472 538 655.018> 817 20G<527.5 543.5>
VStem: 105 56<115.598 221.01 219.562 222.458 222.458 234 240 250.642> 657 56<176.009 300.457> 713 58<475.383 610.432>
Fore
771 560 m 0
 771 458 700 391 636 373 c 1
 682 349 713 296 713 237 c 0
 713 224 712 212 709 199 c 0
 676 40 520 0 433 0 c 2
 386 0 l 1
 371 -72 l 2
 365 -99 353 -112 335 -112 c 0
 321 -112 314 -105 314 -89 c 0
 314 -85 315 -79 316 -72 c 2
 331 0 l 1
 315 0 l 2
 182 0 105 72 105 183 c 0
 105 201 107 220 111 240 c 2
 163 486 l 2
 198 651 366 716 451 716 c 2
 483 716 l 1
 500 797 l 2
 506 824 518 837 537 837 c 0
 550 837 557 830 557 815 c 0
 557 810 556 804 555 797 c 2
 538 716 l 1
 562 716 l 2
 673 716 771 669 771 560 c 0
244 367 m 0
 244 381 252 401 291 401 c 2
 416 401 l 1
 472 661 l 1
 440 661 l 2
 332 661 238 574 219 486 c 2
 166 234 l 2
 163 219 161 205 161 191 c 0
 161 105 226 53 314 53 c 2
 342 53 l 1
 405 346 l 1
 280 346 l 2
 256 346 244 353 244 367 c 0
444 53 m 2
 612 63 657 161 657 233 c 0
 657 302 606 346 532 346 c 2
 460 346 l 1
 397 53 l 1
 444 53 l 2
545 401 m 2
 635 401 713 464 713 545 c 0
 713 599 680 661 548 661 c 2
 526 661 l 1
 471 401 l 1
 545 401 l 2
EndSplineSet
EndChar
StartChar: uni0E40
Encoding: 3648 3648 271
Width: 353
VWidth: 1473
Flags: W
HStem: -7 51<187.178 290.908> 136 51<217.863 300.531> 577 20G<258 272.5>
VStem: 126 56<51.516 103.399> 306 51<60.8438 129.231>
Fore
357 109 m 0
 357 44 293 -7 224 -7 c 0
 189 -7 126 5 126 66 c 0
 126 73 126 80 128 88 c 2
 230 567 l 2
 233 583 251 597 265 597 c 256
 280 597 288 586 288 573 c 0
 288 571 287 569 287 567 c 1
 203 174 l 1
 223 183 244 187 265 187 c 0
 329 187 357 148 357 109 c 0
254 136 m 256
 221 136 182 114 182 82 c 0
 182 59 205 44 234 44 c 256
 267 44 306 66 306 98 c 0
 306 121 283 136 254 136 c 256
EndSplineSet
EndChar
StartChar: uni0E41
Encoding: 3649 3649 272
Width: 642
VWidth: 1473
Flags: W
HStem: -7 51<187.178 290.908 474.545 576.779> 136 51<217.863 300.531 505.927 588.558> 577 20G<258 272.5 544.5 560>
VStem: 126 56<51.516 103.399> 306 51<60.8438 129.231> 414 55<51.3783 103.597> 593 53<60.2838 129.208>
Fore
646 107 m 0
 646 39 575 -7 512 -7 c 0
 476 -7 414 5 414 65 c 0
 414 72 415 80 417 88 c 2
 519 567 l 2
 522 582 536 597 553 597 c 256
 567 597 577 587 577 573 c 0
 577 571 576 569 576 567 c 1
 492 174 l 1
 510 183 530 187 553 187 c 0
 619 187 646 146 646 107 c 0
357 109 m 0
 357 44 293 -7 224 -7 c 0
 189 -7 126 5 126 66 c 0
 126 73 126 80 128 88 c 2
 230 567 l 2
 233 583 251 597 265 597 c 256
 280 597 288 586 288 573 c 0
 288 571 287 569 287 567 c 1
 203 174 l 1
 223 183 244 187 265 187 c 0
 329 187 357 148 357 109 c 0
542 136 m 256
 510 136 469 115 469 82 c 0
 469 59 493 44 522 44 c 256
 565 44 593 74 593 98 c 0
 593 121 571 136 542 136 c 256
254 136 m 256
 221 136 182 114 182 82 c 0
 182 59 205 44 234 44 c 256
 267 44 306 66 306 98 c 0
 306 121 283 136 254 136 c 256
EndSplineSet
EndChar
StartChar: uni0E42
Encoding: 3650 3650 273
Width: 378
VWidth: 1473
Flags: W
HStem: -6 52<225.52 314.32> 137 52<248.717 313.371> 859 52<157.644 250.887> 875 51<258.873 320.715> 1050 58<270.936 494.877>
VStem: 100 57<898.157 974.551> 158 53<51.0992 106.457> 321 57<831.388 874.491> 329 53<60.7784 131.017>
Fore
394 1050 m 0xef
 258 1050 157 980 157 933 c 0
 157 924 161 911 182 911 c 0xef
 208 911 257 926 290 926 c 0
 357 926 378 903 378 866 c 0xdf
 378 856 376 845 374 834 c 2
 234 175 l 1
 251 183 267 189 290 189 c 0
 339 189 382 152 382 106 c 0xde80
 382 51 326 -6 249 -6 c 0
 218 -6 158 9 158 70 c 0
 158 76 158 83 160 91 c 2
 313 810 l 2
 314 814 321 833 321 849 c 0
 321 868 312 875 291 875 c 0xdf
 267 875 210 859 169 859 c 0
 130 859 100 876 100 912 c 0
 100 1000 228 1108 398 1108 c 0
 569 1108 628 1002 628 975 c 0
 628 964 612 947 592 947 c 0
 583 947 575 951 571 959 c 0
 534 1019 472 1050 394 1050 c 0xef
279 137 m 256
 243 137 211 114 211 81 c 0
 211 50 245 46 260 46 c 0
 296 46 329 68 329 101 c 0xce80
 329 130 297 137 279 137 c 256
EndSplineSet
EndChar
StartChar: uni0E43
Encoding: 3651 3651 274
Width: 378
VWidth: 1473
Flags: W
HStem: -7 51<223.514 312.86> 136 51<256.855 312.549> 836 47<150.688 251.157> 975 40<186.138 265.456> 1058 48<260.135 482.393>
VStem: 95 52<888.496 956.919> 154 53<49.9279 103.676> 270 52<901.403 968.682> 329 51<61.053 129.217> 531 53<938.826 1018.43>
Fore
95 908 m 0
 95 1001 225 1106 376 1106 c 0
 540 1106 584 1037 584 980 c 0
 584 927 539 878 485 846 c 2
 434 816 l 2
 384 789 356 765 348 731 c 2
 230 174 l 1
 247 182 267 187 289 187 c 0
 351 187 380 149 380 108 c 0
 380 35 305 -7 248 -7 c 256
 216 -7 154 9 154 68 c 0
 154 74 154 81 156 88 c 2
 292 731 l 2
 303 783 342 821 416 862 c 2
 462 888 l 2
 525 926 531 955 531 972 c 0
 531 1020 471 1058 381 1058 c 0
 301 1058 234 1033 208 1012 c 1
 221 1014 232 1015 242 1015 c 0
 290 1015 322 989 322 949 c 0
 322 878 242 836 183 836 c 0
 139 836 95 858 95 908 c 0
194 883 m 0
 231 883 270 909 270 937 c 0
 270 960 248 975 221 975 c 0
 183 975 147 949 147 920 c 0
 147 898 168 883 194 883 c 0
278 136 m 256
 257 136 207 123 207 80 c 0
 207 51 240 44 258 44 c 0
 289 44 329 64 329 99 c 0
 329 129 294 136 278 136 c 256
EndSplineSet
EndChar
StartChar: uni0E44
Encoding: 3652 3652 275
Width: 378
VWidth: 1473
Flags: W
HStem: -10 51<221.938 312.184> 133 51<242.759 309.152> 846 21G<250 276> 1027 51<78.832 165.741 376.626 495.644>
VStem: 153 53<47.2592 103.155> 327 52<56.4932 125.218> 516 58<903.863 907 907 914.141 914.141 920.34 917.24 1006.49>
Fore
54 1043 m 0
 54 1075 85 1078 109 1078 c 0
 197 1078 254 1025 278 971 c 1
 327 1044 385 1081 452 1081 c 0
 537 1081 574 1022 574 950 c 0
 574 933 572 916 568 899 c 0
 563 873 538 855 481 833 c 2
 445 818 l 2
 378 784 355 766 348 734 c 2
 229 171 l 1
 246 179 264 184 286 184 c 0
 361 184 379 138 379 105 c 0
 379 27 295 -10 245 -10 c 0
 185 -10 153 31 153 72 c 0
 153 77 153 82 154 87 c 2
 292 734 l 2
 314 837 433 861 504 899 c 0
 512 903 516 906 516 907 c 0
 518 919 520 930 520 940 c 0
 520 997 485 1033 444 1033 c 0
 374 1033 309 952 295 884 c 0
 293 875 295 846 257 846 c 0
 243 846 237 854 237 869 c 0
 237 874 240 882 240 896 c 0
 240 973 160 1027 87 1027 c 0
 70 1027 54 1028 54 1043 c 0
275 133 m 0
 223 133 206 100 206 77 c 0
 206 48 240 41 256 41 c 0
 293 41 327 63 327 96 c 0
 327 125 290 133 275 133 c 0
EndSplineSet
EndChar
StartChar: uni0E45
Encoding: 3653 3653 276
Width: 565
VWidth: 1473
Flags: W
HStem: 547 57<287.18 473.013>
VStem: 527 58<390.615 407 407 419.539 419.539 421.023 420.281 496.487>
Fore
144 460 m 0
 144 499 253 604 401 604 c 256
 491 604 589 546 589 443 c 0
 589 432 588 420 585 407 c 2
 450 -225 l 2
 447 -240 433 -255 416 -255 c 256
 401 -255 391 -243 391 -230 c 0
 391 -229 392 -227 392 -225 c 1
 527 407 l 2
 529 417 530 426 530 435 c 0
 530 516 448 547 389 547 c 0
 303 547 224 499 199 457 c 0
 191 444 178 437 167 437 c 0
 154 437 144 445 144 460 c 0
EndSplineSet
EndChar
StartChar: uni0E46
Encoding: 3654 3654 277
Width: 640
VWidth: 1473
Flags: W
HStem: 362 52<213.9 291.968> 548 48<281.236 387.119 495.934 599.21>
VStem: 151 51<418.381 474.482> 299 53<423.914 482.465> 610 60<428.609 445 445 458.991 458.991 461.595 460.293 537.672>
Fore
151 434 m 0
 151 531 257 596 349 596 c 0
 388 596 426 586 451 557 c 1
 488 588 536 603 568 603 c 0
 603 603 670 588 670 497 c 0
 670 482 668 464 664 445 c 2
 522 -220 l 2
 519 -235 502 -249 488 -249 c 256
 472 -249 461 -234 464 -220 c 2
 606 445 l 2
 609 460 610 473 610 484 c 0
 610 535 582 547 555 547 c 0
 523 547 485 523 474 505 c 1
 473 499 484 485 484 475 c 0
 484 457 457 445 441 445 c 0
 415 445 436 470 406 508 c 0
 400 515 376 548 318 548 c 0
 302 548 286 545 270 538 c 1
 312 538 352 513 352 468 c 0
 352 404 287 362 233 362 c 256
 201 362 151 377 151 434 c 0
259 486 m 256
 237 486 202 472 202 443 c 0
 202 420 232 414 244 414 c 0
 269 414 299 430 299 457 c 0
 299 480 273 486 259 486 c 256
EndSplineSet
EndChar
StartChar: uni0E47
Encoding: 3655 3655 278
Width: 0
VWidth: 1473
Flags: W
HStem: 659 389<-80 126 126 126> 659 53<-87.1272 7.83997> 782 49<-69.7873 4.59662>
VStem: -408 59<728.679 832.51> -120 44<717.925 774.031> 16 49<720.679 778.307>
Fore
65 760 m 0x3c
 65 699 -6 659 -80 659 c 0
 -108 659 -186 664 -227 745 c 1
 -296 669 l 1
 -306 667 -315 666 -324 666 c 0
 -385 666 -408 720 -408 766 c 0
 -408 833 -351 921 -209 946 c 0
 -126 959 50 991 98 1031 c 1
 107 1045 119 1048 126 1048 c 0x9c
 134 1048 150 1043 150 1025 c 0
 150 971 32 930 -212 890 c 0
 -278 879 -349 842 -349 779 c 0
 -349 755 -339 726 -311 722 c 1
 -220 826 l 2
 -212 835 -204 839 -196 839 c 0
 -182 839 -171 828 -171 816 c 0
 -171 811 -172 806 -176 801 c 2
 -188 788 l 1
 -182 759 -145 720 -107 710 c 1
 -115 716 -120 725 -120 738 c 0
 -120 778 -78 831 -16 831 c 0
 33 831 65 799 65 760 c 0x3c
-24 782 m 256x7c
 -53 782 -76 765 -76 739 c 0
 -76 717 -53 712 -39 712 c 0
 -3 712 16 736 16 754 c 0
 16 776 -10 782 -24 782 c 256x7c
EndSplineSet
Substitution2: "Single Substitution lookup 22 subtable" uni0E47.alt1
Substitution2: "Single Substitution lookup 22 subtable" uni0E47.alt1
EndChar
StartChar: uni0E48
Encoding: 3656 3656 279
Width: 0
VWidth: 1473
Flags: W
HStem: 983 196<60.959 90.873>
VStem: 29 94<1011 1151 1011 1011>
Fore
96 1179 m 0
 114 1179 126 1166 123 1151 c 2
 93 1011 l 2
 89 994 71 983 54 983 c 0
 38 983 26 996 29 1011 c 2
 59 1151 l 2
 62 1168 84 1179 96 1179 c 0
EndSplineSet
Substitution2: "Single Substitution lookup 22 subtable" uni0E48.alt2
Substitution2: "Single Substitution lookup 22 subtable" uni0E48.alt2
EndChar
StartChar: uni0E49
Encoding: 3657 3657 280
Width: 0
VWidth: 1473
Flags: W
HStem: 1071 37<6.26287 64.8344> 1182 41<6.57766 87.4849>
VStem: -100 449<984 1302.97> -48 44<1111.25 1159.46> 89 46<1116.42 1179.4>
Fore
-48 1127 m 0xd0
 -48 1175 1 1223 62 1223 c 0
 99 1223 135 1198 135 1159 c 0xd8
 135 1135 117 1077 54 1036 c 1
 185 1056 272 1131 302 1212 c 1
 304 1228 319 1239 332 1239 c 0
 345 1238 350 1229 349 1214 c 1
 295 1044 123 997 -75 966 c 0
 -81 966 l 0
 -94 966 -100 972 -100 984 c 1xe0
 -91 1026 -31 1002 13 1040 c 2
 51 1075 l 1
 40 1072 30 1071 20 1071 c 0
 -6 1071 -48 1082 -48 1127 c 0xd0
53 1182 m 0
 10 1182 -4 1148 -4 1134 c 0
 -4 1110 29 1108 39 1108 c 0
 70 1108 89 1134 89 1152 c 0
 89 1169 72 1182 53 1182 c 0
EndSplineSet
Substitution2: "Single Substitution lookup 22 subtable" uni0E49.alt2
Substitution2: "Single Substitution lookup 22 subtable" uni0E49.alt2
EndChar
StartChar: uni0E4A
Encoding: 3658 3658 281
Width: 0
VWidth: 1473
Flags: W
HStem: 986 33<-119.395 -51.3212> 1084 36<-102.784 -52.5251> 1152 44<-92.4663 2.29884 79.6154 153.691>
VStem: -165 45<1020.58 1070.56> -45 39<1025.89 1082.43> 160 33<1128 1145.52>
Fore
-165 1056 m 0
 -165 1129 -100 1196 -29 1196 c 0
 27 1196 52 1167 57 1161 c 1
 76 1182 105 1193 132 1193 c 0
 166 1193 195 1173 193 1128 c 1
 265 1225 258 1246 281 1246 c 0
 287 1246 299 1239 299 1229 c 0
 299 1206 185 1040 138 999 c 0
 132 994 125 992 118 992 c 0
 109 992 100 997 100 1007 c 0
 100 1019 110 1031 114 1036 c 1
 123 1044 l 2
 144 1067 160 1087 160 1109 c 0
 160 1126 148 1149 124 1149 c 0
 83 1149 74 1123 72 1114 c 2
 69 1103 l 2
 67 1090 59 1082 47 1080 c 1
 8 1080 43 1116 8 1139 c 0
 -7 1149 -20 1152 -39 1152 c 0
 -69 1152 -95 1134 -110 1111 c 1
 -99 1117 -85 1120 -68 1120 c 0
 -30 1120 -6 1097 -6 1065 c 0
 -6 1033 -35 986 -96 986 c 0
 -152 986 -165 1024 -165 1056 c 0
-76 1084 m 0
 -111 1084 -120 1061 -120 1046 c 0
 -120 1030 -108 1019 -89 1019 c 0
 -72 1019 -45 1035 -45 1059 c 0
 -45 1079 -66 1084 -76 1084 c 0
EndSplineSet
Substitution2: "Single Substitution lookup 22 subtable" uni0E4A.alt2
Substitution2: "Single Substitution lookup 22 subtable" uni0E4A.alt2
EndChar
StartChar: uni0E4B
Encoding: 3659 3659 282
Width: 0
VWidth: 1473
Flags: W
HStem: 991 232<72.6166 85.8773 55 104 104 104> 1084 50<-47.4808 46 113 207.469>
VStem: -49 258<1100.82 1117.64>
Fore
-49 1101 m 0x60
 -49 1112 -45 1134 -15 1134 c 2
 57 1134 l 1x60
 69 1192 l 2
 73 1208 87 1223 104 1223 c 256xa0
 118 1223 126 1213 126 1200 c 0
 126 1197 126 1195 125 1192 c 2
 113 1134 l 1
 185 1134 l 2
 201 1134 209 1128 209 1116 c 0
 209 1103 202 1084 174 1084 c 2
 102 1084 l 1x60
 89 1022 l 2
 86 1006 72 991 55 991 c 256xa0
 40 991 32 1002 32 1015 c 0
 32 1018 33 1020 33 1022 c 1
 46 1084 l 1
 -26 1084 l 2
 -42 1084 -49 1089 -49 1101 c 0x60
EndSplineSet
Substitution2: "Single Substitution lookup 22 subtable" uni0E4B.alt2
Substitution2: "Single Substitution lookup 22 subtable" uni0E4B.alt2
EndChar
StartChar: uni0E4C
Encoding: 3660 3660 283
Width: 0
VWidth: 1473
Flags: W
HStem: 919 37<-49.7746 23.1146> 1049 117<49 179>
VStem: -97 45<958.58 1016.51> 30 44<964.008 1022.39>
Fore
199 1147 m 0
 199 1124 121 1051 49 1049 c 1
 62 1039 74 1024 74 1002 c 0
 74 952 18 919 -26 919 c 0
 -87 919 -97 954 -97 976 c 0
 -97 1005 -81 1028 -62 1048 c 0
 -20 1091 42 1067 103 1105 c 0
 163 1141 158 1166 179 1166 c 0
 189 1166 199 1158 199 1147 c 0
-18 956 m 256
 4 956 30 973 30 998 c 0
 30 1013 16 1024 -3 1024 c 256
 -33 1024 -52 1001 -52 986 c 0
 -52 970 -37 956 -18 956 c 256
EndSplineSet
Substitution2: "Single Substitution lookup 22 subtable" uni0E4C.alt2
Substitution2: "Single Substitution lookup 22 subtable" uni0E4C.alt2
EndChar
StartChar: uni0E4D
Encoding: 3661 3661 284
Width: 0
VWidth: 1473
Flags: W
HStem: 672 51<-56.2413 54.5599> 831 51<-40.5587 67.8079>
VStem: -118 54<733.701 807.195> 76 53<745.15 811.754>
Fore
-118 754 m 0
 -118 817 -56 882 28 882 c 0
 101 882 129 839 129 796 c 0
 129 736 73 672 -16 672 c 0
 -62 672 -118 697 -118 754 c 0
18 831 m 0
 -34 831 -64 792 -64 766 c 0
 -64 726 -5 723 -5 723 c 1
 44 723 76 757 76 783 c 0
 76 800 68 831 18 831 c 0
EndSplineSet
Substitution2: "Single Substitution lookup 22 subtable" uni0E4D.alt1
Substitution2: "Single Substitution lookup 22 subtable" uni0E4D.alt1
EndChar
StartChar: uni0E4E
Encoding: 3662 3662 285
Width: 0
VWidth: 1473
Flags: W
HStem: 650 37<-90.3086 -27.1532 -34.713 -19.5935 -19.5935 -13> 966 23<71.321 151.492>
VStem: -158 63<694.8 765.306> -36 56<848.885 923.169>
Fore
-36 877 m 0
 -36 933 21 989 111 989 c 0
 121 989 168 989 168 974 c 0
 168 971 164 967 162 966 c 1
 88 965 20 929 20 874 c 0
 20 852 33 842 51 837 c 1
 68 837 74 803 37 800 c 0
 -62 796 -95 754 -95 724 c 0
 -95 701 -72 687 -29 687 c 0
 -14 687 -3 687 6 688 c 1
 -13 654 l 1
 -37 651 -56 650 -73 650 c 0
 -127 653 -158 677 -158 712 c 0
 -158 735 -142 815 -11 828 c 1
 -27 841 -36 858 -36 877 c 0
EndSplineSet
Substitution2: "Single Substitution lookup 22 subtable" uni0E4E.alt1
Substitution2: "Single Substitution lookup 22 subtable" uni0E4E.alt1
EndChar
StartChar: uni0E4F
Encoding: 3663 3663 286
Width: 662
VWidth: 1473
Flags: W
HStem: -4 50<256.793 433.297> 97 53<307.202 428.789> 339 51<339.997 458.168> 442 52<332.092 512.09>
VStem: 128 53<121.59 293.292> 234 53<171.22 285.921> 480 52<201.428 318.183> 586 51<197.681 370.301>
Fore
403 339 m 256
 343 339 287 284 287 224 c 0
 287 180 319 150 363 150 c 256
 430 150 480 209 480 264 c 0
 480 305 452 339 403 339 c 256
234 213 m 0
 234 309 324 390 414 390 c 256
 487 390 532 340 532 276 c 0
 532 184 447 97 352 97 c 256
 283 97 234 146 234 213 c 0
425 442 m 0
 302 442 181 332 181 202 c 0
 181 110 249 46 341 46 c 0
 468 46 586 162 586 288 c 0
 586 379 520 442 425 442 c 0
637 296 m 0
 637 144 495 -4 330 -4 c 256
 210 -4 128 77 128 191 c 0
 128 351 277 494 436 494 c 0
 555 494 637 409 637 296 c 0
EndSplineSet
EndChar
StartChar: uni0E50
Encoding: 3664 3664 287
Width: 695
VWidth: 1473
Flags: W
HStem: -7 48<244.324 481.584> 398 50<317.639 542.92>
VStem: 104 58<111.27 266.405> 624 57<168.075 327.236>
Fore
104 174 m 0
 104 338 263 448 440 448 c 0
 557 448 681 393 681 268 c 0
 681 158 597 -7 344 -7 c 0
 226 -7 104 49 104 174 c 0
431 398 m 256
 297 398 162 313 162 182 c 0
 162 83 255 41 355 41 c 0
 564 41 624 171 624 258 c 0
 624 357 530 398 431 398 c 256
EndSplineSet
EndChar
StartChar: uni0E51
Encoding: 3665 3665 288
Width: 720
VWidth: 1473
Flags: W
HStem: 17 45<219.194 355.782> 76 42<338.783 400.88 370 377> 214 53<338.689 440.641> 387 55<324.912 548.504>
VStem: 115 57<106.411 256.598> 264 56<124.763 194.8> 447 57<135.661 206.757> 636 54<141.147 309.133>
Fore
393 214 m 0
 364 214 320 191 320 156 c 0
 320 125 357 118 373 118 c 0
 404 118 447 137 447 173 c 0
 447 198 424 214 393 214 c 0
115 162 m 0
 115 299 254 442 451 442 c 0
 595 442 690 364 690 242 c 0
 690 33 465 -72 435 -72 c 0
 422 -72 414 -61 414 -49 c 0
 414 -38 420 -26 436 -21 c 0
 563 30 636 131 636 232 c 0
 636 337 545 387 439 387 c 0
 286 387 172 287 172 176 c 0
 172 124 199 62 303 62 c 0
 329 62 354 67 377 77 c 1
 372 77 368 76 363 76 c 0
 307 76 264 105 264 150 c 0
 264 212 335 267 405 267 c 0
 462 267 504 231 504 180 c 0
 504 82 382 17 281 17 c 0
 189 17 115 69 115 162 c 0
EndSplineSet
EndChar
StartChar: uni0E52
Encoding: 3666 3666 289
Width: 836
VWidth: 1473
Flags: W
HStem: 0 53<158 670.941> 94 52<331.303 422.914> 237 52<328.878 421.897> 389 54<379.626 496.15 658.869 740.035>
VStem: 158 55<214.272 579.052> 252 63<152.232 265.322> 438 53<163.043 230.398> 761 54<186.3 367.673>
Fore
386 237 m 256
 346 237 315 215 315 182 c 0
 315 152 348 146 367 146 c 0
 396 146 438 164 438 202 c 0
 438 231 404 237 386 237 c 256
815 304 m 0
 815 171 724 0 618 0 c 2
 121 0 l 2
 112 0 100 9 100 27 c 0
 100 45 158 247 158 447 c 0
 158 589 127 640 127 656 c 0
 127 668 144 686 160 686 c 0
 169 686 177 681 180 673 c 0
 204 611 213 534 213 456 c 0
 213 274 163 68 158 53 c 1
 622 53 l 2
 698 53 761 196 761 296 c 0
 761 347 743 389 685 389 c 0
 661 389 599 378 583 300 c 2
 579 283 l 2
 576 266 562 255 546 255 c 256
 533 255 525 262 525 273 c 0
 525 281 529 289 529 312 c 0
 529 387 474 389 451 389 c 0
 361 389 322 311 311 259 c 1
 338 279 366 289 397 289 c 0
 439 289 491 261 491 209 c 0
 491 144 423 94 356 94 c 0
 286 94 252 139 252 207 c 0
 252 300 315 443 470 443 c 0
 550 434 567 402 574 389 c 1
 628 440 663 443 694 443 c 0
 788 443 815 375 815 304 c 0
EndSplineSet
EndChar
StartChar: uni0E53
Encoding: 3667 3667 290
Width: 817
VWidth: 1473
Flags: W
HStem: -7 51<212.963 302.592> 136 51<229.138 301.48> 395 54<279.801 418.249 601.725 710.853>
VStem: 110 50<120.609 260.882> 318 52<60.8388 128.989> 464 56<124.8 323.461> 743 55<210.362 362.911>
Fore
370 108 m 0
 370 40 298 -7 236 -7 c 0
 135 -7 110 79 110 153 c 0
 110 312 229 449 367 449 c 0
 428 449 478 417 501 364 c 1
 520 392 575 449 660 449 c 0
 715 449 798 425 798 298 c 0
 798 184 724 39 694 9 c 0
 686 1 674 -3 663 -3 c 0
 651 -3 640 3 640 12 c 0
 640 30 705 80 736 226 c 0
 741 250 743 270 743 288 c 0
 743 376 688 395 653 395 c 0
 635 395 546 385 518 303 c 1
 519 293 520 281 520 270 c 0
 520 193 499 124 484 78 c 0
 479 62 465 55 452 55 c 0
 440 55 430 61 430 73 c 0
 430 85 464 163 464 253 c 0
 464 365 402 395 353 395 c 0
 250 395 160 281 160 157 c 0
 160 143 162 129 165 116 c 1
 186 175 249 187 277 187 c 0
 320 187 370 159 370 108 c 0
266 136 m 256
 232 136 195 116 195 81 c 0
 195 50 231 44 246 44 c 0
 277 44 318 64 318 100 c 0
 318 129 284 136 266 136 c 256
EndSplineSet
EndChar
StartChar: uni0E54
Encoding: 3668 3668 291
Width: 748
VWidth: 1473
Flags: W
HStem: 0 50<214.943 509 572.863 706.574> 160 43<440.955 522.189> 295 51<428.669 532.547>
VStem: 105 54<104.031 253.389> 354 60<209.872 279.472> 537 52<219.075 287.942>
Fore
589 265 m 0
 589 208 533 160 467 160 c 0
 455 160 444 162 433 165 c 1
 457 135 559 70 640 56 c 1
 690 55 l 2
 703 55 709 46 709 35 c 0
 709 29 706 0 678 0 c 2
 280 0 l 2
 171 0 105 74 105 164 c 0
 105 221 137 383 387 449 c 0
 876 581 826 667 872 667 c 0
 883 667 893 658 893 645 c 0
 893 598 727 489 436 412 c 2
 390 399 l 2
 201 350 159 234 159 175 c 0
 159 109 207 50 291 50 c 2
 509 50 l 1
 428 91 354 146 354 221 c 0
 354 286 418 346 497 346 c 0
 547 346 589 316 589 265 c 0
486 295 m 0
 459 295 414 281 414 239 c 0
 414 210 448 203 466 203 c 256
 496 203 537 221 537 257 c 0
 537 280 515 295 486 295 c 0
EndSplineSet
EndChar
